<svg width="2691" height="1447" xmlns="http://www.w3.org/2000/svg" xmlns:xlink="http://www.w3.org/1999/xlink" xml:space="preserve" overflow="hidden"><defs><clipPath id="clip0"><rect x="1279" y="301" width="2691" height="1447"/></clipPath></defs><g clip-path="url(#clip0)" transform="translate(-1279 -301)"><rect x="1281.5" y="1606.75" width="262.75" height="138.75" fill="#F4B183"/><path d="M1544.25 1606.75 1590.5 1560.5 1590.5 1699.25 1544.25 1745.5Z" fill="#C48E69" fill-rule="evenodd"/><path d="M1281.5 1606.75 1327.75 1560.5 1590.5 1560.5 1544.25 1606.75Z" fill="#F6C09B" fill-rule="evenodd"/><path d="M1281.5 1606.75 1327.75 1560.5 1590.5 1560.5 1590.5 1699.25 1544.25 1745.5 1281.5 1745.5ZM1281.5 1606.75 1544.25 1606.75 1590.5 1560.5M1544.25 1606.75 1544.25 1745.5" stroke="#F4B183" stroke-width="4.58333" stroke-miterlimit="8" stroke-opacity="0" fill="none" fill-rule="evenodd"/><path d="M1370.04 1648.94 1406.59 1648.94 1403.79 1661.39 1399.9 1661.39C1399.8 1659.3 1399.63 1657.66 1399.4 1656.46 1399.17 1655.26 1398.84 1654.39 1398.42 1653.87 1398.01 1653.34 1397.5 1652.98 1396.9 1652.79 1396.31 1652.6 1395.42 1652.51 1394.23 1652.51L1381.75 1652.51 1376.92 1674.56 1384.5 1674.56C1385.69 1674.56 1386.68 1674.39 1387.46 1674.07 1388.25 1673.75 1388.98 1673.16 1389.65 1672.31 1390.33 1671.46 1391.16 1670 1392.16 1667.95L1395.85 1667.95 1391.92 1685.05 1388.35 1685.05C1388.35 1682.32 1388.27 1680.62 1388.09 1679.93 1387.91 1679.24 1387.58 1678.76 1387.08 1678.51 1386.58 1678.25 1385.58 1678.12 1384.1 1678.12L1376.15 1678.12 1372.95 1692.47C1372.39 1695.01 1372.1 1697.12 1372.1 1698.79 1372.1 1699.63 1372.24 1700.28 1372.51 1700.76 1372.78 1701.23 1373.18 1701.57 1373.72 1701.79 1374.26 1702.01 1375.2 1702.17 1376.52 1702.28L1376.07 1704.26 1359.42 1704.26 1359.86 1702.28C1360.89 1702.11 1361.66 1701.85 1362.17 1701.49 1362.69 1701.12 1363.12 1700.62 1363.47 1699.97 1363.82 1699.32 1364.15 1698.53 1364.44 1697.6 1364.74 1696.66 1365.19 1694.86 1365.78 1692.19L1372.67 1660.98C1373.26 1658.28 1373.56 1656.14 1373.56 1654.58 1373.56 1653.25 1373.25 1652.33 1372.63 1651.82 1372.01 1651.31 1370.99 1651.01 1369.59 1650.93Z" fill="#FFFFFF" fill-rule="evenodd"/><text fill="#000000" fill-opacity="0" font-family="Arial,Arial_MSFontService,sans-serif" font-size="55.3198" x="1359.42" y="1697.35">𝐹</text><path d="M1428.54 1635.49C1430.6 1635.49 1432.36 1635.72 1433.82 1636.19 1435.28 1636.65 1436.47 1637.28 1437.38 1638.08 1438.3 1638.87 1438.96 1639.83 1439.36 1640.94 1439.77 1642.05 1439.97 1643.25 1439.97 1644.54 1439.97 1645.32 1439.92 1646.04 1439.81 1646.7 1439.7 1647.37 1439.51 1648.02 1439.24 1648.67 1438.98 1649.31 1438.62 1649.96 1438.19 1650.62 1437.75 1651.27 1437.2 1651.97 1436.55 1652.7 1436.05 1653.34 1435.41 1654.07 1434.61 1654.91 1433.82 1655.74 1432.95 1656.63 1432.01 1657.59 1431.06 1658.54 1430.08 1659.53 1429.04 1660.57 1428.01 1661.6 1427.01 1662.62 1426.03 1663.63 1425.06 1664.65 1424.17 1665.63 1423.35 1666.58 1422.54 1667.54 1421.87 1668.41 1421.36 1669.2L1432.38 1669.2C1433.31 1669.2 1434.06 1669.17 1434.61 1669.1 1435.17 1669.03 1435.63 1668.88 1436 1668.64 1436.37 1668.4 1436.68 1668.04 1436.94 1667.55 1437.19 1667.06 1437.49 1666.39 1437.83 1665.54L1440.6 1665.54C1440.5 1666.95 1440.41 1668.37 1440.32 1669.8 1440.23 1671.23 1440.13 1672.65 1440.03 1674.06L1414.81 1674.06 1414.81 1672.51C1415.28 1671.44 1415.84 1670.38 1416.47 1669.34 1417.11 1668.3 1417.82 1667.24 1418.62 1666.17 1419.41 1665.09 1420.32 1663.99 1421.33 1662.84 1422.34 1661.7 1423.46 1660.52 1424.69 1659.29 1426.56 1657.42 1428.08 1655.83 1429.25 1654.5 1430.42 1653.18 1431.35 1652.01 1432.02 1650.98 1432.7 1649.94 1433.16 1648.99 1433.41 1648.12 1433.65 1647.24 1433.78 1646.31 1433.78 1645.32 1433.78 1644.3 1433.64 1643.37 1433.35 1642.52 1433.06 1641.66 1432.65 1640.94 1432.11 1640.34 1431.57 1639.75 1430.89 1639.28 1430.07 1638.94 1429.25 1638.6 1428.3 1638.44 1427.23 1638.44 1425.38 1638.44 1423.83 1638.94 1422.58 1639.94 1421.33 1640.94 1420.36 1642.4 1419.66 1644.3L1415.76 1644.3 1415.76 1638.5C1418.3 1637.44 1420.64 1636.68 1422.77 1636.2 1424.91 1635.73 1426.83 1635.49 1428.54 1635.49Z" fill="#FFFFFF" fill-rule="evenodd"/><text fill="#000000" fill-opacity="0" font-family="Arial,Arial_MSFontService,sans-serif" font-size="38.5718" x="1414.81" y="1669.24">2</text><rect x="2842.5" y="848.5" width="309" height="495" stroke="#2F528F" stroke-width="4.58333" stroke-miterlimit="8" fill="#4472C4"/><path d="M2984.58 869.545 3000.79 869.545 3000.34 871.531C2999.32 871.747 2998.58 871.99 2998.14 872.261 2997.69 872.531 2997.29 872.936 2996.94 873.477 2996.59 874.017 2996.22 874.861 2995.85 876.009 2995.47 877.158 2994.99 879.029 2994.43 881.622L2987.5 913.072C2987.15 914.666 2986.92 915.929 2986.81 916.861 2986.7 917.793 2986.65 918.637 2986.65 919.394 2986.65 920.61 2986.95 921.468 2987.56 921.967 2988.17 922.467 2989.19 922.771 2990.62 922.879L2990.17 924.865 2973.96 924.865 2974.41 922.879C2975.43 922.717 2976.2 922.454 2976.72 922.089 2977.23 921.724 2977.66 921.218 2978.01 920.569 2978.36 919.921 2978.69 919.131 2978.99 918.198 2979.28 917.266 2979.73 915.463 2980.32 912.788L2987.21 881.582C2987.81 878.88 2988.1 876.705 2988.1 875.057 2988.1 873.787 2987.79 872.902 2987.15 872.403 2986.52 871.903 2985.51 871.612 2984.13 871.531ZM2957.43 868.897C2959.91 868.897 2962.21 869.066 2964.33 869.404 2966.46 869.741 2968.8 870.315 2971.37 871.126L2969.1 881.541 2965.21 881.541C2965.1 879.245 2964.75 877.441 2964.15 876.131 2963.56 874.821 2962.71 873.882 2961.6 873.314 2960.49 872.747 2959.02 872.463 2957.18 872.463 2954.94 872.463 2952.97 872.923 2951.26 873.841 2949.56 874.76 2948.27 876.009 2947.37 877.59 2946.48 879.171 2946.04 880.934 2946.04 882.879 2946.04 884.905 2946.57 886.682 2947.64 888.208 2948.7 889.735 2950.75 891.538 2953.78 893.619 2956.43 895.456 2958.45 897.097 2959.84 898.543 2961.23 899.988 2962.25 901.521 2962.92 903.143 2963.58 904.764 2963.91 906.641 2963.91 908.776 2963.91 912.072 2963.12 914.997 2961.54 917.55 2959.96 920.103 2957.73 922.076 2954.85 923.467 2951.97 924.858 2948.7 925.554 2945.02 925.554 2942.54 925.554 2939.86 925.352 2936.98 924.946 2934.1 924.541 2931.53 924.028 2929.26 923.406L2931.69 912.261 2935.58 912.261C2935.58 915.557 2936.34 918.009 2937.87 919.617 2939.4 921.224 2941.75 922.028 2944.94 922.028 2948.62 922.028 2951.51 921.029 2953.62 919.029 2955.72 917.03 2956.78 914.247 2956.78 910.681 2956.78 909.032 2956.49 907.58 2955.91 906.324 2955.32 905.068 2954.45 903.865 2953.27 902.717 2952.1 901.569 2950.4 900.252 2948.18 898.766 2946.19 897.415 2944.52 896.084 2943.2 894.774 2941.88 893.463 2940.82 891.997 2940.04 890.376 2939.26 888.755 2938.86 886.945 2938.86 884.946 2938.86 881.758 2939.63 878.948 2941.17 876.516 2942.71 874.084 2944.89 872.207 2947.7 870.883 2950.51 869.559 2953.75 868.897 2957.43 868.897ZM2913.43 868.897C2915.91 868.897 2918.21 869.066 2920.33 869.404 2922.46 869.741 2924.8 870.315 2927.37 871.126L2925.1 881.541 2921.21 881.541C2921.1 879.245 2920.75 877.441 2920.15 876.131 2919.56 874.821 2918.71 873.882 2917.6 873.314 2916.49 872.747 2915.02 872.463 2913.18 872.463 2910.94 872.463 2908.97 872.923 2907.26 873.841 2905.56 874.76 2904.27 876.009 2903.37 877.59 2902.48 879.171 2902.04 880.934 2902.04 882.879 2902.04 884.905 2902.57 886.682 2903.64 888.208 2904.7 889.735 2906.75 891.538 2909.78 893.619 2912.43 895.456 2914.45 897.097 2915.84 898.543 2917.23 899.988 2918.25 901.521 2918.92 903.143 2919.58 904.764 2919.91 906.641 2919.91 908.776 2919.91 912.072 2919.12 914.997 2917.54 917.55 2915.96 920.103 2913.73 922.076 2910.85 923.467 2907.97 924.858 2904.7 925.554 2901.02 925.554 2898.54 925.554 2895.86 925.352 2892.98 924.946 2890.1 924.541 2887.53 924.028 2885.26 923.406L2887.69 912.261 2891.58 912.261C2891.58 915.557 2892.34 918.009 2893.87 919.617 2895.4 921.224 2897.75 922.028 2900.94 922.028 2904.62 922.028 2907.51 921.029 2909.62 919.029 2911.72 917.03 2912.78 914.247 2912.78 910.681 2912.78 909.032 2912.49 907.58 2911.91 906.324 2911.32 905.068 2910.45 903.865 2909.27 902.717 2908.1 901.569 2906.4 900.252 2904.18 898.766 2902.19 897.415 2900.52 896.084 2899.2 894.774 2897.88 893.463 2896.82 891.997 2896.04 890.376 2895.26 888.755 2894.86 886.945 2894.86 884.946 2894.86 881.758 2895.63 878.948 2897.17 876.516 2898.71 874.084 2900.89 872.207 2903.7 870.883 2906.51 869.559 2909.75 868.897 2913.43 868.897Z" fill="#FFFFFF" fill-rule="evenodd"/><text fill="#000000" fill-opacity="0" font-family="Arial,Arial_MSFontService,sans-serif" font-size="56.6572" x="2885.26" y="918.472">𝑆𝑆𝐼</text><path d="M3018.7 869.545 3033.17 869.545 3037.79 908.857 3061.42 869.545 3074.19 869.545 3073.74 871.531C3072.71 871.747 3071.98 871.99 3071.53 872.261 3071.09 872.531 3070.68 872.936 3070.32 873.477 3069.95 874.017 3069.59 874.861 3069.22 876.009 3068.86 877.158 3068.39 879.029 3067.82 881.622L3060.89 913.072C3060.54 914.666 3060.31 915.929 3060.2 916.861 3060.1 917.793 3060.04 918.637 3060.04 919.394 3060.04 920.61 3060.35 921.468 3060.95 921.967 3061.56 922.467 3062.58 922.771 3064.01 922.879L3063.57 924.865 3047.36 924.865 3047.8 922.879C3048.83 922.717 3049.6 922.454 3050.11 922.089 3050.63 921.724 3051.06 921.218 3051.41 920.569 3051.76 919.921 3052.09 919.131 3052.38 918.198 3052.68 917.266 3053.13 915.463 3053.72 912.788L3059.11 888.35C3059.87 884.973 3060.73 881.609 3061.7 878.259L3061.14 878.259C3060.3 879.853 3058.41 883.095 3055.46 887.985L3037.02 918.421 3032.6 918.421 3029.24 892.362C3028.75 888.688 3028.21 883.743 3027.62 877.529L3026.81 877.529C3025.89 883.581 3024.86 889.188 3023.73 894.348L3019.6 913.072C3019.03 915.638 3018.74 917.746 3018.74 919.394 3018.74 920.61 3019.05 921.468 3019.66 921.967 3020.26 922.467 3021.28 922.771 3022.72 922.879L3022.27 924.865 3008.09 924.865 3008.53 922.879C3009.56 922.717 3010.33 922.454 3010.84 922.089 3011.36 921.724 3011.79 921.218 3012.14 920.569 3012.49 919.921 3012.81 919.131 3013.11 918.198 3013.41 917.266 3013.85 915.463 3014.45 912.788L3021.34 881.582C3021.61 880.42 3021.82 879.312 3021.99 878.259 3022.15 877.205 3022.23 876.138 3022.23 875.057 3022.23 873.787 3021.91 872.902 3021.28 872.403 3020.64 871.903 3019.64 871.612 3018.26 871.531Z" fill="#FFFFFF" fill-rule="evenodd"/><text fill="#000000" fill-opacity="0" font-family="Arial,Arial_MSFontService,sans-serif" font-size="55.3198" x="3008.09" y="917.95">𝑀</text><path d="M3089.69 903.346 3091.51 903.346C3091.47 904.438 3091.44 905.416 3091.42 906.279 3091.4 907.143 3091.39 907.982 3091.38 908.796 3091.37 909.61 3091.36 910.415 3091.36 911.209L3091.36 933.846C3091.36 934.461 3091.38 934.992 3091.42 935.439 3091.46 935.886 3091.52 936.263 3091.61 936.571 3091.7 936.879 3091.82 937.142 3091.97 937.36 3092.12 937.579 3092.29 937.767 3092.49 937.926 3092.73 938.164 3093.05 938.348 3093.45 938.477 3093.84 938.606 3094.35 938.716 3094.97 938.805 3095.58 938.894 3096.32 938.964 3097.18 939.013 3098.05 939.063 3099.09 939.098 3100.3 939.118L3100.3 941.709 3076.68 941.709 3076.68 939.118C3077.85 939.078 3078.84 939.033 3079.66 938.984 3080.47 938.934 3081.16 938.864 3081.74 938.775 3082.32 938.686 3082.78 938.586 3083.13 938.477 3083.47 938.368 3083.78 938.234 3084.03 938.075 3084.31 937.896 3084.55 937.703 3084.75 937.494 3084.95 937.286 3085.11 937.023 3085.23 936.705 3085.34 936.387 3085.44 936 3085.51 935.543 3085.58 935.087 3085.61 934.521 3085.61 933.846L3085.61 912.49C3085.61 911.715 3085.46 911.169 3085.17 910.852 3084.87 910.534 3084.44 910.375 3083.89 910.375 3083.27 910.375 3082.36 910.693 3081.14 911.328 3079.93 911.964 3078.36 912.907 3076.44 914.158 3076.18 913.701 3075.94 913.244 3075.72 912.788 3075.51 912.331 3075.28 911.864 3075.04 911.388 3077.5 910.037 3079.94 908.692 3082.35 907.352 3084.76 906.011 3087.21 904.676 3089.69 903.346Z" fill="#FFFFFF" fill-rule="evenodd"/><text fill="#000000" fill-opacity="0" font-family="Arial,Arial_MSFontService,sans-serif" font-size="38.3633" x="3075.04" y="936.914">1</text><text fill="#FFFFFF" font-family="Calibri,Calibri_MSFontService,sans-serif" font-weight="400" font-size="83" transform="matrix(1 0 0 1 2967.93 1024)">…</text><path d="M2989.46 1067.55 3005.67 1067.55 3005.23 1069.53C3004.2 1069.75 3003.46 1069.99 3003.02 1070.26 3002.57 1070.53 3002.17 1070.94 3001.82 1071.48 3001.47 1072.02 3001.1 1072.86 3000.73 1074.01 3000.35 1075.16 2999.88 1077.03 2999.31 1079.62L2992.38 1111.07C2992.03 1112.67 2991.8 1113.93 2991.69 1114.86 2991.58 1115.79 2991.53 1116.64 2991.53 1117.39 2991.53 1118.61 2991.83 1119.47 2992.44 1119.97 2993.05 1120.47 2994.07 1120.77 2995.5 1120.88L2995.05 1122.87 2978.84 1122.87 2979.29 1120.88C2980.31 1120.72 2981.08 1120.45 2981.6 1120.09 2982.11 1119.72 2982.54 1119.22 2982.89 1118.57 2983.25 1117.92 2983.57 1117.13 2983.87 1116.2 2984.16 1115.27 2984.61 1113.46 2985.2 1110.79L2992.09 1079.58C2992.69 1076.88 2992.99 1074.71 2992.99 1073.06 2992.99 1071.79 2992.67 1070.9 2992.03 1070.4 2991.4 1069.9 2990.39 1069.61 2989.01 1069.53ZM2962.31 1066.9C2964.79 1066.9 2967.1 1067.07 2969.22 1067.4 2971.34 1067.74 2973.68 1068.32 2976.25 1069.13L2973.98 1079.54 2970.09 1079.54C2969.98 1077.24 2969.63 1075.44 2969.03 1074.13 2968.44 1072.82 2967.59 1071.88 2966.48 1071.31 2965.37 1070.75 2963.9 1070.46 2962.06 1070.46 2959.82 1070.46 2957.85 1070.92 2956.15 1071.84 2954.44 1072.76 2953.15 1074.01 2952.26 1075.59 2951.36 1077.17 2950.92 1078.93 2950.92 1080.88 2950.92 1082.91 2951.45 1084.68 2952.52 1086.21 2953.59 1087.73 2955.63 1089.54 2958.66 1091.62 2961.31 1093.46 2963.33 1095.1 2964.72 1096.54 2966.11 1097.99 2967.14 1099.52 2967.8 1101.14 2968.46 1102.76 2968.79 1104.64 2968.79 1106.78 2968.79 1110.07 2968 1113 2966.42 1115.55 2964.84 1118.1 2962.61 1120.08 2959.73 1121.47 2956.86 1122.86 2953.58 1123.55 2949.9 1123.55 2947.42 1123.55 2944.74 1123.35 2941.86 1122.95 2938.98 1122.54 2936.41 1122.03 2934.14 1121.41L2936.57 1110.26 2940.46 1110.26C2940.46 1113.56 2941.23 1116.01 2942.75 1117.62 2944.28 1119.22 2946.64 1120.03 2949.82 1120.03 2953.5 1120.03 2956.39 1119.03 2958.5 1117.03 2960.6 1115.03 2961.66 1112.25 2961.66 1108.68 2961.66 1107.03 2961.37 1105.58 2960.79 1104.32 2960.21 1103.07 2959.33 1101.87 2958.15 1100.72 2956.98 1099.57 2955.28 1098.25 2953.07 1096.77 2951.07 1095.41 2949.41 1094.08 2948.08 1092.77 2946.76 1091.46 2945.7 1090 2944.92 1088.38 2944.14 1086.76 2943.74 1084.95 2943.74 1082.95 2943.74 1079.76 2944.51 1076.95 2946.05 1074.52 2947.59 1072.08 2949.77 1070.21 2952.58 1068.88 2955.39 1067.56 2958.63 1066.9 2962.31 1066.9ZM2918.31 1066.9C2920.79 1066.9 2923.1 1067.07 2925.22 1067.4 2927.34 1067.74 2929.68 1068.32 2932.25 1069.13L2929.98 1079.54 2926.09 1079.54C2925.98 1077.24 2925.63 1075.44 2925.03 1074.13 2924.44 1072.82 2923.59 1071.88 2922.48 1071.31 2921.37 1070.75 2919.9 1070.46 2918.06 1070.46 2915.82 1070.46 2913.85 1070.92 2912.15 1071.84 2910.44 1072.76 2909.15 1074.01 2908.26 1075.59 2907.36 1077.17 2906.92 1078.93 2906.92 1080.88 2906.92 1082.91 2907.45 1084.68 2908.52 1086.21 2909.59 1087.73 2911.63 1089.54 2914.66 1091.62 2917.31 1093.46 2919.33 1095.1 2920.72 1096.54 2922.11 1097.99 2923.14 1099.52 2923.8 1101.14 2924.46 1102.76 2924.79 1104.64 2924.79 1106.78 2924.79 1110.07 2924 1113 2922.42 1115.55 2920.84 1118.1 2918.61 1120.08 2915.73 1121.47 2912.86 1122.86 2909.58 1123.55 2905.9 1123.55 2903.42 1123.55 2900.74 1123.35 2897.86 1122.95 2894.98 1122.54 2892.41 1122.03 2890.14 1121.41L2892.57 1110.26 2896.46 1110.26C2896.46 1113.56 2897.23 1116.01 2898.75 1117.62 2900.28 1119.22 2902.64 1120.03 2905.82 1120.03 2909.5 1120.03 2912.39 1119.03 2914.5 1117.03 2916.6 1115.03 2917.66 1112.25 2917.66 1108.68 2917.66 1107.03 2917.37 1105.58 2916.79 1104.32 2916.21 1103.07 2915.33 1101.87 2914.15 1100.72 2912.98 1099.57 2911.28 1098.25 2909.07 1096.77 2907.07 1095.41 2905.41 1094.08 2904.08 1092.77 2902.76 1091.46 2901.7 1090 2900.92 1088.38 2900.14 1086.76 2899.74 1084.95 2899.74 1082.95 2899.74 1079.76 2900.51 1076.95 2902.05 1074.52 2903.59 1072.08 2905.77 1070.21 2908.58 1068.88 2911.39 1067.56 2914.63 1066.9 2918.31 1066.9Z" fill="#FFFFFF" fill-rule="evenodd"/><text fill="#000000" fill-opacity="0" font-family="Arial,Arial_MSFontService,sans-serif" font-size="56.6572" x="2890.14" y="1116.47">𝑆𝑆𝐼</text><path d="M3023.59 1067.55 3038.05 1067.55 3042.67 1106.86 3066.3 1067.55 3079.07 1067.55 3078.62 1069.53C3077.59 1069.75 3076.86 1069.99 3076.41 1070.26 3075.97 1070.53 3075.56 1070.94 3075.2 1071.48 3074.83 1072.02 3074.47 1072.86 3074.1 1074.01 3073.74 1075.16 3073.27 1077.03 3072.7 1079.62L3065.77 1111.07C3065.42 1112.67 3065.19 1113.93 3065.09 1114.86 3064.98 1115.79 3064.92 1116.64 3064.92 1117.39 3064.92 1118.61 3065.23 1119.47 3065.83 1119.97 3066.44 1120.47 3067.46 1120.77 3068.89 1120.88L3068.45 1122.87 3052.24 1122.87 3052.68 1120.88C3053.71 1120.72 3054.48 1120.45 3054.99 1120.09 3055.51 1119.72 3055.94 1119.22 3056.29 1118.57 3056.64 1117.92 3056.97 1117.13 3057.26 1116.2 3057.56 1115.27 3058.01 1113.46 3058.6 1110.79L3063.99 1086.35C3064.75 1082.97 3065.61 1079.61 3066.58 1076.26L3066.02 1076.26C3065.18 1077.85 3063.29 1081.1 3060.34 1085.99L3041.9 1116.42 3037.49 1116.42 3034.12 1090.36C3033.64 1086.69 3033.1 1081.74 3032.5 1075.53L3031.69 1075.53C3030.77 1081.58 3029.75 1087.19 3028.61 1092.35L3024.48 1111.07C3023.91 1113.64 3023.63 1115.75 3023.63 1117.39 3023.63 1118.61 3023.93 1119.47 3024.54 1119.97 3025.15 1120.47 3026.17 1120.77 3027.6 1120.88L3027.15 1122.87 3012.97 1122.87 3013.41 1120.88C3014.44 1120.72 3015.21 1120.45 3015.72 1120.09 3016.24 1119.72 3016.67 1119.22 3017.02 1118.57 3017.37 1117.92 3017.7 1117.13 3017.99 1116.2 3018.29 1115.27 3018.74 1113.46 3019.33 1110.79L3026.22 1079.58C3026.49 1078.42 3026.71 1077.31 3026.87 1076.26 3027.03 1075.21 3027.11 1074.14 3027.11 1073.06 3027.11 1071.79 3026.79 1070.9 3026.16 1070.4 3025.52 1069.9 3024.52 1069.61 3023.14 1069.53Z" fill="#FFFFFF" fill-rule="evenodd"/><text fill="#000000" fill-opacity="0" font-family="Arial,Arial_MSFontService,sans-serif" font-size="55.3198" x="3012.97" y="1115.95">𝑀</text><path d="M3090.67 1109.6 3092.13 1109.6 3087.72 1129.43C3087.44 1130.6 3087.25 1131.54 3087.14 1132.23 3087.03 1132.93 3086.97 1133.55 3086.97 1134.11 3086.97 1134.86 3087.13 1135.41 3087.44 1135.75 3087.74 1136.09 3088.21 1136.25 3088.82 1136.25 3089.18 1136.25 3089.54 1136.18 3089.89 1136.05 3090.25 1135.91 3090.63 1135.69 3091.04 1135.39 3091.45 1135.09 3091.89 1134.71 3092.38 1134.24 3092.87 1133.78 3093.41 1133.22 3094 1132.56L3096.03 1134.53C3095 1135.58 3094.06 1136.47 3093.21 1137.19 3092.37 1137.92 3091.57 1138.51 3090.82 1138.96 3090.06 1139.42 3089.32 1139.75 3088.6 1139.95 3087.87 1140.15 3087.1 1140.25 3086.29 1140.25 3085.54 1140.25 3084.86 1140.11 3084.25 1139.83 3083.64 1139.55 3083.12 1139.17 3082.69 1138.68 3082.25 1138.19 3081.91 1137.61 3081.67 1136.94 3081.43 1136.26 3081.32 1135.52 3081.32 1134.71 3081.32 1134.05 3081.4 1133.24 3081.55 1132.26 3081.71 1131.29 3081.92 1130.23 3082.16 1129.09 3082.41 1127.95 3082.69 1126.75 3082.98 1125.5 3083.28 1124.25 3083.57 1123.01 3083.86 1121.78 3084.15 1120.55 3084.41 1119.36 3084.64 1118.22 3084.86 1117.08 3085.03 1116.04 3085.13 1115.11 3085.17 1114.95 3085.19 1114.79 3085.19 1114.64 3085.19 1114.5 3085.19 1114.36 3085.19 1114.24 3085.15 1113.47 3084.88 1112.9 3084.37 1112.54 3083.86 1112.19 3082.96 1111.99 3081.67 1111.95L3082.03 1109.92ZM3088.94 1097.59 3094.9 1097.59 3093.44 1104 3087.54 1104Z" fill="#FFFFFF" fill-rule="evenodd"/><text fill="#000000" fill-opacity="0" font-family="Arial,Arial_MSFontService,sans-serif" font-size="42.6523" x="3081.32" y="1134.91">𝑖</text><text fill="#FFFFFF" font-family="Calibri,Calibri_MSFontService,sans-serif" font-weight="400" font-size="83" transform="matrix(1 0 0 1 2967.93 1222)">…</text><path d="M2981.1 1265.55 2997.31 1265.55 2996.86 1267.53C2995.83 1267.75 2995.1 1267.99 2994.65 1268.26 2994.21 1268.53 2993.81 1268.94 2993.46 1269.48 2993.1 1270.02 2992.74 1270.86 2992.36 1272.01 2991.98 1273.16 2991.51 1275.03 2990.94 1277.62L2984.01 1309.07C2983.66 1310.67 2983.43 1311.93 2983.32 1312.86 2983.22 1313.79 2983.16 1314.64 2983.16 1315.39 2983.16 1316.61 2983.47 1317.47 2984.07 1317.97 2984.68 1318.47 2985.7 1318.77 2987.13 1318.88L2986.69 1320.87 2970.48 1320.87 2970.92 1318.88C2971.95 1318.72 2972.72 1318.45 2973.23 1318.09 2973.75 1317.72 2974.18 1317.22 2974.53 1316.57 2974.88 1315.92 2975.21 1315.13 2975.5 1314.2 2975.8 1313.27 2976.25 1311.46 2976.84 1308.79L2983.73 1277.58C2984.32 1274.88 2984.62 1272.71 2984.62 1271.06 2984.62 1269.79 2984.3 1268.9 2983.67 1268.4 2983.03 1267.9 2982.03 1267.61 2980.65 1267.53ZM2953.94 1264.9C2956.43 1264.9 2958.73 1265.07 2960.85 1265.4 2962.97 1265.74 2965.32 1266.32 2967.88 1267.13L2965.61 1277.54 2961.72 1277.54C2961.61 1275.24 2961.26 1273.44 2960.67 1272.13 2960.07 1270.82 2959.22 1269.88 2958.12 1269.31 2957.01 1268.75 2955.54 1268.46 2953.7 1268.46 2951.46 1268.46 2949.48 1268.92 2947.78 1269.84 2946.08 1270.76 2944.78 1272.01 2943.89 1273.59 2943 1275.17 2942.55 1276.93 2942.55 1278.88 2942.55 1280.91 2943.09 1282.68 2944.15 1284.21 2945.22 1285.73 2947.27 1287.54 2950.29 1289.62 2952.94 1291.46 2954.96 1293.1 2956.35 1294.54 2957.74 1295.99 2958.77 1297.52 2959.43 1299.14 2960.09 1300.76 2960.43 1302.64 2960.43 1304.78 2960.43 1308.07 2959.64 1311 2958.06 1313.55 2956.47 1316.1 2954.25 1318.08 2951.37 1319.47 2948.49 1320.86 2945.21 1321.55 2941.54 1321.55 2939.05 1321.55 2936.37 1321.35 2933.5 1320.95 2930.62 1320.54 2928.04 1320.03 2925.78 1319.41L2928.21 1308.26 2932.1 1308.26C2932.1 1311.56 2932.86 1314.01 2934.39 1315.62 2935.91 1317.22 2938.27 1318.03 2941.46 1318.03 2945.13 1318.03 2948.02 1317.03 2950.13 1315.03 2952.24 1313.03 2953.29 1310.25 2953.29 1306.68 2953.29 1305.03 2953 1303.58 2952.42 1302.32 2951.84 1301.07 2950.96 1299.87 2949.79 1298.72 2948.61 1297.57 2946.92 1296.25 2944.7 1294.77 2942.7 1293.41 2941.04 1292.08 2939.72 1290.77 2938.39 1289.46 2937.34 1288 2936.56 1286.38 2935.77 1284.76 2935.38 1282.95 2935.38 1280.95 2935.38 1277.76 2936.15 1274.95 2937.69 1272.52 2939.23 1270.08 2941.41 1268.21 2944.22 1266.88 2947.02 1265.56 2950.27 1264.9 2953.94 1264.9ZM2909.94 1264.9C2912.43 1264.9 2914.73 1265.07 2916.85 1265.4 2918.97 1265.74 2921.32 1266.32 2923.88 1267.13L2921.61 1277.54 2917.72 1277.54C2917.61 1275.24 2917.26 1273.44 2916.67 1272.13 2916.07 1270.82 2915.22 1269.88 2914.12 1269.31 2913.01 1268.75 2911.54 1268.46 2909.7 1268.46 2907.46 1268.46 2905.48 1268.92 2903.78 1269.84 2902.08 1270.76 2900.78 1272.01 2899.89 1273.59 2899 1275.17 2898.55 1276.93 2898.55 1278.88 2898.55 1280.91 2899.09 1282.68 2900.15 1284.21 2901.22 1285.73 2903.27 1287.54 2906.29 1289.62 2908.94 1291.46 2910.96 1293.1 2912.35 1294.54 2913.74 1295.99 2914.77 1297.52 2915.43 1299.14 2916.09 1300.76 2916.43 1302.64 2916.43 1304.78 2916.43 1308.07 2915.64 1311 2914.06 1313.55 2912.47 1316.1 2910.25 1318.08 2907.37 1319.47 2904.49 1320.86 2901.21 1321.55 2897.54 1321.55 2895.05 1321.55 2892.37 1321.35 2889.5 1320.95 2886.62 1320.54 2884.04 1320.03 2881.78 1319.41L2884.21 1308.26 2888.1 1308.26C2888.1 1311.56 2888.86 1314.01 2890.39 1315.62 2891.91 1317.22 2894.27 1318.03 2897.46 1318.03 2901.13 1318.03 2904.02 1317.03 2906.13 1315.03 2908.24 1313.03 2909.29 1310.25 2909.29 1306.68 2909.29 1305.03 2909 1303.58 2908.42 1302.32 2907.84 1301.07 2906.96 1299.87 2905.79 1298.72 2904.61 1297.57 2902.92 1296.25 2900.7 1294.77 2898.7 1293.41 2897.04 1292.08 2895.72 1290.77 2894.39 1289.46 2893.34 1288 2892.56 1286.38 2891.77 1284.76 2891.38 1282.95 2891.38 1280.95 2891.38 1277.76 2892.15 1274.95 2893.69 1272.52 2895.23 1270.08 2897.41 1268.21 2900.22 1266.88 2903.02 1265.56 2906.27 1264.9 2909.94 1264.9Z" fill="#FFFFFF" fill-rule="evenodd"/><text fill="#000000" fill-opacity="0" font-family="Arial,Arial_MSFontService,sans-serif" font-size="56.6572" x="2881.78" y="1314.47">𝑆𝑆𝐼</text><path d="M3015.22 1265.55 3029.69 1265.55 3034.31 1304.86 3057.94 1265.55 3070.7 1265.55 3070.26 1267.53C3069.23 1267.75 3068.49 1267.99 3068.05 1268.26 3067.6 1268.53 3067.2 1268.94 3066.83 1269.48 3066.47 1270.02 3066.1 1270.86 3065.74 1272.01 3065.37 1273.16 3064.91 1275.03 3064.34 1277.62L3057.41 1309.07C3057.06 1310.67 3056.83 1311.93 3056.72 1312.86 3056.61 1313.79 3056.56 1314.64 3056.56 1315.39 3056.56 1316.61 3056.86 1317.47 3057.47 1317.97 3058.08 1318.47 3059.1 1318.77 3060.53 1318.88L3060.08 1320.87 3043.87 1320.87 3044.32 1318.88C3045.35 1318.72 3046.12 1318.45 3046.63 1318.09 3047.14 1317.72 3047.57 1317.22 3047.93 1316.57 3048.28 1315.92 3048.6 1315.13 3048.9 1314.2 3049.2 1313.27 3049.64 1311.46 3050.24 1308.79L3055.63 1284.35C3056.38 1280.97 3057.25 1277.61 3058.22 1274.26L3057.65 1274.26C3056.82 1275.85 3054.92 1279.09 3051.98 1283.99L3033.54 1314.42 3029.12 1314.42 3025.76 1288.36C3025.27 1284.69 3024.73 1279.74 3024.14 1273.53L3023.33 1273.53C3022.41 1279.58 3021.38 1285.19 3020.25 1290.35L3016.11 1309.07C3015.54 1311.64 3015.26 1313.75 3015.26 1315.39 3015.26 1316.61 3015.57 1317.47 3016.17 1317.97 3016.78 1318.47 3017.8 1318.77 3019.23 1318.88L3018.79 1320.87 3004.6 1320.87 3005.05 1318.88C3006.07 1318.72 3006.84 1318.45 3007.36 1318.09 3007.87 1317.72 3008.3 1317.22 3008.66 1316.57 3009.01 1315.92 3009.33 1315.13 3009.63 1314.2 3009.93 1313.27 3010.37 1311.46 3010.97 1308.79L3017.85 1277.58C3018.13 1276.42 3018.34 1275.31 3018.5 1274.26 3018.67 1273.2 3018.75 1272.14 3018.75 1271.06 3018.75 1269.79 3018.43 1268.9 3017.79 1268.4 3017.16 1267.9 3016.15 1267.61 3014.77 1267.53Z" fill="#FFFFFF" fill-rule="evenodd"/><text fill="#000000" fill-opacity="0" font-family="Arial,Arial_MSFontService,sans-serif" font-size="55.3198" x="3004.6" y="1313.95">𝑀</text><path d="M3078.85 1307.3C3080.32 1307.3 3081.45 1307.78 3082.26 1308.74 3083.06 1309.71 3083.47 1310.97 3083.47 1312.54 3083.47 1312.94 3083.43 1313.35 3083.36 1313.79 3083.29 1314.23 3083.17 1314.65 3082.99 1315.04L3083.41 1315.19C3085.33 1312.55 3087.23 1310.57 3089.11 1309.26 3090.99 1307.95 3092.93 1307.3 3094.93 1307.3 3097.04 1307.3 3098.61 1307.86 3099.65 1309 3100.7 1310.13 3101.22 1311.72 3101.22 1313.76 3101.22 1314.38 3101.13 1315.23 3100.95 1316.32 3100.77 1317.42 3100.54 1318.61 3100.26 1319.9 3099.99 1321.19 3099.69 1322.51 3099.37 1323.87 3099.05 1325.23 3098.76 1326.49 3098.48 1327.64 3098.2 1328.79 3097.97 1329.78 3097.79 1330.59 3097.61 1331.4 3097.52 1331.91 3097.52 1332.11 3097.52 1332.86 3097.66 1333.41 3097.94 1333.75 3098.22 1334.08 3098.67 1334.25 3099.28 1334.25 3099.66 1334.25 3100.03 1334.18 3100.4 1334.05 3100.77 1333.91 3101.15 1333.69 3101.54 1333.39 3101.94 1333.09 3102.38 1332.71 3102.86 1332.24 3103.33 1331.78 3103.87 1331.22 3104.46 1330.56L3106.52 1332.53C3105.55 1333.52 3104.65 1334.37 3103.84 1335.09 3103.02 1335.8 3102.23 1336.39 3101.47 1336.86 3100.71 1337.33 3099.95 1337.67 3099.19 1337.9 3098.44 1338.13 3097.63 1338.24 3096.78 1338.24 3096.06 1338.24 3095.4 1338.11 3094.8 1337.83 3094.19 1337.55 3093.67 1337.17 3093.23 1336.68 3092.8 1336.19 3092.46 1335.62 3092.22 1334.95 3091.98 1334.29 3091.86 1333.56 3091.86 1332.76 3091.86 1331.97 3091.95 1331.04 3092.12 1329.98 3092.29 1328.92 3092.54 1327.75 3092.88 1326.48 3093.23 1325.19 3093.57 1323.95 3093.88 1322.77 3094.18 1321.59 3094.45 1320.5 3094.68 1319.5 3094.91 1318.49 3095.09 1317.6 3095.22 1316.81 3095.34 1316.03 3095.41 1315.38 3095.41 1314.86 3095.41 1313.63 3095.18 1312.73 3094.71 1312.15 3094.24 1311.58 3093.49 1311.29 3092.46 1311.29 3091.86 1311.29 3091.22 1311.44 3090.54 1311.75 3089.85 1312.06 3089.16 1312.49 3088.47 1313.03 3087.77 1313.58 3087.09 1314.22 3086.43 1314.97 3085.76 1315.71 3085.15 1316.51 3084.6 1317.35 3084.04 1318.19 3083.55 1319.08 3083.12 1320 3082.7 1320.92 3082.38 1321.84 3082.18 1322.76L3078.85 1337.71 3073.01 1337.71 3077.48 1318.29C3077.74 1317.26 3077.93 1316.33 3078.04 1315.52 3078.16 1314.7 3078.22 1314.04 3078.22 1313.52 3078.22 1312.07 3077.64 1311.35 3076.47 1311.35 3076.11 1311.35 3075.75 1311.42 3075.38 1311.57 3075.01 1311.72 3074.62 1311.94 3074.22 1312.24 3073.81 1312.54 3073.37 1312.92 3072.89 1313.37 3072.42 1313.83 3071.88 1314.37 3071.28 1314.98L3069.23 1313.05C3070.22 1312.03 3071.13 1311.17 3071.95 1310.44 3072.78 1309.72 3073.56 1309.12 3074.31 1308.65 3075.05 1308.19 3075.79 1307.84 3076.53 1307.63 3077.26 1307.41 3078.03 1307.3 3078.85 1307.3Z" fill="#FFFFFF" fill-rule="evenodd"/><text fill="#000000" fill-opacity="0" font-family="Arial,Arial_MSFontService,sans-serif" font-size="30.9468" x="3069.23" y="1334.38">𝑛</text><rect x="1281.5" y="963.75" width="262.75" height="138.75" fill="#F4B183"/><path d="M1544.25 963.75 1590.5 917.5 1590.5 1056.25 1544.25 1102.5Z" fill="#C48E69" fill-rule="evenodd"/><path d="M1281.5 963.75 1327.75 917.5 1590.5 917.5 1544.25 963.75Z" fill="#F6C09B" fill-rule="evenodd"/><path d="M1281.5 963.75 1327.75 917.5 1590.5 917.5 1590.5 1056.25 1544.25 1102.5 1281.5 1102.5ZM1281.5 963.75 1544.25 963.75 1590.5 917.5M1544.25 963.75 1544.25 1102.5" stroke="#F4B183" stroke-width="4.58333" stroke-miterlimit="8" stroke-opacity="0" fill="none" fill-rule="evenodd"/><path d="M1370.92 1006.2 1407.47 1006.2 1404.68 1018.65 1400.79 1018.65C1400.68 1016.56 1400.51 1014.92 1400.28 1013.72 1400.05 1012.52 1399.73 1011.65 1399.31 1011.13 1398.89 1010.6 1398.38 1010.24 1397.79 1010.05 1397.19 1009.86 1396.3 1009.77 1395.11 1009.77L1382.63 1009.77 1377.81 1031.82 1385.39 1031.82C1386.57 1031.82 1387.56 1031.65 1388.34 1031.33 1389.13 1031.01 1389.86 1030.42 1390.53 1029.57 1391.21 1028.72 1392.05 1027.26 1393.05 1025.21L1396.73 1025.21 1392.8 1042.31 1389.24 1042.31C1389.24 1039.58 1389.15 1037.88 1388.97 1037.19 1388.8 1036.5 1388.46 1036.02 1387.96 1035.77 1387.46 1035.51 1386.47 1035.38 1384.98 1035.38L1377.04 1035.38 1373.84 1049.73C1373.27 1052.27 1372.98 1054.38 1372.98 1056.05 1372.98 1056.89 1373.12 1057.54 1373.39 1058.02 1373.66 1058.49 1374.07 1058.83 1374.61 1059.05 1375.15 1059.27 1376.08 1059.43 1377.4 1059.54L1376.96 1061.52 1360.3 1061.52 1360.75 1059.54C1361.77 1059.38 1362.54 1059.11 1363.06 1058.75 1363.57 1058.38 1364 1057.88 1364.35 1057.23 1364.7 1056.58 1365.03 1055.79 1365.32 1054.86 1365.62 1053.92 1366.07 1052.12 1366.66 1049.45L1373.55 1018.24C1374.15 1015.54 1374.44 1013.4 1374.44 1011.84 1374.44 1010.51 1374.13 1009.59 1373.51 1009.08 1372.89 1008.57 1371.88 1008.27 1370.47 1008.19Z" fill="#FFFFFF" fill-rule="evenodd"/><text fill="#000000" fill-opacity="0" font-family="Arial,Arial_MSFontService,sans-serif" font-size="55.3198" x="1360.3" y="1054.61">𝐹</text><path d="M1429.98 992.956 1431.79 992.956C1431.75 994.048 1431.72 995.026 1431.71 995.889 1431.69 996.753 1431.67 997.592 1431.66 998.406 1431.65 999.22 1431.65 1000.02 1431.65 1000.82L1431.65 1023.46C1431.65 1024.07 1431.67 1024.6 1431.71 1025.05 1431.74 1025.5 1431.81 1025.87 1431.9 1026.18 1431.99 1026.49 1432.11 1026.75 1432.26 1026.97 1432.41 1027.19 1432.58 1027.38 1432.78 1027.54 1433.02 1027.77 1433.33 1027.96 1433.73 1028.09 1434.13 1028.22 1434.63 1028.33 1435.25 1028.41 1435.87 1028.5 1436.6 1028.57 1437.47 1028.62 1438.33 1028.67 1439.37 1028.71 1440.58 1028.73L1440.58 1031.32 1416.96 1031.32 1416.96 1028.73C1418.13 1028.69 1419.13 1028.64 1419.94 1028.59 1420.75 1028.54 1421.45 1028.47 1422.02 1028.39 1422.6 1028.3 1423.06 1028.2 1423.41 1028.09 1423.76 1027.98 1424.06 1027.84 1424.32 1027.69 1424.6 1027.51 1424.83 1027.31 1425.03 1027.1 1425.23 1026.9 1425.39 1026.63 1425.51 1026.31 1425.63 1026 1425.72 1025.61 1425.79 1025.15 1425.86 1024.7 1425.9 1024.13 1425.9 1023.46L1425.9 1002.1C1425.9 1001.33 1425.75 1000.78 1425.45 1000.46 1425.15 1000.14 1424.73 999.985 1424.17 999.985 1423.55 999.985 1422.64 1000.3 1421.43 1000.94 1420.22 1001.57 1418.65 1002.52 1416.72 1003.77 1416.46 1003.31 1416.23 1002.85 1416.01 1002.4 1415.79 1001.94 1415.56 1001.47 1415.32 1001 1417.79 999.647 1420.22 998.302 1422.64 996.962 1425.05 995.621 1427.5 994.286 1429.98 992.956Z" fill="#FFFFFF" fill-rule="evenodd"/><text fill="#000000" fill-opacity="0" font-family="Arial,Arial_MSFontService,sans-serif" font-size="38.3633" x="1415.32" y="1026.52">1</text><path d="M2118.5 984C2118.5 969.364 2133.27 957.5 2151.5 957.5 2169.73 957.5 2184.5 969.364 2184.5 984 2184.5 998.636 2169.73 1010.5 2151.5 1010.5 2133.27 1010.5 2118.5 998.636 2118.5 984Z" fill="#4472C4" fill-rule="evenodd"/><path d="M2128.17 965.262 2174.83 1002.74M2174.83 965.262 2128.17 1002.74" stroke="#2F528F" stroke-width="4.58333" stroke-miterlimit="8" fill="none" fill-rule="evenodd"/><path d="M2118.5 984C2118.5 969.364 2133.27 957.5 2151.5 957.5 2169.73 957.5 2184.5 969.364 2184.5 984 2184.5 998.636 2169.73 1010.5 2151.5 1010.5 2133.27 1010.5 2118.5 998.636 2118.5 984Z" stroke="#2F528F" stroke-width="4.58333" stroke-miterlimit="8" fill="none" fill-rule="evenodd"/><rect x="2342.5" y="963.75" width="262.75" height="138.75" fill="#843C0C"/><path d="M2605.25 963.75 2651.5 917.5 2651.5 1056.25 2605.25 1102.5Z" fill="#6A300A" fill-rule="evenodd"/><path d="M2342.5 963.75 2388.75 917.5 2651.5 917.5 2605.25 963.75Z" fill="#9C623C" fill-rule="evenodd"/><path d="M2342.5 963.75 2388.75 917.5 2651.5 917.5 2651.5 1056.25 2605.25 1102.5 2342.5 1102.5ZM2342.5 963.75 2605.25 963.75 2651.5 917.5M2605.25 963.75 2605.25 1102.5" stroke="#843C0C" stroke-width="4.58333" stroke-miterlimit="8" stroke-opacity="0" fill="none" fill-rule="evenodd"/><path d="M2431.53 1008.62 2468.09 1008.62 2465.29 1021.06 2461.4 1021.06C2461.29 1018.98 2461.12 1017.34 2460.89 1016.14 2460.66 1014.94 2460.34 1014.07 2459.92 1013.54 2459.5 1013.02 2459 1012.66 2458.4 1012.47 2457.81 1012.28 2456.92 1012.19 2455.73 1012.19L2443.24 1012.19 2438.42 1034.23 2446 1034.23C2447.19 1034.23 2448.18 1034.07 2448.96 1033.75 2449.74 1033.42 2450.47 1032.84 2451.15 1031.98 2451.82 1031.13 2452.66 1029.68 2453.66 1027.63L2457.35 1027.63 2453.42 1044.73 2449.85 1044.73C2449.85 1042 2449.76 1040.29 2449.59 1039.6 2449.41 1038.91 2449.07 1038.44 2448.57 1038.18 2448.07 1037.93 2447.08 1037.8 2445.6 1037.8L2437.65 1037.8 2434.45 1052.15C2433.88 1054.69 2433.6 1056.79 2433.6 1058.47 2433.6 1059.31 2433.73 1059.96 2434 1060.43 2434.27 1060.91 2434.68 1061.25 2435.22 1061.47 2435.76 1061.68 2436.69 1061.85 2438.02 1061.95L2437.57 1063.94 2420.91 1063.94 2421.36 1061.95C2422.39 1061.79 2423.16 1061.53 2423.67 1061.16 2424.18 1060.8 2424.62 1060.29 2424.97 1059.64 2425.32 1059 2425.64 1058.21 2425.94 1057.27 2426.24 1056.34 2426.68 1054.54 2427.28 1051.86L2434.17 1020.66C2434.76 1017.95 2435.06 1015.82 2435.06 1014.25 2435.06 1012.93 2434.75 1012.01 2434.13 1011.5 2433.5 1010.98 2432.49 1010.69 2431.09 1010.61Z" fill="#FFFFFF" fill-rule="evenodd"/><text fill="#000000" fill-opacity="0" font-family="Arial,Arial_MSFontService,sans-serif" font-size="55.3198" x="2420.91" y="1057.02">𝐹</text><path d="M2474.29 1053.97 2475.75 1053.97 2471.34 1073.81C2471.06 1074.98 2470.87 1075.91 2470.76 1076.61 2470.65 1077.3 2470.6 1077.93 2470.6 1078.48 2470.6 1079.24 2470.75 1079.78 2471.06 1080.12 2471.36 1080.46 2471.83 1080.63 2472.44 1080.63 2472.8 1080.63 2473.16 1080.56 2473.51 1080.42 2473.87 1080.28 2474.25 1080.06 2474.66 1079.76 2475.07 1079.47 2475.51 1079.08 2476 1078.62 2476.49 1078.15 2477.03 1077.59 2477.62 1076.94L2479.65 1078.9C2478.62 1079.95 2477.68 1080.84 2476.84 1081.57 2475.99 1082.29 2475.19 1082.88 2474.44 1083.34 2473.68 1083.8 2472.94 1084.12 2472.22 1084.32 2471.49 1084.52 2470.72 1084.62 2469.91 1084.62 2469.16 1084.62 2468.48 1084.48 2467.87 1084.2 2467.26 1083.92 2466.74 1083.54 2466.31 1083.06 2465.87 1082.57 2465.53 1081.99 2465.29 1081.31 2465.06 1080.64 2464.94 1079.89 2464.94 1079.08 2464.94 1078.42 2465.02 1077.61 2465.17 1076.64 2465.33 1075.66 2465.54 1074.61 2465.78 1073.47 2466.03 1072.32 2466.31 1071.13 2466.6 1069.88 2466.9 1068.63 2467.19 1067.38 2467.48 1066.15 2467.77 1064.92 2468.03 1063.74 2468.26 1062.59 2468.49 1061.45 2468.65 1060.41 2468.75 1059.48 2468.79 1059.32 2468.81 1059.17 2468.81 1059.02 2468.81 1058.87 2468.81 1058.74 2468.81 1058.62 2468.77 1057.84 2468.5 1057.28 2467.99 1056.92 2467.48 1056.56 2466.58 1056.36 2465.29 1056.32L2465.65 1054.3ZM2472.56 1041.97 2478.52 1041.97 2477.06 1048.37 2471.16 1048.37Z" fill="#FFFFFF" fill-rule="evenodd"/><text fill="#000000" fill-opacity="0" font-family="Arial,Arial_MSFontService,sans-serif" font-size="42.6523" x="2464.94" y="1079.29">𝑖</text><path d="M2490.59 992.073 2492.41 992.073C2492.37 993.165 2492.34 994.143 2492.32 995.006 2492.3 995.87 2492.29 996.709 2492.28 997.523 2492.27 998.337 2492.26 999.142 2492.26 999.936L2492.26 1022.57C2492.26 1023.19 2492.28 1023.72 2492.32 1024.17 2492.36 1024.61 2492.42 1024.99 2492.51 1025.3 2492.6 1025.61 2492.72 1025.87 2492.87 1026.09 2493.02 1026.31 2493.19 1026.49 2493.39 1026.65 2493.63 1026.89 2493.95 1027.08 2494.35 1027.2 2494.74 1027.33 2495.25 1027.44 2495.86 1027.53 2496.48 1027.62 2497.22 1027.69 2498.08 1027.74 2498.95 1027.79 2499.98 1027.82 2501.2 1027.84L2501.2 1030.44 2477.58 1030.44 2477.58 1027.84C2478.75 1027.8 2479.74 1027.76 2480.55 1027.71 2481.37 1027.66 2482.06 1027.59 2482.64 1027.5 2483.22 1027.41 2483.68 1027.31 2484.02 1027.2 2484.37 1027.09 2484.68 1026.96 2484.93 1026.8 2485.21 1026.62 2485.45 1026.43 2485.65 1026.22 2485.85 1026.01 2486.01 1025.75 2486.12 1025.43 2486.24 1025.11 2486.34 1024.73 2486.41 1024.27 2486.48 1023.81 2486.51 1023.25 2486.51 1022.57L2486.51 1001.22C2486.51 1000.44 2486.36 999.896 2486.07 999.578 2485.77 999.261 2485.34 999.102 2484.78 999.102 2484.17 999.102 2483.26 999.419 2482.04 1000.05 2480.83 1000.69 2479.26 1001.63 2477.34 1002.88 2477.08 1002.43 2476.84 1001.97 2476.62 1001.51 2476.4 1001.06 2476.18 1000.59 2475.94 1000.11 2478.4 998.764 2480.84 997.419 2483.25 996.079 2485.66 994.738 2488.11 993.403 2490.59 992.073Z" fill="#FFFFFF" fill-rule="evenodd"/><text fill="#000000" fill-opacity="0" font-family="Arial,Arial_MSFontService,sans-serif" font-size="38.3633" x="2475.94" y="1025.64">1</text><path d="M0.0220033-3.43743 504.821-0.206163 504.777 6.66869-0.0220033 3.43743ZM500.303-10.5478 527.715 3.37795 500.127 16.9516Z" fill="#4472C4" transform="matrix(1 0 0 -1 1590.5 986.878)"/><path d="M0.0110502-3.43748 134.604-3.00482 134.582 3.87015-0.0110502 3.43748ZM130.054-13.332 157.509 0.506332 129.965 14.1679Z" fill="#4472C4" transform="matrix(1 0 0 -1 2184.5 984.006)"/><path d="M1.97297-2.81492 137.616 92.2571 133.67 97.8869-1.97297 2.81492ZM139.782 81.1817 154.409 108.225 123.998 103.701Z" fill="#4472C4" transform="matrix(1 0 0 -1 1464.5 917.725)"/><path d="M2146.5 806.063 2155.38 806.063 2155.38 934.817 2148.5 934.817 2148.5 809.5 2151.94 812.938 2146.5 812.938ZM2165.69 930.234 2151.94 957.734 2138.19 930.234Z" fill="#4472C4"/><text font-family="Arial,Arial_MSFontService,sans-serif" font-weight="700" font-size="83" transform="matrix(1 0 0 1 2011.82 1120)">Sampler</text><rect x="1281.5" y="614.75" width="262.75" height="138.75" fill="#F4B183"/><path d="M1544.25 614.75 1590.5 568.5 1590.5 707.25 1544.25 753.5Z" fill="#C48E69" fill-rule="evenodd"/><path d="M1281.5 614.75 1327.75 568.5 1590.5 568.5 1544.25 614.75Z" fill="#F6C09B" fill-rule="evenodd"/><path d="M1281.5 614.75 1327.75 568.5 1590.5 568.5 1590.5 707.25 1544.25 753.5 1281.5 753.5ZM1281.5 614.75 1544.25 614.75 1590.5 568.5M1544.25 614.75 1544.25 753.5" stroke="#F4B183" stroke-width="4.58333" stroke-miterlimit="8" stroke-opacity="0" fill="none" fill-rule="evenodd"/><path d="M1370.92 657.288 1407.47 657.288 1404.68 669.73 1400.79 669.73C1400.68 667.65 1400.51 666.008 1400.28 664.806 1400.05 663.604 1399.73 662.739 1399.31 662.212 1398.89 661.685 1398.38 661.327 1397.79 661.138 1397.19 660.949 1396.3 660.855 1395.11 660.855L1382.63 660.855 1377.81 682.901 1385.39 682.901C1386.57 682.901 1387.56 682.739 1388.34 682.415 1389.13 682.091 1389.86 681.503 1390.53 680.652 1391.21 679.801 1392.05 678.349 1393.05 676.295L1396.73 676.295 1392.8 693.398 1389.24 693.398C1389.24 690.669 1389.15 688.96 1388.97 688.271 1388.8 687.582 1388.46 687.109 1387.96 686.853 1387.46 686.596 1386.47 686.468 1384.98 686.468L1377.04 686.468 1373.84 700.815C1373.27 703.354 1372.98 705.462 1372.98 707.137 1372.98 707.974 1373.12 708.63 1373.39 709.102 1373.66 709.575 1374.07 709.92 1374.61 710.136 1375.15 710.352 1376.08 710.514 1377.4 710.622L1376.96 712.608 1360.3 712.608 1360.75 710.622C1361.77 710.46 1362.54 710.197 1363.06 709.832 1363.57 709.467 1364 708.961 1364.35 708.312 1364.7 707.664 1365.03 706.873 1365.32 705.941 1365.62 705.009 1366.07 703.206 1366.66 700.531L1373.55 669.325C1374.15 666.623 1374.44 664.489 1374.44 662.921 1374.44 661.598 1374.13 660.679 1373.51 660.166 1372.89 659.652 1371.88 659.355 1370.47 659.274Z" fill="#FFFFFF" fill-rule="evenodd"/><text fill="#000000" fill-opacity="0" font-family="Arial,Arial_MSFontService,sans-serif" font-size="55.3198" x="1360.3" y="705.693">𝐹</text><path d="M1429.98 644.041 1431.79 644.041C1431.75 645.133 1431.72 646.111 1431.71 646.974 1431.69 647.838 1431.67 648.677 1431.66 649.491 1431.65 650.305 1431.65 651.11 1431.65 651.904L1431.65 674.541C1431.65 675.156 1431.67 675.687 1431.71 676.134 1431.74 676.581 1431.81 676.958 1431.9 677.266 1431.99 677.574 1432.11 677.837 1432.26 678.055 1432.41 678.274 1432.58 678.462 1432.78 678.621 1433.02 678.859 1433.33 679.043 1433.73 679.172 1434.13 679.301 1434.63 679.41 1435.25 679.5 1435.87 679.589 1436.6 679.659 1437.47 679.708 1438.33 679.758 1439.37 679.793 1440.58 679.812L1440.58 682.404 1416.96 682.404 1416.96 679.812C1418.13 679.773 1419.13 679.728 1419.94 679.678 1420.75 679.629 1421.45 679.559 1422.02 679.47 1422.6 679.381 1423.06 679.281 1423.41 679.172 1423.76 679.063 1424.06 678.929 1424.32 678.77 1424.6 678.591 1424.83 678.398 1425.03 678.189 1425.23 677.981 1425.39 677.718 1425.51 677.4 1425.63 677.082 1425.72 676.695 1425.79 676.238 1425.86 675.782 1425.9 675.216 1425.9 674.541L1425.9 653.185C1425.9 652.41 1425.75 651.864 1425.45 651.546 1425.15 651.229 1424.73 651.07 1424.17 651.07 1423.55 651.07 1422.64 651.388 1421.43 652.023 1420.22 652.658 1418.65 653.602 1416.72 654.853 1416.46 654.396 1416.23 653.939 1416.01 653.482 1415.79 653.026 1415.56 652.559 1415.32 652.083 1417.79 650.732 1420.22 649.387 1422.64 648.047 1425.05 646.706 1427.5 645.371 1429.98 644.041Z" fill="#FFFFFF" fill-rule="evenodd"/><text fill="#000000" fill-opacity="0" font-family="Arial,Arial_MSFontService,sans-serif" font-size="38.3633" x="1415.32" y="677.608">1</text><path d="M2118.5 635C2118.5 620.364 2133.27 608.5 2151.5 608.5 2169.73 608.5 2184.5 620.364 2184.5 635 2184.5 649.635 2169.73 661.5 2151.5 661.5 2133.27 661.5 2118.5 649.635 2118.5 635Z" fill="#4472C4" fill-rule="evenodd"/><path d="M2128.17 616.262 2174.83 653.738M2174.83 616.262 2128.17 653.738" stroke="#2F528F" stroke-width="4.58333" stroke-miterlimit="8" fill="none" fill-rule="evenodd"/><path d="M2118.5 635C2118.5 620.364 2133.27 608.5 2151.5 608.5 2169.73 608.5 2184.5 620.364 2184.5 635 2184.5 649.635 2169.73 661.5 2151.5 661.5 2133.27 661.5 2118.5 649.635 2118.5 635Z" stroke="#2F528F" stroke-width="4.58333" stroke-miterlimit="8" fill="none" fill-rule="evenodd"/><path d="M1719.95 468.014C1718.83 473.171 1718.27 477.508 1718.27 481.025 1718.27 483.686 1718.68 485.641 1719.49 486.888 1720.29 488.136 1721.6 488.759 1723.41 488.759 1726.07 488.759 1728.59 486.971 1730.98 483.395 1733.37 479.819 1735.4 474.692 1737.06 468.014ZM1734.56 443.99C1731.78 443.99 1729.21 445.748 1726.85 449.265 1724.48 452.782 1722.47 457.82 1720.81 464.379L1737.88 464.379C1739 459.365 1739.55 455.052 1739.55 451.44 1739.55 448.945 1739.15 447.079 1738.34 445.843 1737.53 444.608 1736.27 443.99 1734.56 443.99ZM1734.99 441.103C1741.88 441.103 1745.33 445.475 1745.33 454.22 1745.33 456.691 1745.05 459.644 1744.49 463.078 1743.93 466.511 1743.05 470.01 1741.84 473.575 1740.62 477.139 1739.09 480.294 1737.24 483.039 1735.38 485.783 1733.25 487.904 1730.82 489.401 1728.4 490.898 1725.78 491.647 1722.98 491.647 1719.44 491.647 1716.8 490.565 1715.07 488.403 1713.33 486.241 1712.46 482.997 1712.46 478.672 1712.46 476.32 1712.73 473.42 1713.25 469.975 1713.77 466.529 1714.63 463.006 1715.83 459.406 1717.03 455.806 1718.58 452.61 1720.47 449.818 1722.36 447.026 1724.53 444.875 1726.99 443.366 1729.45 441.857 1732.12 441.103 1734.99 441.103Z" fill="#70AD47" fill-rule="evenodd"/><text fill="#000000" fill-opacity="0" font-family="Arial,Arial_MSFontService,sans-serif" font-size="50.5439" x="1712.46" y="485.329">𝜃</text><path d="M1815.2 455.503 1829.21 469.084 1829.21 471.365 1815.2 484.945 1813.1 482.985 1821.26 472.577 1776.24 472.577 1776.24 467.836 1821.26 467.836 1813.1 457.464Z" fill="#70AD47" fill-rule="evenodd"/><text fill="#000000" fill-opacity="0" font-family="Arial,Arial_MSFontService,sans-serif" font-size="29.4424" x="1776.24" y="481.265">→</text><path d="M1858.99 442.422 1896.2 442.422 1893.42 454.968 1890 454.968C1890 452.663 1889.94 450.935 1889.82 449.782 1889.7 448.63 1889.47 447.75 1889.14 447.144 1888.81 446.539 1888.4 446.123 1887.91 445.897 1887.42 445.671 1886.56 445.558 1885.33 445.558L1880.05 445.558 1872.32 480.704C1872.1 481.631 1871.95 482.367 1871.87 482.914 1871.79 483.46 1871.72 484.037 1871.66 484.643 1871.6 485.248 1871.57 485.789 1871.57 486.264 1871.57 487.001 1871.69 487.577 1871.92 487.993 1872.16 488.409 1872.52 488.712 1872.99 488.902 1873.47 489.092 1874.29 489.235 1875.45 489.33L1875.06 491.076 1860.06 491.076 1860.45 489.33C1861.4 489.187 1862.1 488.997 1862.55 488.759 1863 488.522 1863.4 488.154 1863.74 487.654 1864.09 487.155 1864.43 486.371 1864.78 485.302 1865.12 484.233 1865.53 482.617 1866.01 480.454L1873.64 445.558 1869.11 445.558C1867.64 445.558 1866.46 445.772 1865.58 446.2 1864.7 446.628 1863.82 447.424 1862.94 448.588 1862.06 449.752 1860.99 451.701 1859.73 454.434L1856.31 454.434Z" fill="#70AD47" fill-rule="evenodd"/><text fill="#000000" fill-opacity="0" font-family="Arial,Arial_MSFontService,sans-serif" font-size="48.6548" x="1856.31" y="484.995">𝑇</text><path d="M1898.84 488.857C1899.07 498.95 1901.39 503.996 1905.81 503.996 1908.03 503.996 1909.73 502.737 1910.89 500.218 1912.05 497.699 1912.66 493.912 1912.71 488.857ZM1905.81 471.001C1901.39 471.001 1899.07 475.961 1898.84 485.881L1912.66 485.881C1912.56 481.068 1911.95 477.384 1910.83 474.831 1909.7 472.278 1908.03 471.001 1905.81 471.001ZM1905.91 468.439C1910.01 468.439 1913.09 469.97 1915.12 473.032 1917.16 476.095 1918.18 480.774 1918.18 487.072 1918.18 493.49 1917.11 498.333 1914.97 501.603 1912.83 504.872 1909.64 506.507 1905.42 506.507 1901.33 506.507 1898.3 504.967 1896.33 501.887 1894.37 498.808 1893.38 494.145 1893.38 487.9 1893.38 484.587 1893.68 481.71 1894.26 479.269 1894.85 476.828 1895.69 474.805 1896.77 473.201 1897.86 471.596 1899.18 470.401 1900.72 469.616 1902.26 468.831 1903.99 468.439 1905.91 468.439Z" fill="#70AD47" fill-rule="evenodd"/><text fill="#000000" fill-opacity="0" font-family="Arial,Arial_MSFontService,sans-serif" font-size="38.0679" x="1893.38" y="501.748">θ</text><path d="M1973.53 439.57 1974.5 442.315C1968.94 444.144 1964.82 447.715 1962.15 453.026 1959.47 458.337 1958.14 465.008 1958.14 473.04 1958.14 481.357 1959.47 488.213 1962.15 493.607 1964.82 499.001 1968.9 502.613 1974.39 504.443L1973.53 507.188C1966.57 505.358 1961.24 501.419 1957.53 495.372 1953.82 489.324 1951.97 481.999 1951.97 473.397 1951.97 464.818 1953.83 457.493 1957.55 451.422 1961.27 445.35 1966.59 441.4 1973.53 439.57Z" fill="#70AD47" fill-rule="evenodd"/><text fill="#000000" fill-opacity="0" font-family="Arial,Arial_MSFontService,sans-serif" font-size="67.6177" x="1951.97" y="498.735">(</text><path d="M2006.61 441.851C2008.86 441.851 2010.93 441.988 2012.81 442.261 2014.69 442.534 2016.74 443.028 2018.98 443.74L2016.8 453.329 2013.38 453.329C2013.17 450.358 2012.51 448.226 2011.42 446.931 2010.33 445.636 2008.54 444.988 2006.07 444.988 2004.08 444.988 2002.21 445.499 2000.48 446.521 1998.74 447.543 1997.1 449.069 1995.54 451.101 1993.98 453.133 1992.58 455.693 1991.33 458.782 1990.09 461.872 1989.12 465.091 1988.43 468.442 1987.74 471.793 1987.39 474.941 1987.39 477.888 1987.39 481.595 1988.03 484.298 1989.3 485.997 1990.57 487.696 1992.56 488.546 1995.27 488.546 1996.25 488.546 1997.24 488.433 1998.27 488.207 1999.29 487.981 2000.24 487.595 2001.14 487.049 2002.03 486.502 2002.82 485.765 2003.51 484.839 2004.2 483.912 2004.69 482.747 2005 481.345L2005.4 479.67C2005.92 477.436 2006.18 475.523 2006.18 473.931 2006.18 472.814 2005.9 472.036 2005.34 471.597 2004.78 471.157 2003.9 470.902 2002.69 470.83L2003.08 469.084 2017.34 469.084 2016.94 470.83C2016.04 471.02 2015.39 471.234 2014.98 471.472 2014.58 471.71 2014.22 472.072 2013.9 472.559 2013.58 473.046 2013.26 473.789 2012.95 474.787 2012.64 475.785 2012.24 477.424 2011.74 479.706L2009.28 490.898 2006.46 491.682 2004.61 488.866C2002.14 490.031 2000.19 490.785 1998.77 491.13 1997.34 491.474 1995.89 491.647 1994.42 491.647 1989.95 491.647 1986.55 490.363 1984.22 487.797 1981.89 485.231 1980.73 481.476 1980.73 476.533 1980.73 472.993 1981.32 469.018 1982.51 464.61 1983.7 460.202 1985.43 456.264 1987.7 452.794 1989.97 449.325 1992.71 446.634 1995.93 444.721 1999.15 442.808 2002.71 441.851 2006.61 441.851Z" fill="#70AD47" fill-rule="evenodd"/><text fill="#000000" fill-opacity="0" font-family="Arial,Arial_MSFontService,sans-serif" font-size="49.8311" x="1980.73" y="485.453">𝐺</text><path d="M2027.87 439.57C2034.81 441.4 2040.14 445.35 2043.86 451.422 2047.58 457.493 2049.44 464.818 2049.44 473.397 2049.44 481.999 2047.58 489.324 2043.88 495.372 2040.17 501.419 2034.83 505.358 2027.87 507.188L2027.02 504.443C2032.51 502.613 2036.59 499.001 2039.26 493.607 2041.93 488.213 2043.27 481.357 2043.27 473.04 2043.27 465.008 2041.94 458.337 2039.28 453.026 2036.62 447.715 2032.49 444.144 2026.91 442.315Z" fill="#70AD47" fill-rule="evenodd"/><text fill="#000000" fill-opacity="0" font-family="Arial,Arial_MSFontService,sans-serif" font-size="67.6177" x="2026.91" y="498.735">)</text><rect x="2342.5" y="614.75" width="262.75" height="138.75" fill="#843C0C"/><path d="M2605.25 614.75 2651.5 568.5 2651.5 707.25 2605.25 753.5Z" fill="#6A300A" fill-rule="evenodd"/><path d="M2342.5 614.75 2388.75 568.5 2651.5 568.5 2605.25 614.75Z" fill="#9C623C" fill-rule="evenodd"/><path d="M2342.5 614.75 2388.75 568.5 2651.5 568.5 2651.5 707.25 2605.25 753.5 2342.5 753.5ZM2342.5 614.75 2605.25 614.75 2651.5 568.5M2605.25 614.75 2605.25 753.5" stroke="#843C0C" stroke-width="4.58333" stroke-miterlimit="8" stroke-opacity="0" fill="none" fill-rule="evenodd"/><path d="M2431.53 657.803 2468.09 657.803 2465.29 670.245 2461.4 670.245C2461.29 668.164 2461.12 666.523 2460.89 665.321 2460.66 664.118 2460.34 663.254 2459.92 662.727 2459.5 662.2 2459 661.842 2458.4 661.653 2457.81 661.464 2456.92 661.369 2455.73 661.369L2443.24 661.369 2438.42 683.416 2446 683.416C2447.19 683.416 2448.18 683.254 2448.96 682.93 2449.74 682.606 2450.47 682.018 2451.15 681.167 2451.82 680.316 2452.66 678.864 2453.66 676.81L2457.35 676.81 2453.42 693.913 2449.85 693.913C2449.85 691.184 2449.76 689.475 2449.59 688.786 2449.41 688.097 2449.07 687.624 2448.57 687.368 2448.07 687.111 2447.08 686.983 2445.6 686.983L2437.65 686.983 2434.45 701.329C2433.88 703.869 2433.6 705.977 2433.6 707.652 2433.6 708.489 2433.73 709.144 2434 709.617 2434.27 710.09 2434.68 710.435 2435.22 710.651 2435.76 710.867 2436.69 711.029 2438.02 711.137L2437.57 713.123 2420.91 713.123 2421.36 711.137C2422.39 710.975 2423.16 710.711 2423.67 710.347 2424.18 709.982 2424.62 709.475 2424.97 708.827 2425.32 708.178 2425.64 707.388 2425.94 706.456 2426.24 705.524 2426.68 703.72 2427.28 701.046L2434.17 669.84C2434.76 667.138 2435.06 665.003 2435.06 663.436 2435.06 662.112 2434.75 661.194 2434.13 660.68 2433.5 660.167 2432.49 659.87 2431.09 659.789Z" fill="#FFFFFF" fill-rule="evenodd"/><text fill="#000000" fill-opacity="0" font-family="Arial,Arial_MSFontService,sans-serif" font-size="55.3198" x="2420.91" y="706.208">𝐹</text><path d="M2478.19 693.07 2480.01 693.07C2479.97 694.162 2479.94 695.14 2479.92 696.004 2479.9 696.867 2479.89 697.706 2479.88 698.521 2479.87 699.335 2479.86 700.139 2479.86 700.933L2479.86 723.57C2479.86 724.185 2479.88 724.717 2479.92 725.163 2479.96 725.61 2480.03 725.987 2480.12 726.295 2480.21 726.603 2480.32 726.866 2480.47 727.085 2480.62 727.303 2480.8 727.492 2480.99 727.65 2481.23 727.889 2481.55 728.072 2481.95 728.201 2482.34 728.331 2482.85 728.44 2483.47 728.529 2484.08 728.618 2484.82 728.688 2485.69 728.738 2486.55 728.787 2487.59 728.822 2488.8 728.842L2488.8 731.433 2465.18 731.433 2465.18 728.842C2466.35 728.802 2467.34 728.757 2468.16 728.708 2468.97 728.658 2469.67 728.589 2470.24 728.499 2470.82 728.41 2471.28 728.311 2471.63 728.201 2471.97 728.092 2472.28 727.958 2472.54 727.799 2472.81 727.621 2473.05 727.427 2473.25 727.219 2473.45 727.01 2473.61 726.747 2473.73 726.429 2473.85 726.112 2473.94 725.724 2474.01 725.268 2474.08 724.811 2474.11 724.245 2474.11 723.57L2474.11 702.214C2474.11 701.44 2473.97 700.893 2473.67 700.576 2473.37 700.258 2472.94 700.099 2472.39 700.099 2471.77 700.099 2470.86 700.417 2469.65 701.052 2468.44 701.688 2466.87 702.631 2464.94 703.882 2464.68 703.425 2464.44 702.969 2464.23 702.512 2464.01 702.055 2463.78 701.588 2463.54 701.112 2466 699.762 2468.44 698.416 2470.85 697.076 2473.27 695.736 2475.71 694.4 2478.19 693.07Z" fill="#FFFFFF" fill-rule="evenodd"/><text fill="#000000" fill-opacity="0" font-family="Arial,Arial_MSFontService,sans-serif" font-size="38.3633" x="2463.54" y="726.638">1</text><path d="M2490.59 643.112 2492.41 643.112C2492.37 644.204 2492.34 645.182 2492.32 646.045 2492.3 646.909 2492.29 647.748 2492.28 648.562 2492.27 649.376 2492.26 650.181 2492.26 650.975L2492.26 673.612C2492.26 674.227 2492.28 674.758 2492.32 675.205 2492.36 675.652 2492.42 676.029 2492.51 676.337 2492.6 676.645 2492.72 676.908 2492.87 677.126 2493.02 677.345 2493.19 677.533 2493.39 677.692 2493.63 677.93 2493.95 678.114 2494.35 678.243 2494.74 678.372 2495.25 678.481 2495.86 678.571 2496.48 678.66 2497.22 678.73 2498.08 678.779 2498.95 678.829 2499.98 678.864 2501.2 678.884L2501.2 681.475 2477.58 681.475 2477.58 678.884C2478.75 678.844 2479.74 678.799 2480.55 678.75 2481.37 678.7 2482.06 678.63 2482.64 678.541 2483.22 678.452 2483.68 678.352 2484.02 678.243 2484.37 678.134 2484.68 678 2484.93 677.841 2485.21 677.662 2485.45 677.469 2485.65 677.26 2485.85 677.052 2486.01 676.789 2486.12 676.471 2486.24 676.153 2486.34 675.766 2486.41 675.309 2486.48 674.853 2486.51 674.287 2486.51 673.612L2486.51 652.256C2486.51 651.481 2486.36 650.935 2486.07 650.617 2485.77 650.3 2485.34 650.141 2484.78 650.141 2484.17 650.141 2483.26 650.459 2482.04 651.094 2480.83 651.729 2479.26 652.673 2477.34 653.924 2477.08 653.467 2476.84 653.01 2476.62 652.553 2476.4 652.097 2476.18 651.63 2475.94 651.154 2478.4 649.803 2480.84 648.458 2483.25 647.118 2485.66 645.777 2488.11 644.442 2490.59 643.112Z" fill="#FFFFFF" fill-rule="evenodd"/><text fill="#000000" fill-opacity="0" font-family="Arial,Arial_MSFontService,sans-serif" font-size="38.3633" x="2475.94" y="676.679">1</text><path d="M1650.5 433.667C1650.5 426.395 1656.39 420.5 1663.67 420.5L2105.33 420.5C2112.6 420.5 2118.5 426.395 2118.5 433.667L2118.5 486.333C2118.5 493.605 2112.6 499.5 2105.33 499.5L1663.67 499.5C1656.39 499.5 1650.5 493.605 1650.5 486.333Z" stroke="#70AD47" stroke-width="6.875" stroke-miterlimit="8" stroke-dasharray="27.5 20.625" fill="none" fill-rule="evenodd"/><path d="M0.0220033-3.43743 504.821-0.206163 504.777 6.66869-0.0220033 3.43743ZM500.303-10.5478 527.715 3.37795 500.127 16.9516Z" fill="#4472C4" transform="matrix(1 0 0 -1 1590.5 637.878)"/><path d="M0.0110502-3.43748 134.604-3.00482 134.582 3.87015-0.0110502 3.43748ZM130.054-13.332 157.509 0.506332 129.965 14.1679Z" fill="#4472C4" transform="matrix(1 0 0 -1 2184.5 635.006)"/><path d="M1.47476-3.10508 140.849 63.091 137.9 69.3011-1.47476 3.10508ZM141.133 51.8094 160.075 76.0278 129.335 76.65Z" fill="#4472C4" transform="matrix(1 0 0 -1 1459.5 568.528)"/><path d="M2146.5 489.063 2155.38 489.063 2155.38 585.62 2148.5 585.62 2148.5 492.5 2151.94 495.938 2146.5 495.938ZM2165.69 581.037 2151.94 608.537 2138.19 581.037Z" fill="#4472C4"/><text font-family="Arial,Arial_MSFontService,sans-serif" font-weight="700" font-size="83" transform="matrix(1 0 0 1 2011.82 771)">Sampler</text><text fill="#70AD47" font-family="Arial,Arial_MSFontService,sans-serif" font-weight="400" font-size="83" transform="matrix(1 0 0 1 1468.69 406)">Grid Generator </text><path d="M2073.43 347.416 2074.52 350.537C2068.2 352.617 2063.52 356.677 2060.48 362.715 2057.44 368.754 2055.92 376.339 2055.92 385.471 2055.92 394.928 2057.44 402.722 2060.48 408.856 2063.52 414.989 2068.16 419.095 2074.4 421.176L2073.43 424.296C2065.51 422.216 2059.44 417.738 2055.23 410.862 2051.01 403.986 2048.91 395.657 2048.91 385.877 2048.91 376.123 2051.02 367.795 2055.25 360.891 2059.48 353.988 2065.54 349.497 2073.43 347.416Z" fill="#70AD47" fill-rule="evenodd"/><text fill="#000000" fill-opacity="0" font-family="Arial,Arial_MSFontService,sans-serif" font-size="76.8804" x="2048.91" y="414.686">(</text><path d="M2088.43 379.757C2088.73 395.509 2092.17 403.384 2098.76 403.384 2105.35 403.384 2108.71 395.509 2108.81 379.757ZM2098.64 352.36C2092.05 352.36 2088.64 360.115 2088.43 375.623L2108.77 375.623C2108.39 360.115 2105.02 352.36 2098.64 352.36ZM2098.8 349.159C2104.72 349.159 2109.11 351.442 2111.97 356.008 2114.84 360.574 2116.27 367.626 2116.27 377.163 2116.27 386.998 2114.76 394.367 2111.73 399.271 2108.71 404.175 2104.18 406.627 2098.15 406.627 2092.21 406.627 2087.86 404.31 2085.1 399.676 2082.35 395.042 2080.97 387.97 2080.97 378.46 2080.97 368.923 2082.48 361.655 2085.51 356.656 2088.54 351.658 2092.97 349.159 2098.8 349.159Z" fill="#70AD47" fill-rule="evenodd"/><text fill="#000000" fill-opacity="0" font-family="Arial,Arial_MSFontService,sans-serif" font-size="57.4678" x="2080.97" y="399.443">θ</text><path d="M2139.45 384.459 2141.27 384.459C2141.23 385.551 2141.2 386.529 2141.18 387.392 2141.16 388.256 2141.14 389.095 2141.13 389.909 2141.12 390.723 2141.12 391.528 2141.12 392.322L2141.12 414.959C2141.12 415.574 2141.14 416.105 2141.18 416.552 2141.22 416.999 2141.28 417.376 2141.37 417.684 2141.46 417.992 2141.58 418.255 2141.73 418.473 2141.88 418.692 2142.05 418.88 2142.25 419.039 2142.49 419.277 2142.81 419.461 2143.2 419.59 2143.6 419.719 2144.11 419.828 2144.72 419.918 2145.34 420.007 2146.08 420.077 2146.94 420.126 2147.8 420.176 2148.84 420.211 2150.05 420.231L2150.05 422.822 2126.43 422.822 2126.43 420.231C2127.6 420.191 2128.6 420.146 2129.41 420.097 2130.23 420.047 2130.92 419.977 2131.5 419.888 2132.07 419.799 2132.53 419.699 2132.88 419.59 2133.23 419.481 2133.53 419.347 2133.79 419.188 2134.07 419.009 2134.31 418.816 2134.51 418.607 2134.7 418.399 2134.86 418.136 2134.98 417.818 2135.1 417.5 2135.2 417.113 2135.26 416.656 2135.33 416.2 2135.37 415.634 2135.37 414.959L2135.37 393.603C2135.37 392.828 2135.22 392.282 2134.92 391.964 2134.62 391.647 2134.2 391.488 2133.64 391.488 2133.03 391.488 2132.11 391.806 2130.9 392.441 2129.69 393.076 2128.12 394.02 2126.2 395.271 2125.94 394.814 2125.7 394.357 2125.48 393.9 2125.26 393.444 2125.03 392.977 2124.8 392.501 2127.26 391.15 2129.69 389.805 2132.11 388.465 2134.52 387.124 2136.97 385.789 2139.45 384.459Z" fill="#70AD47" fill-rule="evenodd"/><text fill="#000000" fill-opacity="0" font-family="Arial,Arial_MSFontService,sans-serif" font-size="38.3633" x="2124.8" y="418.026">1</text><path d="M2186.82 405.046 2236.75 405.046 2236.75 410.436 2186.82 410.436ZM2236.75 354.103 2236.75 360.182 2193.35 376.434 2236.75 392.685 2236.75 398.764 2186.66 379.271 2186.66 373.597Z" fill="#70AD47" fill-rule="evenodd"/><text fill="#000000" fill-opacity="0" font-family="Arial,Arial_MSFontService,sans-serif" font-size="56.333" x="2186.66" y="403.395">≤</text><path d="M2278.59 379.757C2277.32 385.62 2276.68 390.551 2276.68 394.549 2276.68 397.575 2277.14 399.798 2278.06 401.216 2278.98 402.635 2280.46 403.344 2282.52 403.344 2285.54 403.344 2288.41 401.311 2291.13 397.244 2293.85 393.178 2296.15 387.349 2298.04 379.757ZM2295.2 352.441C2292.04 352.441 2289.12 354.441 2286.43 358.44 2283.74 362.438 2281.45 368.166 2279.56 375.623L2298.97 375.623C2300.24 369.922 2300.88 365.018 2300.88 360.912 2300.88 358.075 2300.42 355.954 2299.5 354.549 2298.58 353.144 2297.15 352.441 2295.2 352.441ZM2295.69 349.159C2303.52 349.159 2307.44 354.13 2307.44 364.073 2307.44 366.883 2307.12 370.24 2306.49 374.144 2305.85 378.048 2304.85 382.026 2303.47 386.079 2302.09 390.132 2300.35 393.719 2298.24 396.839 2296.14 399.96 2293.7 402.371 2290.95 404.073 2288.19 405.775 2285.22 406.627 2282.03 406.627 2278.01 406.627 2275.01 405.397 2273.03 402.939 2271.06 400.48 2270.08 396.792 2270.08 391.875 2270.08 389.2 2270.37 385.904 2270.97 381.986 2271.56 378.068 2272.54 374.063 2273.91 369.97 2275.27 365.876 2277.03 362.242 2279.17 359.068 2281.32 355.893 2283.79 353.448 2286.59 351.732 2289.39 350.017 2292.42 349.159 2295.69 349.159Z" fill="#70AD47" fill-rule="evenodd"/><text fill="#000000" fill-opacity="0" font-family="Arial,Arial_MSFontService,sans-serif" font-size="57.4678" x="2270.08" y="399.443">𝜃</text><path d="M2343.34 405.046 2393.27 405.046 2393.27 410.436 2343.34 410.436ZM2393.27 354.103 2393.27 360.182 2349.87 376.434 2393.27 392.685 2393.27 398.764 2343.18 379.271 2343.18 373.597Z" fill="#70AD47" fill-rule="evenodd"/><text fill="#000000" fill-opacity="0" font-family="Arial,Arial_MSFontService,sans-serif" font-size="56.333" x="2343.18" y="403.395">≤</text><path d="M2435.11 379.757C2433.84 385.62 2433.2 390.551 2433.2 394.549 2433.2 397.575 2433.66 399.798 2434.58 401.216 2435.5 402.635 2436.99 403.344 2439.04 403.344 2442.06 403.344 2444.94 401.311 2447.65 397.244 2450.37 393.178 2452.67 387.349 2454.56 379.757ZM2451.72 352.441C2448.56 352.441 2445.64 354.441 2442.95 358.44 2440.26 362.438 2437.97 368.166 2436.08 375.623L2455.49 375.623C2456.76 369.922 2457.4 365.018 2457.4 360.912 2457.4 358.075 2456.94 355.954 2456.02 354.549 2455.1 353.144 2453.67 352.441 2451.72 352.441ZM2452.21 349.159C2460.05 349.159 2463.96 354.13 2463.96 364.073 2463.96 366.883 2463.65 370.24 2463.01 374.144 2462.38 378.048 2461.37 382.026 2459.99 386.079 2458.61 390.132 2456.87 393.719 2454.76 396.839 2452.66 399.96 2450.22 402.371 2447.47 404.073 2444.71 405.775 2441.74 406.627 2438.55 406.627 2434.53 406.627 2431.53 405.397 2429.56 402.939 2427.58 400.48 2426.6 396.792 2426.6 391.875 2426.6 389.2 2426.89 385.904 2427.49 381.986 2428.08 378.068 2429.06 374.063 2430.43 369.97 2431.79 365.876 2433.55 362.242 2435.7 359.068 2437.84 355.893 2440.32 353.448 2443.11 351.732 2445.91 350.017 2448.94 349.159 2452.21 349.159Z" fill="#70AD47" fill-rule="evenodd"/><text fill="#000000" fill-opacity="0" font-family="Arial,Arial_MSFontService,sans-serif" font-size="57.4678" x="2426.6" y="399.443">𝜃</text><path d="M2483.21 384.25C2485.28 384.25 2487.04 384.483 2488.5 384.95 2489.96 385.417 2491.15 386.047 2492.06 386.841 2492.97 387.636 2493.63 388.589 2494.04 389.701 2494.45 390.813 2494.65 392.014 2494.65 393.305 2494.65 394.079 2494.6 394.799 2494.49 395.464 2494.38 396.129 2494.19 396.785 2493.92 397.43 2493.65 398.075 2493.3 398.726 2492.86 399.381 2492.43 400.036 2491.88 400.731 2491.23 401.466 2490.73 402.101 2490.08 402.836 2489.29 403.67 2488.5 404.504 2487.63 405.398 2486.68 406.351 2485.74 407.304 2484.75 408.297 2483.72 409.329 2482.69 410.362 2481.68 411.384 2480.71 412.397 2479.74 413.41 2478.85 414.393 2478.03 415.346 2477.22 416.299 2476.55 417.173 2476.04 417.967L2487.06 417.967C2487.99 417.967 2488.73 417.932 2489.29 417.863 2489.85 417.793 2490.31 417.639 2490.67 417.401 2491.04 417.163 2491.35 416.8 2491.61 416.314 2491.87 415.827 2492.17 415.157 2492.51 414.303L2495.28 414.303C2495.18 415.713 2495.08 417.133 2494.99 418.563 2494.9 419.992 2494.81 421.412 2494.71 422.822L2469.48 422.822 2469.48 421.273C2469.96 420.201 2470.52 419.143 2471.15 418.101 2471.79 417.058 2472.5 416.001 2473.3 414.929 2474.09 413.857 2474.99 412.75 2476.01 411.608 2477.02 410.466 2478.14 409.28 2479.37 408.048 2481.24 406.182 2482.76 404.588 2483.93 403.268 2485.1 401.947 2486.02 400.771 2486.7 399.738 2487.37 398.706 2487.84 397.753 2488.08 396.879 2488.33 396.005 2488.46 395.072 2488.46 394.079 2488.46 393.066 2488.31 392.133 2488.02 391.279 2487.74 390.426 2487.32 389.701 2486.79 389.105 2486.25 388.509 2485.57 388.043 2484.75 387.705 2483.92 387.368 2482.98 387.199 2481.9 387.199 2480.06 387.199 2478.51 387.7 2477.26 388.703 2476.01 389.706 2475.03 391.16 2474.34 393.066L2470.44 393.066 2470.44 387.258C2472.98 386.206 2475.32 385.441 2477.45 384.965 2479.58 384.488 2481.51 384.25 2483.21 384.25Z" fill="#70AD47" fill-rule="evenodd"/><text fill="#000000" fill-opacity="0" font-family="Arial,Arial_MSFontService,sans-serif" font-size="38.5718" x="2469.48" y="418">2</text><path d="M2506.43 347.416C2514.32 349.497 2520.38 353.988 2524.61 360.891 2528.83 367.795 2530.95 376.123 2530.95 385.877 2530.95 395.657 2528.84 403.986 2524.63 410.862 2520.41 417.738 2514.34 422.216 2506.43 424.296L2505.46 421.176C2511.7 419.095 2516.34 414.989 2519.38 408.856 2522.42 402.722 2523.94 394.928 2523.94 385.471 2523.94 376.339 2522.42 368.754 2519.4 362.715 2516.37 356.677 2511.68 352.617 2505.33 350.537Z" fill="#70AD47" fill-rule="evenodd"/><text fill="#000000" fill-opacity="0" font-family="Arial,Arial_MSFontService,sans-serif" font-size="76.8804" x="2505.33" y="414.686">)</text><rect x="1281.5" y="1313.75" width="262.75" height="138.75" fill="#F4B183"/><path d="M1544.25 1313.75 1590.5 1267.5 1590.5 1406.25 1544.25 1452.5Z" fill="#C48E69" fill-rule="evenodd"/><path d="M1281.5 1313.75 1327.75 1267.5 1590.5 1267.5 1544.25 1313.75Z" fill="#F6C09B" fill-rule="evenodd"/><path d="M1281.5 1313.75 1327.75 1267.5 1590.5 1267.5 1590.5 1406.25 1544.25 1452.5 1281.5 1452.5ZM1281.5 1313.75 1544.25 1313.75 1590.5 1267.5M1544.25 1313.75 1544.25 1452.5" stroke="#F4B183" stroke-width="4.58333" stroke-miterlimit="8" stroke-opacity="0" fill="none" fill-rule="evenodd"/><path d="M1370.92 1355.68 1407.47 1355.68 1404.68 1368.13 1400.79 1368.13C1400.68 1366.05 1400.51 1364.41 1400.28 1363.2 1400.05 1362 1399.73 1361.14 1399.31 1360.61 1398.89 1360.08 1398.38 1359.72 1397.79 1359.54 1397.19 1359.35 1396.3 1359.25 1395.11 1359.25L1382.63 1359.25 1377.81 1381.3 1385.39 1381.3C1386.57 1381.3 1387.56 1381.14 1388.34 1380.81 1389.13 1380.49 1389.86 1379.9 1390.53 1379.05 1391.21 1378.2 1392.05 1376.75 1393.05 1374.69L1396.73 1374.69 1392.8 1391.79 1389.24 1391.79C1389.24 1389.07 1389.15 1387.36 1388.97 1386.67 1388.8 1385.98 1388.46 1385.51 1387.96 1385.25 1387.46 1384.99 1386.47 1384.86 1384.98 1384.86L1377.04 1384.86 1373.84 1399.21C1373.27 1401.75 1372.98 1403.86 1372.98 1405.53 1372.98 1406.37 1373.12 1407.03 1373.39 1407.5 1373.66 1407.97 1374.07 1408.32 1374.61 1408.53 1375.15 1408.75 1376.08 1408.91 1377.4 1409.02L1376.96 1411 1360.3 1411 1360.75 1409.02C1361.77 1408.86 1362.54 1408.59 1363.06 1408.23 1363.57 1407.86 1364 1407.36 1364.35 1406.71 1364.7 1406.06 1365.03 1405.27 1365.32 1404.34 1365.62 1403.41 1366.07 1401.6 1366.66 1398.93L1373.55 1367.72C1374.15 1365.02 1374.44 1362.89 1374.44 1361.32 1374.44 1359.99 1374.13 1359.08 1373.51 1358.56 1372.89 1358.05 1371.88 1357.75 1370.47 1357.67Z" fill="#FFFFFF" fill-rule="evenodd"/><text fill="#000000" fill-opacity="0" font-family="Arial,Arial_MSFontService,sans-serif" font-size="55.3198" x="1360.3" y="1404.09">𝐹</text><path d="M1429.98 1342.44 1431.79 1342.44C1431.75 1343.53 1431.72 1344.51 1431.71 1345.37 1431.69 1346.23 1431.67 1347.07 1431.66 1347.89 1431.65 1348.7 1431.65 1349.51 1431.65 1350.3L1431.65 1372.94C1431.65 1373.55 1431.67 1374.08 1431.71 1374.53 1431.74 1374.98 1431.81 1375.35 1431.9 1375.66 1431.99 1375.97 1432.11 1376.23 1432.26 1376.45 1432.41 1376.67 1432.58 1376.86 1432.78 1377.02 1433.02 1377.26 1433.33 1377.44 1433.73 1377.57 1434.13 1377.7 1434.63 1377.81 1435.25 1377.9 1435.87 1377.99 1436.6 1378.06 1437.47 1378.1 1438.33 1378.15 1439.37 1378.19 1440.58 1378.21L1440.58 1380.8 1416.96 1380.8 1416.96 1378.21C1418.13 1378.17 1419.13 1378.12 1419.94 1378.08 1420.75 1378.03 1421.45 1377.96 1422.02 1377.87 1422.6 1377.78 1423.06 1377.68 1423.41 1377.57 1423.76 1377.46 1424.06 1377.33 1424.32 1377.17 1424.6 1376.99 1424.83 1376.79 1425.03 1376.59 1425.23 1376.38 1425.39 1376.11 1425.51 1375.8 1425.63 1375.48 1425.72 1375.09 1425.79 1374.64 1425.86 1374.18 1425.9 1373.61 1425.9 1372.94L1425.9 1351.58C1425.9 1350.81 1425.75 1350.26 1425.45 1349.94 1425.15 1349.63 1424.73 1349.47 1424.17 1349.47 1423.55 1349.47 1422.64 1349.78 1421.43 1350.42 1420.22 1351.06 1418.65 1352 1416.72 1353.25 1416.46 1352.79 1416.23 1352.34 1416.01 1351.88 1415.79 1351.42 1415.56 1350.96 1415.32 1350.48 1417.79 1349.13 1420.22 1347.78 1422.64 1346.44 1425.05 1345.1 1427.5 1343.77 1429.98 1342.44Z" fill="#FFFFFF" fill-rule="evenodd"/><text fill="#000000" fill-opacity="0" font-family="Arial,Arial_MSFontService,sans-serif" font-size="38.3633" x="1415.32" y="1376.01">1</text><path d="M2118.5 1334C2118.5 1319.36 2133.27 1307.5 2151.5 1307.5 2169.73 1307.5 2184.5 1319.36 2184.5 1334 2184.5 1348.64 2169.73 1360.5 2151.5 1360.5 2133.27 1360.5 2118.5 1348.64 2118.5 1334Z" fill="#4472C4" fill-rule="evenodd"/><path d="M2128.17 1315.26 2174.83 1352.74M2174.83 1315.26 2128.17 1352.74" stroke="#2F528F" stroke-width="4.58333" stroke-miterlimit="8" fill="none" fill-rule="evenodd"/><path d="M2118.5 1334C2118.5 1319.36 2133.27 1307.5 2151.5 1307.5 2169.73 1307.5 2184.5 1319.36 2184.5 1334 2184.5 1348.64 2169.73 1360.5 2151.5 1360.5 2133.27 1360.5 2118.5 1348.64 2118.5 1334Z" stroke="#2F528F" stroke-width="4.58333" stroke-miterlimit="8" fill="none" fill-rule="evenodd"/><rect x="2342.5" y="1313.75" width="262.75" height="138.75" fill="#843C0C"/><path d="M2605.25 1313.75 2651.5 1267.5 2651.5 1406.25 2605.25 1452.5Z" fill="#6A300A" fill-rule="evenodd"/><path d="M2342.5 1313.75 2388.75 1267.5 2651.5 1267.5 2605.25 1313.75Z" fill="#9C623C" fill-rule="evenodd"/><path d="M2342.5 1313.75 2388.75 1267.5 2651.5 1267.5 2651.5 1406.25 2605.25 1452.5 2342.5 1452.5ZM2342.5 1313.75 2605.25 1313.75 2651.5 1267.5M2605.25 1313.75 2605.25 1452.5" stroke="#843C0C" stroke-width="4.58333" stroke-miterlimit="8" stroke-opacity="0" fill="none" fill-rule="evenodd"/><path d="M2431.53 1355.68 2468.09 1355.68 2465.29 1368.13 2461.4 1368.13C2461.29 1366.05 2461.12 1364.4 2460.89 1363.2 2460.66 1362 2460.34 1361.14 2459.92 1360.61 2459.5 1360.08 2459 1359.72 2458.4 1359.53 2457.81 1359.35 2456.92 1359.25 2455.73 1359.25L2443.24 1359.25 2438.42 1381.3 2446 1381.3C2447.19 1381.3 2448.18 1381.14 2448.96 1380.81 2449.74 1380.49 2450.47 1379.9 2451.15 1379.05 2451.82 1378.2 2452.66 1376.74 2453.66 1374.69L2457.35 1374.69 2453.42 1391.79 2449.85 1391.79C2449.85 1389.07 2449.76 1387.36 2449.59 1386.67 2449.41 1385.98 2449.07 1385.51 2448.57 1385.25 2448.07 1384.99 2447.08 1384.86 2445.6 1384.86L2437.65 1384.86 2434.45 1399.21C2433.88 1401.75 2433.6 1403.86 2433.6 1405.53 2433.6 1406.37 2433.73 1407.03 2434 1407.5 2434.27 1407.97 2434.68 1408.32 2435.22 1408.53 2435.76 1408.75 2436.69 1408.91 2438.02 1409.02L2437.57 1411 2420.91 1411 2421.36 1409.02C2422.39 1408.86 2423.16 1408.59 2423.67 1408.23 2424.18 1407.86 2424.62 1407.36 2424.97 1406.71 2425.32 1406.06 2425.64 1405.27 2425.94 1404.34 2426.24 1403.41 2426.68 1401.6 2427.28 1398.93L2434.17 1367.72C2434.76 1365.02 2435.06 1362.88 2435.06 1361.32 2435.06 1359.99 2434.75 1359.07 2434.13 1358.56 2433.5 1358.05 2432.49 1357.75 2431.09 1357.67Z" fill="#FFFFFF" fill-rule="evenodd"/><text fill="#000000" fill-opacity="0" font-family="Arial,Arial_MSFontService,sans-serif" font-size="55.3198" x="2420.91" y="1404.09">𝐹</text><path d="M2463.75 1397.44C2465.22 1397.44 2466.36 1397.92 2467.16 1398.88 2467.97 1399.84 2468.37 1401.11 2468.37 1402.68 2468.37 1403.08 2468.33 1403.49 2468.26 1403.93 2468.2 1404.37 2468.07 1404.78 2467.89 1405.18L2468.31 1405.33C2470.24 1402.69 2472.14 1400.71 2474.01 1399.4 2475.89 1398.09 2477.83 1397.44 2479.84 1397.44 2481.94 1397.44 2483.51 1398 2484.56 1399.13 2485.6 1400.27 2486.12 1401.86 2486.12 1403.9 2486.12 1404.52 2486.03 1405.37 2485.85 1406.46 2485.67 1407.55 2485.45 1408.75 2485.17 1410.04 2484.89 1411.33 2484.59 1412.65 2484.27 1414.01 2483.96 1415.37 2483.66 1416.63 2483.38 1417.78 2483.1 1418.93 2482.87 1419.92 2482.7 1420.73 2482.52 1421.54 2482.43 1422.05 2482.43 1422.25 2482.43 1423 2482.57 1423.55 2482.84 1423.89 2483.12 1424.22 2483.57 1424.39 2484.19 1424.39 2484.56 1424.39 2484.93 1424.32 2485.3 1424.18 2485.67 1424.05 2486.05 1423.83 2486.45 1423.53 2486.85 1423.23 2487.28 1422.85 2487.76 1422.38 2488.24 1421.92 2488.77 1421.35 2489.37 1420.7L2491.42 1422.67C2490.45 1423.66 2489.56 1424.51 2488.74 1425.23 2487.93 1425.94 2487.14 1426.53 2486.37 1427 2485.61 1427.47 2484.85 1427.81 2484.1 1428.04 2483.34 1428.27 2482.54 1428.38 2481.68 1428.38 2480.97 1428.38 2480.31 1428.24 2479.7 1427.97 2479.1 1427.69 2478.58 1427.31 2478.14 1426.82 2477.7 1426.33 2477.36 1425.76 2477.13 1425.09 2476.89 1424.43 2476.77 1423.7 2476.77 1422.9 2476.77 1422.11 2476.85 1421.18 2477.02 1420.12 2477.19 1419.06 2477.44 1417.89 2477.78 1416.62 2478.14 1415.33 2478.47 1414.09 2478.78 1412.91 2479.09 1411.73 2479.35 1410.64 2479.58 1409.63 2479.81 1408.63 2479.99 1407.74 2480.12 1406.95 2480.25 1406.17 2480.31 1405.52 2480.31 1405 2480.31 1403.77 2480.08 1402.87 2479.61 1402.29 2479.15 1401.72 2478.4 1401.43 2477.36 1401.43 2476.77 1401.43 2476.13 1401.58 2475.44 1401.89 2474.76 1402.2 2474.07 1402.62 2473.37 1403.17 2472.68 1403.72 2472 1404.36 2471.33 1405.11 2470.67 1405.85 2470.06 1406.65 2469.5 1407.49 2468.95 1408.33 2468.45 1409.22 2468.03 1410.14 2467.6 1411.06 2467.29 1411.98 2467.09 1412.9L2463.75 1427.85 2457.91 1427.85 2462.38 1408.43C2462.64 1407.4 2462.83 1406.47 2462.95 1405.66 2463.07 1404.84 2463.13 1404.18 2463.13 1403.66 2463.13 1402.21 2462.54 1401.49 2461.37 1401.49 2461.01 1401.49 2460.65 1401.56 2460.28 1401.71 2459.92 1401.86 2459.53 1402.08 2459.12 1402.38 2458.71 1402.68 2458.27 1403.06 2457.8 1403.51 2457.32 1403.97 2456.78 1404.51 2456.19 1405.12L2454.13 1403.19C2455.12 1402.17 2456.03 1401.3 2456.86 1400.58 2457.68 1399.85 2458.47 1399.26 2459.21 1398.79 2459.95 1398.33 2460.69 1397.98 2461.43 1397.76 2462.16 1397.55 2462.94 1397.44 2463.75 1397.44Z" fill="#FFFFFF" fill-rule="evenodd"/><text fill="#000000" fill-opacity="0" font-family="Arial,Arial_MSFontService,sans-serif" font-size="30.9468" x="2454.13" y="1424.52">𝑛</text><path d="M2490.59 1342.44 2492.41 1342.44C2492.37 1343.53 2492.34 1344.51 2492.32 1345.37 2492.3 1346.23 2492.29 1347.07 2492.28 1347.89 2492.27 1348.7 2492.26 1349.51 2492.26 1350.3L2492.26 1372.94C2492.26 1373.55 2492.28 1374.08 2492.32 1374.53 2492.36 1374.98 2492.42 1375.35 2492.51 1375.66 2492.6 1375.97 2492.72 1376.23 2492.87 1376.45 2493.02 1376.67 2493.19 1376.86 2493.39 1377.02 2493.63 1377.26 2493.95 1377.44 2494.35 1377.57 2494.74 1377.7 2495.25 1377.81 2495.86 1377.9 2496.48 1377.99 2497.22 1378.05 2498.08 1378.1 2498.95 1378.15 2499.98 1378.19 2501.2 1378.21L2501.2 1380.8 2477.58 1380.8 2477.58 1378.21C2478.75 1378.17 2479.74 1378.12 2480.55 1378.07 2481.37 1378.02 2482.06 1377.96 2482.64 1377.87 2483.22 1377.78 2483.68 1377.68 2484.02 1377.57 2484.37 1377.46 2484.68 1377.32 2484.93 1377.17 2485.21 1376.99 2485.45 1376.79 2485.65 1376.59 2485.85 1376.38 2486.01 1376.11 2486.12 1375.8 2486.24 1375.48 2486.34 1375.09 2486.41 1374.63 2486.48 1374.18 2486.51 1373.61 2486.51 1372.94L2486.51 1351.58C2486.51 1350.81 2486.36 1350.26 2486.07 1349.94 2485.77 1349.62 2485.34 1349.47 2484.78 1349.47 2484.17 1349.47 2483.26 1349.78 2482.04 1350.42 2480.83 1351.05 2479.26 1352 2477.34 1353.25 2477.08 1352.79 2476.84 1352.34 2476.62 1351.88 2476.4 1351.42 2476.18 1350.96 2475.94 1350.48 2478.4 1349.13 2480.84 1347.78 2483.25 1346.44 2485.66 1345.1 2488.11 1343.77 2490.59 1342.44Z" fill="#FFFFFF" fill-rule="evenodd"/><text fill="#000000" fill-opacity="0" font-family="Arial,Arial_MSFontService,sans-serif" font-size="38.3633" x="2475.94" y="1376">1</text><path d="M0.0220033-3.43743 504.821-0.206163 504.777 6.66869-0.0220033 3.43743ZM500.303-10.5478 527.715 3.37795 500.127 16.9516Z" fill="#4472C4" transform="matrix(1 0 0 -1 1590.5 1336.88)"/><path d="M0.0110502-3.43748 134.604-3.00482 134.582 3.87015-0.0110502 3.43748ZM130.054-13.332 157.509 0.506332 129.965 14.1679Z" fill="#4472C4" transform="matrix(1 0 0 -1 2184.5 1334.01)"/><path d="M1.98258-2.80816 136.554 92.1998 132.589 97.8161-1.98258 2.80816ZM138.757 81.1318 153.292 108.225 122.897 103.597Z" fill="#4472C4" transform="matrix(1 0 0 -1 1464.5 1267.73)"/><path d="M2146.5 1156.06 2155.38 1156.06 2155.38 1284.82 2148.5 1284.82 2148.5 1159.5 2151.94 1162.94 2146.5 1162.94ZM2165.69 1280.23 2151.94 1307.73 2138.19 1280.23Z" fill="#4472C4"/><text font-family="Arial,Arial_MSFontService,sans-serif" font-weight="700" font-size="83" transform="matrix(1 0 0 1 2011.82 1469)">Sampler</text><text font-family="Meddon,Meddon_MSFontService,sans-serif" font-weight="400" font-size="83" transform="matrix(1 0 0 1 1892.59 1208)">••••</text><text font-family="Meddon,Meddon_MSFontService,sans-serif" font-weight="400" font-size="83" transform="matrix(1 0 0 1 1892.59 820)">••••</text><path d="M3248.5 1096C3248.5 1059.27 3317.67 1029.5 3403 1029.5 3488.33 1029.5 3557.5 1059.27 3557.5 1096 3557.5 1132.73 3488.33 1162.5 3403 1162.5 3317.67 1162.5 3248.5 1132.73 3248.5 1096Z" stroke="#2F528F" stroke-width="4.58333" stroke-miterlimit="8" fill="#4472C4" fill-rule="evenodd"/><path d="M3425.72 1067.92 3438.64 1067.92 3449.34 1099.49C3450.88 1104.02 3452.07 1107.86 3452.91 1111L3453.35 1111C3453.57 1109.35 3454.06 1106.61 3454.83 1102.77 3455.6 1098.93 3456.31 1095.58 3456.96 1092.72L3459.8 1079.95C3460.39 1077.28 3460.69 1075.1 3460.69 1073.43 3460.69 1072.16 3460.37 1071.27 3459.74 1070.77 3459.1 1070.27 3458.1 1069.98 3456.72 1069.9L3457.16 1067.92 3471.35 1067.92 3470.9 1069.9C3469.88 1070.12 3469.14 1070.36 3468.69 1070.63 3468.25 1070.9 3467.85 1071.31 3467.5 1071.85 3467.15 1072.39 3466.78 1073.23 3466.4 1074.38 3466.03 1075.53 3465.55 1077.4 3464.99 1079.99L3455.46 1123.23 3449.95 1123.23 3438.12 1088.46C3436.68 1084.3 3435.43 1080.15 3434.35 1076.02L3433.82 1076.02C3433.66 1077.4 3433.21 1080.03 3432.48 1083.9 3431.75 1087.78 3430.98 1091.57 3430.17 1095.27L3426.61 1111.44C3426.04 1114.01 3425.76 1116.12 3425.76 1117.76 3425.76 1118.98 3426.06 1119.84 3426.67 1120.34 3427.28 1120.84 3428.3 1121.14 3429.73 1121.25L3429.28 1123.23 3415.1 1123.23 3415.54 1121.25C3416.57 1121.09 3417.34 1120.82 3417.85 1120.46 3418.37 1120.09 3418.8 1119.59 3419.15 1118.94 3419.5 1118.29 3419.83 1117.5 3420.12 1116.57 3420.42 1115.64 3420.87 1113.83 3421.46 1111.16L3428.35 1079.95C3428.62 1078.79 3428.84 1077.68 3429 1076.63 3429.16 1075.57 3429.24 1074.51 3429.24 1073.43 3429.24 1072.16 3428.92 1071.27 3428.29 1070.77 3427.65 1070.27 3426.65 1069.98 3425.27 1069.9ZM3393.8 1067.92 3410.01 1067.92 3409.56 1069.9C3408.53 1070.12 3407.8 1070.36 3407.35 1070.63 3406.91 1070.9 3406.51 1071.31 3406.16 1071.85 3405.81 1072.39 3405.44 1073.23 3405.06 1074.38 3404.68 1075.53 3404.21 1077.4 3403.64 1079.99L3396.71 1111.44C3396.36 1113.04 3396.13 1114.3 3396.03 1115.23 3395.92 1116.16 3395.86 1117.01 3395.86 1117.76 3395.86 1118.98 3396.17 1119.84 3396.77 1120.34 3397.38 1120.84 3398.4 1121.14 3399.83 1121.25L3399.39 1123.23 3383.18 1123.23 3383.62 1121.25C3384.65 1121.09 3385.42 1120.82 3385.93 1120.46 3386.45 1120.09 3386.88 1119.59 3387.23 1118.94 3387.58 1118.29 3387.91 1117.5 3388.2 1116.57 3388.5 1115.64 3388.95 1113.83 3389.54 1111.16L3396.43 1079.95C3397.02 1077.25 3397.32 1075.07 3397.32 1073.43 3397.32 1072.16 3397 1071.27 3396.37 1070.77 3395.73 1070.27 3394.73 1069.98 3393.35 1069.9ZM3323.72 1067.92 3338.18 1067.92 3342.8 1107.23 3366.43 1067.92 3379.2 1067.92 3378.75 1069.9C3377.72 1070.12 3376.99 1070.36 3376.54 1070.63 3376.1 1070.9 3375.69 1071.31 3375.33 1071.85 3374.96 1072.39 3374.6 1073.23 3374.23 1074.38 3373.87 1075.53 3373.4 1077.4 3372.83 1079.99L3365.9 1111.44C3365.55 1113.04 3365.32 1114.3 3365.22 1115.23 3365.11 1116.16 3365.05 1117.01 3365.05 1117.76 3365.05 1118.98 3365.36 1119.84 3365.96 1120.34 3366.57 1120.84 3367.59 1121.14 3369.02 1121.25L3368.58 1123.23 3352.37 1123.23 3352.81 1121.25C3353.84 1121.09 3354.61 1120.82 3355.12 1120.46 3355.64 1120.09 3356.07 1119.59 3356.42 1118.94 3356.77 1118.29 3357.1 1117.5 3357.39 1116.57 3357.69 1115.64 3358.14 1113.83 3358.73 1111.16L3364.12 1086.72C3364.88 1083.34 3365.74 1079.98 3366.71 1076.63L3366.15 1076.63C3365.31 1078.22 3363.42 1081.46 3360.47 1086.35L3342.03 1116.79 3337.62 1116.79 3334.25 1090.73C3333.77 1087.06 3333.23 1082.11 3332.63 1075.9L3331.82 1075.9C3330.9 1081.95 3329.88 1087.56 3328.74 1092.72L3324.61 1111.44C3324.04 1114.01 3323.76 1116.12 3323.76 1117.76 3323.76 1118.98 3324.06 1119.84 3324.67 1120.34 3325.28 1120.84 3326.3 1121.14 3327.73 1121.25L3327.28 1123.23 3313.1 1123.23 3313.54 1121.25C3314.57 1121.09 3315.34 1120.82 3315.85 1120.46 3316.37 1120.09 3316.8 1119.59 3317.15 1118.94 3317.5 1118.29 3317.83 1117.5 3318.12 1116.57 3318.42 1115.64 3318.87 1113.83 3319.46 1111.16L3326.35 1079.95C3326.62 1078.79 3326.84 1077.68 3327 1076.63 3327.16 1075.57 3327.24 1074.51 3327.24 1073.43 3327.24 1072.16 3326.92 1071.27 3326.29 1070.77 3325.65 1070.27 3324.65 1069.98 3323.27 1069.9Z" fill="#FFFFFF" fill-rule="evenodd"/><text fill="#000000" fill-opacity="0" font-family="Arial,Arial_MSFontService,sans-serif" font-size="55.3198" x="3313.1" y="1116.32">𝑀𝐼𝑁</text><rect x="3669" y="1042" width="301" height="107" fill="#FF0000"/><path d="M3812.26 1082.72 3828.47 1082.72 3828.03 1084.71C3827 1084.92 3826.26 1085.17 3825.82 1085.44 3825.37 1085.71 3824.97 1086.11 3824.62 1086.65 3824.27 1087.19 3823.91 1088.04 3823.53 1089.19 3823.15 1090.33 3822.68 1092.21 3822.11 1094.8L3815.18 1126.25C3814.83 1127.84 3814.6 1129.11 3814.49 1130.04 3814.38 1130.97 3814.33 1131.81 3814.33 1132.57 3814.33 1133.79 3814.63 1134.64 3815.24 1135.14 3815.85 1135.64 3816.87 1135.95 3818.3 1136.06L3817.85 1138.04 3801.64 1138.04 3802.09 1136.06C3803.12 1135.89 3803.89 1135.63 3804.4 1135.27 3804.91 1134.9 3805.34 1134.39 3805.7 1133.75 3806.05 1133.1 3806.37 1132.31 3806.67 1131.38 3806.97 1130.44 3807.41 1128.64 3808.01 1125.96L3814.9 1094.76C3815.49 1092.06 3815.79 1089.88 3815.79 1088.23 3815.79 1086.96 3815.47 1086.08 3814.84 1085.58 3814.2 1085.08 3813.19 1084.79 3811.82 1084.71ZM3785.11 1082.07C3787.59 1082.07 3789.9 1082.24 3792.02 1082.58 3794.14 1082.92 3796.48 1083.49 3799.05 1084.3L3796.78 1094.72 3792.89 1094.72C3792.78 1092.42 3792.43 1090.62 3791.84 1089.31 3791.24 1088 3790.39 1087.06 3789.28 1086.49 3788.17 1085.92 3786.7 1085.64 3784.86 1085.64 3782.62 1085.64 3780.65 1086.1 3778.95 1087.02 3777.25 1087.94 3775.95 1089.19 3775.06 1090.77 3774.17 1092.35 3773.72 1094.11 3773.72 1096.06 3773.72 1098.08 3774.25 1099.86 3775.32 1101.38 3776.39 1102.91 3778.43 1104.71 3781.46 1106.8 3784.11 1108.63 3786.13 1110.27 3787.52 1111.72 3788.91 1113.16 3789.94 1114.7 3790.6 1116.32 3791.26 1117.94 3791.59 1119.82 3791.59 1121.95 3791.59 1125.25 3790.8 1128.17 3789.22 1130.73 3787.64 1133.28 3785.41 1135.25 3782.53 1136.64 3779.66 1138.04 3776.38 1138.73 3772.71 1138.73 3770.22 1138.73 3767.54 1138.53 3764.66 1138.12 3761.78 1137.72 3759.21 1137.2 3756.94 1136.58L3759.37 1125.44 3763.26 1125.44C3763.26 1128.73 3764.03 1131.19 3765.55 1132.79 3767.08 1134.4 3769.44 1135.2 3772.63 1135.2 3776.3 1135.2 3779.19 1134.21 3781.3 1132.21 3783.41 1130.21 3784.46 1127.42 3784.46 1123.86 3784.46 1122.21 3784.17 1120.76 3783.59 1119.5 3783.01 1118.24 3782.13 1117.04 3780.95 1115.89 3779.78 1114.75 3778.08 1113.43 3775.87 1111.94 3773.87 1110.59 3772.21 1109.26 3770.88 1107.95 3769.56 1106.64 3768.51 1105.17 3767.72 1103.55 3766.94 1101.93 3766.55 1100.12 3766.55 1098.12 3766.55 1094.93 3767.32 1092.12 3768.86 1089.69 3770.4 1087.26 3772.57 1085.38 3775.38 1084.06 3778.19 1082.74 3781.43 1082.07 3785.11 1082.07ZM3741.11 1082.07C3743.59 1082.07 3745.9 1082.24 3748.02 1082.58 3750.14 1082.92 3752.48 1083.49 3755.05 1084.3L3752.78 1094.72 3748.89 1094.72C3748.78 1092.42 3748.43 1090.62 3747.84 1089.31 3747.24 1088 3746.39 1087.06 3745.28 1086.49 3744.17 1085.92 3742.7 1085.64 3740.86 1085.64 3738.62 1085.64 3736.65 1086.1 3734.95 1087.02 3733.25 1087.94 3731.95 1089.19 3731.06 1090.77 3730.17 1092.35 3729.72 1094.11 3729.72 1096.06 3729.72 1098.08 3730.25 1099.86 3731.32 1101.38 3732.39 1102.91 3734.43 1104.71 3737.46 1106.8 3740.11 1108.63 3742.13 1110.27 3743.52 1111.72 3744.91 1113.16 3745.94 1114.7 3746.6 1116.32 3747.26 1117.94 3747.59 1119.82 3747.59 1121.95 3747.59 1125.25 3746.8 1128.17 3745.22 1130.73 3743.64 1133.28 3741.41 1135.25 3738.53 1136.64 3735.66 1138.04 3732.38 1138.73 3728.71 1138.73 3726.22 1138.73 3723.54 1138.53 3720.66 1138.12 3717.78 1137.72 3715.21 1137.2 3712.94 1136.58L3715.37 1125.44 3719.26 1125.44C3719.26 1128.73 3720.03 1131.19 3721.55 1132.79 3723.08 1134.4 3725.44 1135.2 3728.63 1135.2 3732.3 1135.2 3735.19 1134.21 3737.3 1132.21 3739.41 1130.21 3740.46 1127.42 3740.46 1123.86 3740.46 1122.21 3740.17 1120.76 3739.59 1119.5 3739.01 1118.24 3738.13 1117.04 3736.95 1115.89 3735.78 1114.75 3734.08 1113.43 3731.87 1111.94 3729.87 1110.59 3728.21 1109.26 3726.88 1107.95 3725.56 1106.64 3724.51 1105.17 3723.72 1103.55 3722.94 1101.93 3722.55 1100.12 3722.55 1098.12 3722.55 1094.93 3723.32 1092.12 3724.86 1089.69 3726.4 1087.26 3728.57 1085.38 3731.38 1084.06 3734.19 1082.74 3737.43 1082.07 3741.11 1082.07Z" fill="#FFFFFF" fill-rule="evenodd"/><text fill="#000000" fill-opacity="0" font-family="Arial,Arial_MSFontService,sans-serif" font-size="56.6572" x="3712.94" y="1131.65">𝑆𝑆𝐼</text><path d="M3846.39 1082.72 3860.85 1082.72 3865.48 1122.03 3889.1 1082.72 3901.87 1082.72 3901.42 1084.71C3900.4 1084.92 3899.66 1085.17 3899.21 1085.44 3898.77 1085.71 3898.36 1086.11 3898 1086.65 3897.63 1087.19 3897.27 1088.04 3896.9 1089.19 3896.54 1090.33 3896.07 1092.21 3895.51 1094.8L3888.58 1126.25C3888.22 1127.84 3887.99 1129.11 3887.89 1130.04 3887.78 1130.97 3887.72 1131.81 3887.72 1132.57 3887.72 1133.79 3888.03 1134.64 3888.64 1135.14 3889.24 1135.64 3890.26 1135.95 3891.7 1136.06L3891.25 1138.04 3875.04 1138.04 3875.49 1136.06C3876.51 1135.89 3877.28 1135.63 3877.8 1135.27 3878.31 1134.9 3878.74 1134.39 3879.09 1133.75 3879.44 1133.1 3879.77 1132.31 3880.06 1131.38 3880.36 1130.44 3880.81 1128.64 3881.4 1125.96L3886.79 1101.53C3887.55 1098.15 3888.41 1094.79 3889.39 1091.44L3888.82 1091.44C3887.98 1093.03 3886.09 1096.27 3883.15 1101.16L3864.71 1131.6 3860.29 1131.6 3856.92 1105.54C3856.44 1101.86 3855.9 1096.92 3855.3 1090.71L3854.49 1090.71C3853.57 1096.76 3852.55 1102.36 3851.41 1107.52L3847.28 1126.25C3846.71 1128.82 3846.43 1130.92 3846.43 1132.57 3846.43 1133.79 3846.73 1134.64 3847.34 1135.14 3847.95 1135.64 3848.97 1135.95 3850.4 1136.06L3849.95 1138.04 3835.77 1138.04 3836.21 1136.06C3837.24 1135.89 3838.01 1135.63 3838.52 1135.27 3839.04 1134.9 3839.47 1134.39 3839.82 1133.75 3840.17 1133.1 3840.5 1132.31 3840.79 1131.38 3841.09 1130.44 3841.54 1128.64 3842.13 1125.96L3849.02 1094.76C3849.29 1093.6 3849.51 1092.49 3849.67 1091.44 3849.83 1090.38 3849.91 1089.31 3849.91 1088.23 3849.91 1086.96 3849.6 1086.08 3848.96 1085.58 3848.33 1085.08 3847.32 1084.79 3845.94 1084.71Z" fill="#FFFFFF" fill-rule="evenodd"/><text fill="#000000" fill-opacity="0" font-family="Arial,Arial_MSFontService,sans-serif" font-size="55.3198" x="3835.77" y="1131.13">𝑀</text><path d="M3913.47 1124.77 3914.93 1124.77 3910.52 1144.61C3910.24 1145.78 3910.05 1146.71 3909.94 1147.41 3909.83 1148.1 3909.78 1148.73 3909.78 1149.29 3909.78 1150.04 3909.93 1150.59 3910.24 1150.92 3910.55 1151.26 3911.01 1151.43 3911.62 1151.43 3911.98 1151.43 3912.34 1151.36 3912.7 1151.22 3913.05 1151.08 3913.44 1150.86 3913.84 1150.57 3914.25 1150.27 3914.7 1149.89 3915.18 1149.42 3915.67 1148.95 3916.21 1148.39 3916.81 1147.74L3918.83 1149.7C3917.8 1150.76 3916.86 1151.64 3916.02 1152.37 3915.17 1153.09 3914.37 1153.68 3913.62 1154.14 3912.86 1154.6 3912.12 1154.93 3911.4 1155.12 3910.68 1155.32 3909.91 1155.42 3909.09 1155.42 3908.34 1155.42 3907.66 1155.28 3907.05 1155 3906.45 1154.73 3905.92 1154.34 3905.49 1153.86 3905.05 1153.37 3904.71 1152.79 3904.47 1152.12 3904.24 1151.44 3904.12 1150.7 3904.12 1149.88 3904.12 1149.23 3904.2 1148.41 3904.36 1147.44 3904.51 1146.47 3904.72 1145.41 3904.97 1144.27 3905.21 1143.13 3905.49 1141.93 3905.79 1140.68 3906.08 1139.43 3906.38 1138.19 3906.66 1136.95 3906.95 1135.72 3907.21 1134.54 3907.44 1133.4 3907.67 1132.25 3907.83 1131.22 3907.93 1130.28 3907.97 1130.12 3907.99 1129.97 3907.99 1129.82 3907.99 1129.67 3907.99 1129.54 3907.99 1129.42 3907.95 1128.64 3907.68 1128.08 3907.17 1127.72 3906.66 1127.36 3905.77 1127.17 3904.47 1127.13L3904.83 1125.1ZM3911.74 1112.77 3917.7 1112.77 3916.24 1119.17 3910.34 1119.17Z" fill="#FFFFFF" fill-rule="evenodd"/><text fill="#000000" fill-opacity="0" font-family="Arial,Arial_MSFontService,sans-serif" font-size="42.6523" x="3904.12" y="1150.09">𝑖</text><path d="M2654.4 636.65 2833.07 916.515 2827.28 920.214 2648.6 640.35ZM2839.3 907.102 2842.51 937.68 2816.12 921.9Z" fill="#4472C4"/><path d="M2653.2 984.512 2824.28 1081.79 2820.89 1087.77 2649.8 990.488ZM2825.4 1070.56 2842.51 1096.11 2811.8 1094.47Z" fill="#4472C4"/><path d="M1.17371-3.23092 170.64 58.3317 168.292 64.7935-1.17371 3.23092ZM169.853 47.074 191.006 69.3873 160.463 72.9213Z" fill="#4472C4" transform="matrix(1 0 0 -1 2651.5 1336.89)"/><path d="M0-3.4375 1115.92-3.4375 1115.92 692.475 1112.48 689.038 1228.7 689.038 1228.7 695.913 1109.04 695.913 1109.04 0 1112.48 3.4375 0 3.4375ZM1224.12 678.725 1251.62 692.475 1224.12 706.225Z" fill="#4472C4" transform="matrix(1 0 0 -1 1590.5 1629.98)"/><path d="M0.170305-3.43328 119.124 2.46731 118.783 9.33387-0.170305 3.43328ZM115.057-8.05959 141.842 7.03596 113.695 19.4066Z" fill="#4472C4" transform="matrix(1 0 0 -1 2700.5 1102.54)"/><path d="M2700.5 1265.06 2819.43 1265.06 2819.43 1271.94 2700.5 1271.94ZM2814.84 1254.75 2842.34 1268.5 2814.84 1282.25Z" fill="#4472C4"/><path d="M3151.51 1092.06 3225.57 1092.34 3225.54 1099.22 3151.49 1098.94ZM3221.03 1082.01 3248.47 1095.87 3220.92 1109.51Z" fill="#4472C4"/><path d="M0.0204296-3.43744 88.8343-2.90959 88.7934 3.96528-0.0204296 3.43744ZM84.3123-13.2492 111.73 0.664042 84.1489 14.2504Z" fill="#4472C4" transform="matrix(1 0 0 -1 3557.5 1096.16)"/><path d="M2399.65 922.084 1613.42 922.083 1613.42 912.917 2399.65 912.917ZM1618 931.25 1590.5 917.5 1618 903.75Z" fill="#FF0000"/><path d="M2839.93 1051.07 2667.88 934.17 2673.03 926.588 2845.08 1043.49ZM2666.52 944.328 2651.5 917.5 2681.97 921.582Z" fill="#FF0000"/><path d="M0.000492994-4.58333 81.0948-4.57461 81.0938 4.59206-0.000492994 4.58333ZM76.5125-13.7418 104.011 0.0111877 76.5095 13.7582Z" fill="#FF0000" transform="matrix(-1 0 0 1 3661.51 1120.5)"/><path d="M1.70572e-05-4.58333 74.0566-4.58306 74.0565 4.58361-1.70572e-05 4.58333ZM69.4733-13.7497 96.9732 0.000360892 69.4732 13.7503Z" fill="#FF0000" transform="matrix(-1 0 0 1 3248.47 1120.5)"/><path d="M3042.5 1386.77 3343.85 1386.77 3343.85 1398.23 3042.5 1398.23ZM3338.12 1375.31 3372.5 1392.5 3338.12 1409.69Z" fill="#4472C4"/><path d="M6.26549e-06-5.72917 301.354-5.72884 301.354 5.7295-6.26549e-06 5.72917ZM295.625-17.1872 330 0.000360892 295.625 17.1878Z" fill="#FF0000" transform="matrix(-1 0 0 1 3372.5 1516.5)"/><text fill="#4472C4" font-family="Arial,Arial_MSFontService,sans-serif" font-weight="700" font-size="83" transform="matrix(1 0 0 1 3081.33 1496)">Forward</text><text fill="#FF0000" font-family="Arial,Arial_MSFontService,sans-serif" font-weight="700" font-size="83" transform="matrix(1 0 0 1 2959.05 1619)">Backpropagation</text><path d="M0-4.58333 119.92-4.58333 119.92 540.225 115.337 535.642 1228.71 535.642 1228.71 544.809 110.754 544.809 110.754 0 115.337 4.58333 0 4.58333ZM1224.12 526.475 1251.62 540.225 1224.12 553.975Z" fill="#FF0000" transform="matrix(-1 1.22465e-16 1.22465e-16 1 2842.12 1116.5)"/></g></svg>