<svg width="1649" height="894" xmlns="http://www.w3.org/2000/svg" xmlns:xlink="http://www.w3.org/1999/xlink" xml:space="preserve" overflow="hidden"><defs><clipPath id="clip0"><rect x="2348" y="133" width="1649" height="894"/></clipPath></defs><g clip-path="url(#clip0)" transform="translate(-2348 -133)"><rect x="2350.5" y="437.95" width="53.5498" height="371.55" fill="#4472C4"/><path d="M2404.05 437.95 2588.5 253.5 2588.5 625.05 2404.05 809.5Z" fill="#375C9E" fill-rule="evenodd"/><path d="M2350.5 437.95 2534.95 253.5 2588.5 253.5 2404.05 437.95Z" fill="#698ED0" fill-rule="evenodd"/><path d="M2350.5 437.95 2534.95 253.5 2588.5 253.5 2588.5 625.05 2404.05 809.5 2350.5 809.5ZM2350.5 437.95 2404.05 437.95 2588.5 253.5M2404.05 437.95 2404.05 809.5" stroke="#2F528F" stroke-width="4.58333" stroke-miterlimit="8" fill="none" fill-rule="evenodd"/><rect x="2412.5" y="436.056" width="1.44409" height="373.444" fill="#7F7F7F"/><path d="M2413.94 436.056 2596.5 253.5 2596.5 626.944 2413.94 809.5Z" fill="#666666" fill-rule="evenodd"/><path d="M2412.5 436.056 2595.06 253.5 2596.5 253.5 2413.94 436.056Z" fill="#989898" fill-rule="evenodd"/><path d="M2412.5 436.056 2595.06 253.5 2596.5 253.5 2596.5 626.944 2413.94 809.5 2412.5 809.5ZM2412.5 436.056 2413.94 436.056 2596.5 253.5M2413.94 436.056 2413.94 809.5" stroke="#7F7F7F" stroke-width="4.58333" stroke-miterlimit="8" fill="none" fill-rule="evenodd"/><rect x="2422.5" y="436.056" width="1.44409" height="373.444" fill="#E7E6E6"/><path d="M2423.94 436.056 2606.5 253.5 2606.5 626.944 2423.94 809.5Z" fill="#BAB9B9" fill-rule="evenodd"/><path d="M2422.5 436.056 2605.06 253.5 2606.5 253.5 2423.94 436.056Z" fill="#ECEBEB" fill-rule="evenodd"/><path d="M2422.5 436.056 2605.06 253.5 2606.5 253.5 2606.5 626.944 2423.94 809.5 2422.5 809.5ZM2422.5 436.056 2423.94 436.056 2606.5 253.5M2423.94 436.056 2423.94 809.5" stroke="#E7E6E6" stroke-width="4.58333" stroke-miterlimit="8" fill="none" fill-rule="evenodd"/><rect x="2781.5" y="407.95" width="53.5498" height="371.55" fill="#4472C4"/><path d="M2835.05 407.95 3019.5 223.5 3019.5 595.05 2835.05 779.5Z" fill="#375C9E" fill-rule="evenodd"/><path d="M2781.5 407.95 2965.95 223.5 3019.5 223.5 2835.05 407.95Z" fill="#698ED0" fill-rule="evenodd"/><path d="M2781.5 407.95 2965.95 223.5 3019.5 223.5 3019.5 595.05 2835.05 779.5 2781.5 779.5ZM2781.5 407.95 2835.05 407.95 3019.5 223.5M2835.05 407.95 2835.05 779.5" stroke="#2F528F" stroke-width="4.58333" stroke-miterlimit="8" fill="none" fill-rule="evenodd"/><rect x="3217.5" y="407.95" width="53.5498" height="371.55" fill="#7F7F7F"/><path d="M3271.05 407.95 3455.5 223.5 3455.5 595.05 3271.05 779.5Z" fill="#666666" fill-rule="evenodd"/><path d="M3217.5 407.95 3401.95 223.5 3455.5 223.5 3271.05 407.95Z" fill="#989898" fill-rule="evenodd"/><path d="M3217.5 407.95 3401.95 223.5 3455.5 223.5 3455.5 595.05 3271.05 779.5 3217.5 779.5ZM3217.5 407.95 3271.05 407.95 3455.5 223.5M3271.05 407.95 3271.05 779.5" stroke="#7F7F7F" stroke-width="4.58333" stroke-miterlimit="8" fill="none" fill-rule="evenodd"/><text font-family="Arial,Arial_MSFontService,sans-serif" font-weight="700" font-size="83" transform="matrix(1 0 0 1 2693.38 859)">Conv 3x3</text><text font-family="Arial,Arial_MSFontService,sans-serif" font-weight="700" font-size="83" transform="matrix(1 0 0 1 3139.22 859)">Batch</text><text font-family="Arial,Arial_MSFontService,sans-serif" font-weight="700" font-size="83" transform="matrix(1 0 0 1 3124.62 958)">Normal</text><rect x="3645.5" y="407.95" width="53.5498" height="371.55" fill="#E7E6E6"/><path d="M3699.05 407.95 3883.5 223.5 3883.5 595.05 3699.05 779.5Z" fill="#BAB9B9" fill-rule="evenodd"/><path d="M3645.5 407.95 3829.95 223.5 3883.5 223.5 3699.05 407.95Z" fill="#ECEBEB" fill-rule="evenodd"/><path d="M3645.5 407.95 3829.95 223.5 3883.5 223.5 3883.5 595.05 3699.05 779.5 3645.5 779.5ZM3645.5 407.95 3699.05 407.95 3883.5 223.5M3699.05 407.95 3699.05 779.5" stroke="#E7E6E6" stroke-width="4.58333" stroke-miterlimit="8" fill="none" fill-rule="evenodd"/><text font-family="Arial,Arial_MSFontService,sans-serif" font-weight="700" font-size="83" transform="matrix(1 0 0 1 3558.83 859)">Sigmoid</text><path d="M2660.5 274.002C2660.5 198.062 2722.06 136.5 2798 136.5L3805 136.5C3880.94 136.5 3942.5 198.062 3942.5 274.002L3942.5 823.998C3942.5 899.938 3880.94 961.5 3805 961.5L2798 961.5C2722.06 961.5 2660.5 899.938 2660.5 823.998Z" stroke="#000000" stroke-width="6.875" stroke-miterlimit="8" stroke-dasharray="27.5 20.625" fill="none" fill-rule="evenodd"/><path d="M2904.5 511.5 3129.5 511.5 3129.5 474.5 3203.5 548.5 3129.5 622.5 3129.5 585.5 2904.5 585.5Z" stroke="#2F528F" stroke-width="4.58333" stroke-miterlimit="8" fill="#DAE3F3" fill-rule="evenodd"/><path d="M3334.5 511.5 3559.5 511.5 3559.5 474.5 3633.5 548.5 3559.5 622.5 3559.5 585.5 3334.5 585.5Z" stroke="#2F528F" stroke-width="4.58333" stroke-miterlimit="8" fill="#DAE3F3" fill-rule="evenodd"/></g></svg>