<svg width="1945" height="737" xmlns="http://www.w3.org/2000/svg" xmlns:xlink="http://www.w3.org/1999/xlink" xml:space="preserve" overflow="hidden"><defs><clipPath id="clip0"><rect x="603" y="863" width="1945" height="737"/></clipPath></defs><g clip-path="url(#clip0)" transform="translate(-603 -863)"><rect x="690.5" y="1010" width="104.502" height="400.503" fill="#385723"/><path d="M795.003 1010 938.5 866.5 938.5 1267 795.003 1410.5Z" fill="#2D461C" fill-rule="evenodd"/><path d="M690.5 1010 833.998 866.5 938.5 866.5 795.003 1010Z" fill="#5F784E" fill-rule="evenodd"/><path d="M690.5 1010 833.998 866.5 938.5 866.5 938.5 1267 795.003 1410.5 690.5 1410.5ZM690.5 1010 795.003 1010 938.5 866.5M795.003 1010 795.003 1410.5" stroke="#385723" stroke-width="4.58333" stroke-miterlimit="8" fill="none" fill-rule="evenodd"/><rect x="1126.5" y="1126.87" width="201.628" height="396.628" fill="#4472C4"/><path d="M1328.13 1126.87 1476.5 978.5 1476.5 1375.13 1328.13 1523.5Z" fill="#375C9E" fill-rule="evenodd"/><path d="M1126.5 1126.87 1274.87 978.5 1476.5 978.5 1328.13 1126.87Z" fill="#698ED0" fill-rule="evenodd"/><path d="M1126.5 1126.87 1274.87 978.5 1476.5 978.5 1476.5 1375.13 1328.13 1523.5 1126.5 1523.5ZM1126.5 1126.87 1328.13 1126.87 1476.5 978.5M1328.13 1126.87 1328.13 1523.5" stroke="#4472C4" stroke-width="4.58333" stroke-miterlimit="8" fill="none" fill-rule="evenodd"/><rect x="1338.5" y="1122.36" width="1.13843" height="401.139" fill="#7F7F7F"/><path d="M1339.64 1122.36 1483.5 978.5 1483.5 1379.64 1339.64 1523.5Z" fill="#666666" fill-rule="evenodd"/><path d="M1338.5 1122.36 1482.36 978.5 1483.5 978.5 1339.64 1122.36Z" fill="#989898" fill-rule="evenodd"/><path d="M1338.5 1122.36 1482.36 978.5 1483.5 978.5 1483.5 1379.64 1339.64 1523.5 1338.5 1523.5ZM1338.5 1122.36 1339.64 1122.36 1483.5 978.5M1339.64 1122.36 1339.64 1523.5" stroke="#7F7F7F" stroke-width="4.58333" stroke-miterlimit="8" fill="none" fill-rule="evenodd"/><rect x="1347.5" y="1123.35" width="1.14612" height="400.146" fill="#70AD47"/><path d="M1348.65 1123.35 1493.5 978.5 1493.5 1378.65 1348.65 1523.5Z" fill="#5A8B39" fill-rule="evenodd"/><path d="M1347.5 1123.35 1492.35 978.5 1493.5 978.5 1348.65 1123.35Z" fill="#8CBD6B" fill-rule="evenodd"/><path d="M1347.5 1123.35 1492.35 978.5 1493.5 978.5 1493.5 1378.65 1348.65 1523.5 1347.5 1523.5ZM1347.5 1123.35 1348.65 1123.35 1493.5 978.5M1348.65 1123.35 1348.65 1523.5" stroke="#70AD47" stroke-width="4.58333" stroke-miterlimit="8" fill="none" fill-rule="evenodd"/><rect x="1504.5" y="1126.87" width="201.628" height="396.628" fill="#4472C4"/><path d="M1706.13 1126.87 1854.5 978.5 1854.5 1375.13 1706.13 1523.5Z" fill="#375C9E" fill-rule="evenodd"/><path d="M1504.5 1126.87 1652.87 978.5 1854.5 978.5 1706.13 1126.87Z" fill="#698ED0" fill-rule="evenodd"/><path d="M1504.5 1126.87 1652.87 978.5 1854.5 978.5 1854.5 1375.13 1706.13 1523.5 1504.5 1523.5ZM1504.5 1126.87 1706.13 1126.87 1854.5 978.5M1706.13 1126.87 1706.13 1523.5" stroke="#4472C4" stroke-width="4.58333" stroke-miterlimit="8" fill="none" fill-rule="evenodd"/><rect x="1716.5" y="1122.36" width="1.13843" height="401.139" fill="#7F7F7F"/><path d="M1717.64 1122.36 1861.5 978.5 1861.5 1379.64 1717.64 1523.5Z" fill="#666666" fill-rule="evenodd"/><path d="M1716.5 1122.36 1860.36 978.5 1861.5 978.5 1717.64 1122.36Z" fill="#989898" fill-rule="evenodd"/><path d="M1716.5 1122.36 1860.36 978.5 1861.5 978.5 1861.5 1379.64 1717.64 1523.5 1716.5 1523.5ZM1716.5 1122.36 1717.64 1122.36 1861.5 978.5M1717.64 1122.36 1717.64 1523.5" stroke="#7F7F7F" stroke-width="4.58333" stroke-miterlimit="8" fill="none" fill-rule="evenodd"/><path d="M1382.5 1213.75 1500 1213.75 1500 1176.5 1574.5 1251 1500 1325.5 1500 1288.25 1382.5 1288.25Z" stroke="#2F528F" stroke-width="4.58333" stroke-miterlimit="8" fill="#DAE3F3" fill-rule="evenodd"/><path d="M1876.5 1256C1876.5 1194.97 1925.97 1145.5 1987 1145.5 2048.03 1145.5 2097.5 1194.97 2097.5 1256 2097.5 1317.03 2048.03 1366.5 1987 1366.5 1925.97 1366.5 1876.5 1317.03 1876.5 1256Z" fill="#4472C4" fill-rule="evenodd"/><path d="M1987 1145.5 1987 1366.5M1876.5 1256 2097.5 1256" stroke="#2F528F" stroke-width="4.58333" stroke-miterlimit="8" fill="none" fill-rule="evenodd"/><path d="M1876.5 1256C1876.5 1194.97 1925.97 1145.5 1987 1145.5 2048.03 1145.5 2097.5 1194.97 2097.5 1256 2097.5 1317.03 2048.03 1366.5 1987 1366.5 1925.97 1366.5 1876.5 1317.03 1876.5 1256Z" stroke="#2F528F" stroke-width="4.58333" stroke-miterlimit="8" fill="none" fill-rule="evenodd"/><path d="M1762.5 1213.75 1869 1213.75 1869 1176.5 1943.5 1251 1869 1325.5 1869 1288.25 1762.5 1288.25Z" stroke="#2F528F" stroke-width="4.58333" stroke-miterlimit="8" fill="#DAE3F3" fill-rule="evenodd"/><path d="M1023.5 1218.5 1093 1218.5 1093 1181.5 1162.5 1255.5 1093 1329.5 1093 1292.5 1023.5 1292.5Z" stroke="#2F528F" stroke-width="4.58333" stroke-miterlimit="8" fill="#DAE3F3" fill-rule="evenodd"/><path d="M1086.2 1181.94 1086.2 913.862 1993.48 913.862 1993.48 1113.99 1980.88 1113.99 1980.88 920.164 1987.18 926.466 1092.5 926.466 1098.8 920.164 1098.8 1181.94ZM2006.08 1107.69 1987.18 1145.5 1968.27 1107.69Z" fill="#8FAADC"/><path d="M1011.5 981.336C1011.5 917.914 1062.91 866.5 1126.34 866.5L2429.66 866.5C2493.09 866.5 2544.5 917.914 2544.5 981.336L2544.5 1440.66C2544.5 1504.09 2493.09 1555.5 2429.66 1555.5L1126.34 1555.5C1062.91 1555.5 1011.5 1504.09 1011.5 1440.66Z" stroke="#000000" stroke-width="6.875" stroke-miterlimit="8" stroke-dasharray="27.5 20.625" fill="none" fill-rule="evenodd"/><text font-family="Arial,Arial_MSFontService,sans-serif" font-weight="700" font-size="83" transform="matrix(1 0 0 1 652.585 1531)">Residual</text><rect x="2138.5" y="1131.87" width="201.628" height="397.628" fill="#70AD47"/><path d="M2340.13 1131.87 2488.5 983.5 2488.5 1381.13 2340.13 1529.5Z" fill="#5A8B39" fill-rule="evenodd"/><path d="M2138.5 1131.87 2286.87 983.5 2488.5 983.5 2340.13 1131.87Z" fill="#8CBD6B" fill-rule="evenodd"/><path d="M2138.5 1131.87 2286.87 983.5 2488.5 983.5 2488.5 1381.13 2340.13 1529.5 2138.5 1529.5ZM2138.5 1131.87 2340.13 1131.87 2488.5 983.5M2340.13 1131.87 2340.13 1529.5" stroke="#70AD47" stroke-width="4.58333" stroke-miterlimit="8" fill="none" fill-rule="evenodd"/><path d="M2046.5 1216.5 2153.5 1216.5 2153.5 1179.5 2227.5 1253.5 2153.5 1327.5 2153.5 1290.5 2046.5 1290.5Z" stroke="#2F528F" stroke-width="4.58333" stroke-miterlimit="8" fill="#DAE3F3" fill-rule="evenodd"/></g></svg>