<svg width="2693" height="697" xmlns="http://www.w3.org/2000/svg" xmlns:xlink="http://www.w3.org/1999/xlink" xml:space="preserve" overflow="hidden"><defs><clipPath id="clip0"><rect x="764" y="142" width="2693" height="697"/></clipPath></defs><g clip-path="url(#clip0)" transform="translate(-764 -142)"><path d="M2738.5 535C2738.5 473.973 2788.2 424.5 2849.5 424.5 2910.8 424.5 2960.5 473.973 2960.5 535 2960.5 596.028 2910.8 645.5 2849.5 645.5 2788.2 645.5 2738.5 596.028 2738.5 535Z" fill="#4472C4" fill-rule="evenodd"/><path d="M2849.5 424.5 2849.5 645.5M2738.5 535 2960.5 535" stroke="#2F528F" stroke-width="4.58333" stroke-miterlimit="8" fill="none" fill-rule="evenodd"/><path d="M2738.5 535C2738.5 473.973 2788.2 424.5 2849.5 424.5 2910.8 424.5 2960.5 473.973 2960.5 535 2960.5 596.028 2910.8 645.5 2849.5 645.5 2788.2 645.5 2738.5 596.028 2738.5 535Z" stroke="#2F528F" stroke-width="4.58333" stroke-miterlimit="8" fill="none" fill-rule="evenodd"/><rect x="2352.5" y="401.448" width="201.052" height="398.052" fill="#FF0000"/><path d="M2553.55 401.448 2701.5 253.5 2701.5 651.552 2553.55 799.5Z" fill="#CD0000" fill-rule="evenodd"/><path d="M2352.5 401.448 2500.45 253.5 2701.5 253.5 2553.55 401.448Z" fill="#FF3232" fill-rule="evenodd"/><path d="M2352.5 401.448 2500.45 253.5 2701.5 253.5 2701.5 651.552 2553.55 799.5 2352.5 799.5ZM2352.5 401.448 2553.55 401.448 2701.5 253.5M2553.55 401.448 2553.55 799.5" stroke="#FF0000" stroke-width="4.58333" stroke-miterlimit="8" fill="none" fill-rule="evenodd"/><rect x="766.5" y="360.998" width="104.502" height="402.502" fill="#C55A11"/><path d="M871.002 360.998 1014.5 217.5 1014.5 620.002 871.002 763.5Z" fill="#9E480E" fill-rule="evenodd"/><path d="M766.5 360.998 909.998 217.5 1014.5 217.5 871.002 360.998Z" fill="#D07A40" fill-rule="evenodd"/><path d="M766.5 360.998 909.998 217.5 1014.5 217.5 1014.5 620.002 871.002 763.5 766.5 763.5ZM766.5 360.998 871.002 360.998 1014.5 217.5M871.002 360.998 871.002 763.5" stroke="#C55A11" stroke-width="4.58333" stroke-miterlimit="8" fill="none" fill-rule="evenodd"/><rect x="1570.5" y="406.448" width="201.052" height="397.052" fill="#4472C4"/><path d="M1771.55 406.448 1919.5 258.5 1919.5 655.552 1771.55 803.5Z" fill="#375C9E" fill-rule="evenodd"/><path d="M1570.5 406.448 1718.45 258.5 1919.5 258.5 1771.55 406.448Z" fill="#698ED0" fill-rule="evenodd"/><path d="M1570.5 406.448 1718.45 258.5 1919.5 258.5 1919.5 655.552 1771.55 803.5 1570.5 803.5ZM1570.5 406.448 1771.55 406.448 1919.5 258.5M1771.55 406.448 1771.55 803.5" stroke="#4472C4" stroke-width="4.58333" stroke-miterlimit="8" fill="none" fill-rule="evenodd"/><rect x="1781.5" y="402.361" width="1.13843" height="401.139" fill="#7F7F7F"/><path d="M1782.64 402.361 1926.5 258.5 1926.5 659.639 1782.64 803.5Z" fill="#666666" fill-rule="evenodd"/><path d="M1781.5 402.361 1925.36 258.5 1926.5 258.5 1782.64 402.361Z" fill="#989898" fill-rule="evenodd"/><path d="M1781.5 402.361 1925.36 258.5 1926.5 258.5 1926.5 659.639 1782.64 803.5 1781.5 803.5ZM1781.5 402.361 1782.64 402.361 1926.5 258.5M1782.64 402.361 1782.64 803.5" stroke="#7F7F7F" stroke-width="4.58333" stroke-miterlimit="8" fill="none" fill-rule="evenodd"/><rect x="1790.5" y="402.354" width="1.14587" height="401.146" fill="#70AD47"/><path d="M1791.65 402.354 1936.5 257.5 1936.5 658.646 1791.65 803.5Z" fill="#5A8B39" fill-rule="evenodd"/><path d="M1790.5 402.354 1935.35 257.5 1936.5 257.5 1791.65 402.354Z" fill="#8CBD6B" fill-rule="evenodd"/><path d="M1790.5 402.354 1935.35 257.5 1936.5 257.5 1936.5 658.646 1791.65 803.5 1790.5 803.5ZM1790.5 402.354 1791.65 402.354 1936.5 257.5M1791.65 402.354 1791.65 803.5" stroke="#70AD47" stroke-width="4.58333" stroke-miterlimit="8" fill="none" fill-rule="evenodd"/><rect x="1961.5" y="403.448" width="201.052" height="398.052" fill="#4472C4"/><path d="M2162.55 403.448 2310.5 255.5 2310.5 653.552 2162.55 801.5Z" fill="#375C9E" fill-rule="evenodd"/><path d="M1961.5 403.448 2109.45 255.5 2310.5 255.5 2162.55 403.448Z" fill="#698ED0" fill-rule="evenodd"/><path d="M1961.5 403.448 2109.45 255.5 2310.5 255.5 2310.5 653.552 2162.55 801.5 1961.5 801.5ZM1961.5 403.448 2162.55 403.448 2310.5 255.5M2162.55 403.448 2162.55 801.5" stroke="#4472C4" stroke-width="4.58333" stroke-miterlimit="8" fill="none" fill-rule="evenodd"/><rect x="2172.5" y="399.362" width="1.13818" height="402.138" fill="#7F7F7F"/><path d="M2173.64 399.362 2317.5 255.5 2317.5 657.638 2173.64 801.5Z" fill="#666666" fill-rule="evenodd"/><path d="M2172.5 399.362 2316.36 255.5 2317.5 255.5 2173.64 399.362Z" fill="#989898" fill-rule="evenodd"/><path d="M2172.5 399.362 2316.36 255.5 2317.5 255.5 2317.5 657.638 2173.64 801.5 2172.5 801.5ZM2172.5 399.362 2173.64 399.362 2317.5 255.5M2173.64 399.362 2173.64 801.5" stroke="#7F7F7F" stroke-width="4.58333" stroke-miterlimit="8" fill="none" fill-rule="evenodd"/><rect x="2181.5" y="400.354" width="1.14575" height="401.147" fill="#70AD47"/><path d="M2182.65 400.354 2327.5 255.5 2327.5 656.646 2182.65 801.5Z" fill="#5A8B39" fill-rule="evenodd"/><path d="M2181.5 400.354 2326.35 255.5 2327.5 255.5 2182.65 400.354Z" fill="#8CBD6B" fill-rule="evenodd"/><path d="M2181.5 400.354 2326.35 255.5 2327.5 255.5 2327.5 656.646 2182.65 801.5 2181.5 801.5ZM2181.5 400.354 2182.65 400.354 2327.5 255.5M2182.65 400.354 2182.65 801.5" stroke="#70AD47" stroke-width="4.58333" stroke-miterlimit="8" fill="none" fill-rule="evenodd"/><path d="M1821.5 498.75 1954 498.75 1954 461.5 2028.5 536 1954 610.5 1954 573.25 1821.5 573.25Z" stroke="#2F528F" stroke-width="4.58333" stroke-miterlimit="8" fill="#DAE3F3" fill-rule="evenodd"/><path d="M2212.5 498.75 2343 498.75 2343 461.5 2417.5 536 2343 610.5 2343 573.25 2212.5 573.25Z" stroke="#2F528F" stroke-width="4.58333" stroke-miterlimit="8" fill="#DAE3F3" fill-rule="evenodd"/><path d="M2596.5 499.5 2727.5 499.5 2727.5 462.5 2801.5 536.5 2727.5 610.5 2727.5 573.5 2596.5 573.5Z" stroke="#2F528F" stroke-width="4.58333" stroke-miterlimit="8" fill="#DAE3F3" fill-rule="evenodd"/><path d="M1087.5 498.5 1157.5 498.5 1157.5 461.5 1227.5 535.5 1157.5 609.5 1157.5 572.5 1087.5 572.5Z" stroke="#2F528F" stroke-width="4.58333" stroke-miterlimit="8" fill="#DAE3F3" fill-rule="evenodd"/><path d="M1151.2 461.399 1151.2 181.698 2855.85 181.698 2855.85 392.99 2843.25 392.99 2843.25 188 2849.55 194.303 1157.5 194.303 1163.8 188 1163.8 461.399ZM2868.46 386.688 2849.55 424.5 2830.64 386.688Z" fill="#8FAADC"/><path d="M1075.5 261.335C1075.5 197.914 1126.91 146.5 1190.34 146.5L3338.67 146.5C3402.09 146.5 3453.5 197.914 3453.5 261.335L3453.5 720.665C3453.5 784.087 3402.09 835.5 3338.67 835.5L1190.34 835.5C1126.91 835.5 1075.5 784.087 1075.5 720.665Z" stroke="#000000" stroke-width="6.875" stroke-miterlimit="8" stroke-dasharray="27.5 20.625" fill="none" fill-rule="evenodd"/><rect x="1193.5" y="404.448" width="201.052" height="398.052"/><path d="M1394.55 404.448 1542.5 256.5 1542.5 654.552 1394.55 802.5Z" fill-rule="evenodd"/><path d="M1193.5 404.448 1341.45 256.5 1542.5 256.5 1394.55 404.448Z" fill="#323232" fill-rule="evenodd"/><path d="M1193.5 404.448 1341.45 256.5 1542.5 256.5 1542.5 654.552 1394.55 802.5 1193.5 802.5ZM1193.5 404.448 1394.55 404.448 1542.5 256.5M1394.55 404.448 1394.55 802.5" stroke="#000000" stroke-width="4.58333" stroke-miterlimit="8" fill="none" fill-rule="evenodd"/><path d="M1435.5 498.5 1562.5 498.5 1562.5 461.5 1636.5 535.5 1562.5 609.5 1562.5 572.5 1435.5 572.5Z" stroke="#2F528F" stroke-width="4.58333" stroke-miterlimit="8" fill="#DAE3F3" fill-rule="evenodd"/><rect x="766.5" y="360.998" width="104.502" height="402.502" fill="#C55A11"/><path d="M871.002 360.998 1014.5 217.5 1014.5 620.002 871.002 763.5Z" fill="#9E480E" fill-rule="evenodd"/><path d="M766.5 360.998 909.998 217.5 1014.5 217.5 871.002 360.998Z" fill="#D07A40" fill-rule="evenodd"/><path d="M766.5 360.998 909.998 217.5 1014.5 217.5 1014.5 620.002 871.002 763.5 766.5 763.5ZM766.5 360.998 871.002 360.998 1014.5 217.5M871.002 360.998 871.002 763.5" stroke="#C55A11" stroke-width="4.58333" stroke-miterlimit="8" fill="none" fill-rule="evenodd"/><rect x="1570.5" y="405.448" width="201.051" height="398.052" fill="#4472C4"/><path d="M1771.55 405.448 1919.5 257.5 1919.5 655.552 1771.55 803.5Z" fill="#375C9E" fill-rule="evenodd"/><path d="M1570.5 405.448 1718.45 257.5 1919.5 257.5 1771.55 405.448Z" fill="#698ED0" fill-rule="evenodd"/><path d="M1570.5 405.448 1718.45 257.5 1919.5 257.5 1919.5 655.552 1771.55 803.5 1570.5 803.5ZM1570.5 405.448 1771.55 405.448 1919.5 257.5M1771.55 405.448 1771.55 803.5" stroke="#4472C4" stroke-width="4.58333" stroke-miterlimit="8" fill="none" fill-rule="evenodd"/><rect x="1781.5" y="401.362" width="1.13806" height="402.138" fill="#7F7F7F"/><path d="M1782.64 401.362 1926.5 257.5 1926.5 659.638 1782.64 803.5Z" fill="#666666" fill-rule="evenodd"/><path d="M1781.5 401.362 1925.36 257.5 1926.5 257.5 1782.64 401.362Z" fill="#989898" fill-rule="evenodd"/><path d="M1781.5 401.362 1925.36 257.5 1926.5 257.5 1926.5 659.638 1782.64 803.5 1781.5 803.5ZM1781.5 401.362 1782.64 401.362 1926.5 257.5M1782.64 401.362 1782.64 803.5" stroke="#7F7F7F" stroke-width="4.58333" stroke-miterlimit="8" fill="none" fill-rule="evenodd"/><rect x="1790.5" y="402.354" width="1.14587" height="401.146" fill="#70AD47"/><path d="M1791.65 402.354 1936.5 257.5 1936.5 658.646 1791.65 803.5Z" fill="#5A8B39" fill-rule="evenodd"/><path d="M1790.5 402.354 1935.35 257.5 1936.5 257.5 1791.65 402.354Z" fill="#8CBD6B" fill-rule="evenodd"/><path d="M1790.5 402.354 1935.35 257.5 1936.5 257.5 1936.5 658.646 1791.65 803.5 1790.5 803.5ZM1790.5 402.354 1791.65 402.354 1936.5 257.5M1791.65 402.354 1791.65 803.5" stroke="#70AD47" stroke-width="4.58333" stroke-miterlimit="8" fill="none" fill-rule="evenodd"/><path d="M1821.5 498.5 1954.5 498.5 1954.5 461.5 2028.5 535.5 1954.5 609.5 1954.5 572.5 1821.5 572.5Z" stroke="#2F528F" stroke-width="4.58333" stroke-miterlimit="8" fill="#DAE3F3" fill-rule="evenodd"/><path d="M1087.5 498.5 1157.5 498.5 1157.5 461.5 1227.5 535.5 1157.5 609.5 1157.5 572.5 1087.5 572.5Z" stroke="#2F528F" stroke-width="4.58333" stroke-miterlimit="8" fill="#DAE3F3" fill-rule="evenodd"/><path d="M1075.5 260.335C1075.5 196.914 1126.91 145.5 1190.34 145.5L3338.67 145.5C3402.09 145.5 3453.5 196.914 3453.5 260.335L3453.5 719.665C3453.5 783.087 3402.09 834.5 3338.67 834.5L1190.34 834.5C1126.91 834.5 1075.5 783.087 1075.5 719.665Z" stroke="#000000" stroke-width="6.875" stroke-miterlimit="8" stroke-dasharray="27.5 20.625" fill="none" fill-rule="evenodd"/><rect x="1193.5" y="404.448" width="201.052" height="397.052"/><path d="M1394.55 404.448 1542.5 256.5 1542.5 653.552 1394.55 801.5Z" fill-rule="evenodd"/><path d="M1193.5 404.448 1341.45 256.5 1542.5 256.5 1394.55 404.448Z" fill="#323232" fill-rule="evenodd"/><path d="M1193.5 404.448 1341.45 256.5 1542.5 256.5 1542.5 653.552 1394.55 801.5 1193.5 801.5ZM1193.5 404.448 1394.55 404.448 1542.5 256.5M1394.55 404.448 1394.55 801.5" stroke="#000000" stroke-width="4.58333" stroke-miterlimit="8" fill="none" fill-rule="evenodd"/><path d="M1435.5 498.5 1562.5 498.5 1562.5 461.5 1636.5 535.5 1562.5 609.5 1562.5 572.5 1435.5 572.5Z" stroke="#2F528F" stroke-width="4.58333" stroke-miterlimit="8" fill="#DAE3F3" fill-rule="evenodd"/><rect x="3042.5" y="394.872" width="201.628" height="397.628" fill="#70AD47"/><path d="M3244.13 394.872 3392.5 246.5 3392.5 644.128 3244.13 792.5Z" fill="#5A8B39" fill-rule="evenodd"/><path d="M3042.5 394.872 3190.87 246.5 3392.5 246.5 3244.13 394.872Z" fill="#8CBD6B" fill-rule="evenodd"/><path d="M3042.5 394.872 3190.87 246.5 3392.5 246.5 3392.5 644.128 3244.13 792.5 3042.5 792.5ZM3042.5 394.872 3244.13 394.872 3392.5 246.5M3244.13 394.872 3244.13 792.5" stroke="#70AD47" stroke-width="4.58333" stroke-miterlimit="8" fill="none" fill-rule="evenodd"/><path d="M2910.5 499.5 3041.5 499.5 3041.5 462.5 3115.5 536.5 3041.5 610.5 3041.5 573.5 2910.5 573.5Z" stroke="#2F528F" stroke-width="4.58333" stroke-miterlimit="8" fill="#DAE3F3" fill-rule="evenodd"/></g></svg>