<svg width="2126" height="951" xmlns="http://www.w3.org/2000/svg" xmlns:xlink="http://www.w3.org/1999/xlink" xml:space="preserve" overflow="hidden"><defs><clipPath id="clip0"><rect x="2144" y="1106" width="2126" height="951"/></clipPath></defs><g clip-path="url(#clip0)" transform="translate(-2144 -1106)"><rect x="2318.5" y="1390.42" width="104.081" height="402.081" fill="#0D0D0D"/><path d="M2422.58 1390.42 2565.5 1247.5 2565.5 1649.58 2422.58 1792.5Z" fill="#0A0A0A" fill-rule="evenodd"/><path d="M2318.5 1390.42 2461.42 1247.5 2565.5 1247.5 2422.58 1390.42Z" fill="#3C3C3C" fill-rule="evenodd"/><path d="M2318.5 1390.42 2461.42 1247.5 2565.5 1247.5 2565.5 1649.58 2422.58 1792.5 2318.5 1792.5ZM2318.5 1390.42 2422.58 1390.42 2565.5 1247.5M2422.58 1390.42 2422.58 1792.5" stroke="#000000" stroke-width="4.58333" stroke-miterlimit="8" fill="none" fill-rule="evenodd"/><path d="M2682.5 1458.45 2830.45 1310.5 3031.5 1310.5 3031.5 1708.55 2883.55 1856.5 2682.5 1856.5ZM2682.5 1458.45 2883.55 1458.45 3031.5 1310.5M2883.55 1458.45 2883.55 1856.5" stroke="#000000" stroke-width="4.58333" stroke-miterlimit="8" fill="none" fill-rule="evenodd"/><path d="M3028.5 1604.92 3639.94 1604.92 3639.94 1614.08 3028.5 1614.08ZM3635.35 1595.75 3662.85 1609.5 3635.35 1623.25Z" fill="#4472C4"/><path d="M2629.5 1246.34C2629.5 1170.76 2690.76 1109.5 2766.34 1109.5L4129.66 1109.5C4205.24 1109.5 4266.5 1170.76 4266.5 1246.34L4266.5 1793.66C4266.5 1869.24 4205.24 1930.5 4129.66 1930.5L2766.34 1930.5C2690.76 1930.5 2629.5 1869.24 2629.5 1793.66Z" stroke="#000000" stroke-width="6.875" stroke-linecap="square" stroke-miterlimit="8" stroke-dasharray="20.625 6.875" fill="none" fill-rule="evenodd"/><text font-family="Arial,Arial_MSFontService,sans-serif" font-weight="700" font-size="83" transform="matrix(1 0 0 1 2301.48 1889)">Spatial</text><text font-family="Arial,Arial_MSFontService,sans-serif" font-weight="700" font-size="83" transform="matrix(1 0 0 1 2193.8 1988)">Transformer</text><path d="M3874.5 1468.87 4022.87 1320.5 4224.5 1320.5 4224.5 1718.13 4076.13 1866.5 3874.5 1866.5ZM3874.5 1468.87 4076.13 1468.87 4224.5 1320.5M4076.13 1468.87 4076.13 1866.5" stroke="#000000" stroke-width="4.58333" stroke-miterlimit="8" fill="none" fill-rule="evenodd"/><text fill="#4472C4" font-family="Arial,Arial_MSFontService,sans-serif" font-weight="700" font-size="73" transform="matrix(1 0 0 1 3042.33 1267)">Localisation </text><text fill="#4472C4" font-family="Arial,Arial_MSFontService,sans-serif" font-weight="700" font-size="73" transform="matrix(1 0 0 1 3197.29 1355)">Net</text><path d="M3659.5 1609C3659.5 1581.66 3681.66 1559.5 3709 1559.5 3736.34 1559.5 3758.5 1581.66 3758.5 1609 3758.5 1636.34 3736.34 1658.5 3709 1658.5 3681.66 1658.5 3659.5 1636.34 3659.5 1609Z" fill="#4472C4" fill-rule="evenodd"/><path d="M3709 1559.5 3709 1658.5M3659.5 1609 3758.5 1609" stroke="#2F528F" stroke-width="4.58333" stroke-miterlimit="8" fill="none" fill-rule="evenodd"/><path d="M3659.5 1609C3659.5 1581.66 3681.66 1559.5 3709 1559.5 3736.34 1559.5 3758.5 1581.66 3758.5 1609 3758.5 1636.34 3736.34 1658.5 3709 1658.5 3681.66 1658.5 3659.5 1636.34 3659.5 1609Z" stroke="#2F528F" stroke-width="4.58333" stroke-miterlimit="8" fill="none" fill-rule="evenodd"/><path d="M3762.5 1602.92 3852.05 1602.92 3852.05 1612.08 3762.5 1612.08ZM3847.47 1593.75 3874.97 1607.5 3847.47 1621.25Z" fill="#4472C4"/><text font-family="Arial,Arial_MSFontService,sans-serif" font-weight="700" font-size="73" transform="matrix(1 0 0 1 3581.16 1723)">Sampler</text><path d="M3474.06 1298.85C3473.44 1301.39 3472.99 1303.8 3472.72 1306.08 3472.45 1308.36 3472.31 1310.38 3472.31 1312.14 3472.31 1314.23 3472.62 1315.79 3473.25 1316.81 3473.88 1317.83 3474.88 1318.34 3476.23 1318.34 3478.61 1318.34 3480.85 1316.67 3482.95 1313.32 3485.05 1309.97 3486.85 1305.14 3488.35 1298.85ZM3487.21 1275.21C3484.79 1275.21 3482.52 1276.83 3480.42 1280.06 3478.32 1283.29 3476.52 1288.06 3475.02 1294.36L3489.31 1294.36C3489.83 1291.96 3490.24 1289.75 3490.54 1287.73 3490.84 1285.71 3490.99 1283.83 3490.99 1282.09 3490.99 1279.62 3490.7 1277.86 3490.11 1276.8 3489.53 1275.74 3488.56 1275.21 3487.21 1275.21ZM3487.28 1271.51C3491.65 1271.51 3494.92 1272.76 3497.08 1275.27 3499.24 1277.78 3500.33 1281.54 3500.33 1286.55 3500.33 1290.07 3499.75 1294.21 3498.6 1298.97 3497.44 1303.74 3495.82 1307.87 3493.71 1311.38 3491.61 1314.88 3489.07 1317.54 3486.1 1319.34 3483.13 1321.15 3479.78 1322.05 3476.05 1322.05 3471.7 1322.05 3468.44 1320.8 3466.25 1318.31 3464.06 1315.81 3462.97 1312.17 3462.97 1307.37 3462.97 1303.85 3463.54 1299.69 3464.66 1294.89 3465.79 1290.09 3467.4 1285.92 3469.49 1282.38 3471.58 1278.84 3474.12 1276.14 3477.09 1274.29 3480.06 1272.43 3483.45 1271.51 3487.28 1271.51Z" fill="#4472C4" fill-rule="evenodd"/><text fill="#000000" fill-opacity="0" font-family="Arial,Arial_MSFontService,sans-serif" font-size="50.5439" x="3462.97" y="1315.73">ğœ½</text><path d="M3568.14 1285.91 3582.14 1299.49 3582.14 1301.77 3568.14 1315.35 3566.03 1313.39 3574.2 1302.98 3529.18 1302.98 3529.18 1298.24 3574.2 1298.24 3566.03 1287.87Z" fill-rule="evenodd"/><text fill="#000000" fill-opacity="0" font-family="Arial,Arial_MSFontService,sans-serif" font-size="29.4424" x="3529.18" y="1311.67">â†’</text><path d="M3611.92 1272.83 3651.2 1272.83 3648.39 1285.73 3643.82 1285.73C3643.8 1283.09 3643.65 1281.24 3643.36 1280.19 3643.07 1279.13 3642.62 1278.33 3641.99 1277.8 3641.36 1277.26 3640.47 1277 3639.33 1277L3636.16 1277 3628.5 1311.86C3628.33 1312.64 3628.21 1313.31 3628.14 1313.85 3628.07 1314.4 3628.03 1315.12 3628.03 1316.03 3628.03 1317.12 3628.31 1317.89 3628.87 1318.34 3629.43 1318.8 3630.3 1319.06 3631.49 1319.13L3630.99 1321.48 3612.06 1321.48 3612.56 1319.13C3613.61 1318.99 3614.44 1318.68 3615.06 1318.2 3615.68 1317.73 3616.19 1317.02 3616.61 1316.08 3617.02 1315.14 3617.45 1313.73 3617.87 1311.86L3625.54 1277 3622.69 1277C3621.38 1277 3620.32 1277.19 3619.51 1277.59 3618.71 1277.98 3617.8 1278.8 3616.8 1280.04 3615.81 1281.29 3614.84 1282.94 3613.92 1284.98L3609.25 1284.98Z" fill="#70AD47" fill-rule="evenodd"/><text fill="#000000" fill-opacity="0" font-family="Arial,Arial_MSFontService,sans-serif" font-size="48.6548" x="3609.25" y="1315.4">ğ‘»</text><path d="M3663.61 1320.01C3663.16 1321.86 3662.84 1323.61 3662.64 1325.27 3662.44 1326.92 3662.34 1328.39 3662.34 1329.67 3662.34 1331.18 3662.57 1332.31 3663.03 1333.06 3663.49 1333.8 3664.21 1334.17 3665.19 1334.17 3666.91 1334.17 3668.54 1332.95 3670.07 1330.52 3671.59 1328.09 3672.9 1324.58 3673.99 1320.01ZM3673.16 1302.86C3671.4 1302.86 3669.76 1304.03 3668.23 1306.37 3666.7 1308.72 3665.4 1312.18 3664.31 1316.75L3674.69 1316.75C3675.07 1315.01 3675.36 1313.41 3675.58 1311.94 3675.8 1310.47 3675.9 1309.11 3675.9 1307.85 3675.9 1306.06 3675.69 1304.77 3675.27 1304.01 3674.85 1303.24 3674.14 1302.86 3673.16 1302.86ZM3673.21 1300.16C3676.39 1300.16 3678.76 1301.07 3680.33 1302.89 3681.9 1304.71 3682.68 1307.44 3682.68 1311.08 3682.68 1313.64 3682.26 1316.64 3681.43 1320.1 3680.59 1323.56 3679.41 1326.56 3677.88 1329.11 3676.36 1331.65 3674.51 1333.58 3672.36 1334.89 3670.2 1336.2 3667.77 1336.86 3665.06 1336.86 3661.9 1336.86 3659.53 1335.95 3657.94 1334.14 3656.36 1332.33 3655.56 1329.68 3655.56 1326.2 3655.56 1323.64 3655.97 1320.63 3656.79 1317.14 3657.61 1313.66 3658.78 1310.63 3660.3 1308.06 3661.82 1305.49 3663.65 1303.53 3665.81 1302.18 3667.97 1300.84 3670.43 1300.16 3673.21 1300.16Z" fill="#70AD47" fill-rule="evenodd"/><text fill="#000000" fill-opacity="0" font-family="Arial,Arial_MSFontService,sans-serif" font-size="36.6963" x="3655.56" y="1332.27">ğœ½</text><path d="M3737.22 1269.98 3738.18 1272.72C3732.62 1274.55 3728.5 1278.12 3725.83 1283.43 3723.16 1288.74 3721.82 1295.41 3721.82 1303.45 3721.82 1311.76 3723.16 1318.62 3725.83 1324.01 3728.5 1329.41 3732.58 1333.02 3738.07 1334.85L3737.22 1337.59C3730.25 1335.76 3724.92 1331.82 3721.21 1325.78 3717.51 1319.73 3715.65 1312.4 3715.65 1303.8 3715.65 1295.22 3717.51 1287.9 3721.23 1281.83 3724.95 1275.76 3730.28 1271.8 3737.22 1269.98Z" fill="#70AD47" fill-rule="evenodd"/><text fill="#000000" fill-opacity="0" font-family="Arial,Arial_MSFontService,sans-serif" font-size="67.6177" x="3715.65" y="1329.14">(</text><path d="M3772.14 1272.26C3777.18 1272.26 3781.7 1272.93 3785.69 1274.29L3783.51 1284.48 3778.85 1284.48C3778.85 1282.42 3778.63 1280.81 3778.19 1279.65 3777.75 1278.5 3777.08 1277.67 3776.17 1277.18 3775.27 1276.68 3774.06 1276.43 3772.54 1276.43 3769.38 1276.43 3766.54 1277.88 3764.02 1280.79 3761.5 1283.7 3759.36 1287.98 3757.6 1293.63 3755.84 1299.27 3754.96 1304.35 3754.96 1308.86 3754.96 1314.88 3756.95 1317.88 3760.92 1317.88 3762.82 1317.88 3764.39 1317.28 3765.62 1316.08 3766.86 1314.88 3767.76 1313.02 3768.33 1310.5L3768.83 1308.26C3769.02 1307.38 3769.14 1306.65 3769.19 1306.07 3769.23 1305.48 3769.26 1304.95 3769.26 1304.48 3769.26 1303.5 3769.03 1302.77 3768.58 1302.29 3768.13 1301.8 3767.36 1301.48 3766.26 1301.34L3766.76 1298.99 3784.16 1298.99 3783.66 1301.34C3782.73 1301.65 3782.04 1302.03 3781.59 1302.47 3781.14 1302.9 3780.73 1303.55 3780.38 1304.39 3780.02 1305.23 3779.63 1306.64 3779.2 1308.61L3776.46 1320.91 3771.54 1322.05 3769.65 1319.52C3766.54 1321.21 3763.29 1322.05 3759.92 1322.05 3754.93 1322.05 3751.1 1320.65 3748.42 1317.85 3745.75 1315.04 3744.41 1310.99 3744.41 1305.69 3744.41 1302.41 3744.97 1298.66 3746.09 1294.45 3747.21 1290.23 3748.93 1286.43 3751.27 1283.04 3753.61 1279.65 3756.56 1277.01 3760.1 1275.11 3763.64 1273.21 3767.65 1272.26 3772.14 1272.26Z" fill="#70AD47" fill-rule="evenodd"/><text fill="#000000" fill-opacity="0" font-family="Arial,Arial_MSFontService,sans-serif" font-size="49.7954" x="3744.41" y="1315.83">ğ‘®</text><path d="M3791.19 1269.98C3798.13 1271.8 3803.46 1275.76 3807.18 1281.83 3810.89 1287.9 3812.75 1295.22 3812.75 1303.8 3812.75 1312.4 3810.9 1319.73 3807.19 1325.78 3803.49 1331.82 3798.15 1335.76 3791.19 1337.59L3790.33 1334.85C3795.82 1333.02 3799.9 1329.41 3802.58 1324.01 3805.25 1318.62 3806.59 1311.76 3806.59 1303.45 3806.59 1295.41 3805.26 1288.74 3802.59 1283.43 3799.93 1278.12 3795.81 1274.55 3790.23 1272.72Z" fill="#70AD47" fill-rule="evenodd"/><text fill="#000000" fill-opacity="0" font-family="Arial,Arial_MSFontService,sans-serif" font-size="67.6177" x="3790.23" y="1329.14">)</text><text fill="#70AD47" font-family="Arial,Arial_MSFontService,sans-serif" font-weight="700" font-size="64" transform="matrix(1 0 0 1 3623.47 1196)">Grid </text><text fill="#70AD47" font-family="Arial,Arial_MSFontService,sans-serif" font-weight="700" font-size="64" transform="matrix(1 0 0 1 3773 1196)">Generator</text><path d="M3436.43 1281.26 3452.36 1296.7 3452.36 1299.3 3436.43 1314.74 3434.04 1312.51 3443.32 1300.68 3392.13 1300.68 3392.13 1295.29 3443.32 1295.29 3434.04 1283.49Z" fill-rule="evenodd"/><text fill="#000000" fill-opacity="0" font-family="Arial,Arial_MSFontService,sans-serif" font-size="33.4756" x="3392.13" y="1310.55">â†’</text><path d="M3030.5 1214.67C3030.5 1195.24 3046.24 1179.5 3065.67 1179.5L3513.33 1179.5C3532.76 1179.5 3548.5 1195.24 3548.5 1214.67L3548.5 1355.33C3548.5 1374.76 3532.76 1390.5 3513.33 1390.5L3065.67 1390.5C3046.24 1390.5 3030.5 1374.76 3030.5 1355.33Z" stroke="#2F528F" stroke-width="9.16667" stroke-miterlimit="8" stroke-dasharray="36.6667 27.5" fill="none" fill-rule="evenodd"/><path d="M3445.5 1258.5C3445.5 1248.56 3453.56 1240.5 3463.5 1240.5L3842.5 1240.5C3852.44 1240.5 3860.5 1248.56 3860.5 1258.5L3860.5 1330.5C3860.5 1340.44 3852.44 1348.5 3842.5 1348.5L3463.5 1348.5C3453.56 1348.5 3445.5 1340.44 3445.5 1330.5Z" stroke="#70AD47" stroke-width="9.16667" stroke-miterlimit="8" stroke-dasharray="36.6667 27.5" fill="none" fill-rule="evenodd"/><path d="M0.118699-4.5818 12.2996-4.26623 24.5856-3.31136 36.8724-1.78347 49.033 0.381242 61.1094 3.11432 72.9839 6.35284 84.8045 10.1024 96.4345 14.4239 107.787 19.1806 119.027 24.3878 129.945 30.1007 140.656 36.1848 151.061 42.6567 161.166 49.5203 170.876 56.8187 180.264 64.3672 189.28 72.3035 197.917 80.4963 206.126 89.0231 213.824 97.8031 221.075 106.834 227.893 116.137 234.084 125.584 239.764 135.284 244.872 145.118 249.415 155.099 253.33 165.239 256.54 175.513 259.135 185.957 260.179 193.848 251.092 195.05 250.081 187.414 250.177 187.918 247.677 177.855 247.75 178.117 244.625 168.117 244.724 168.401 240.912 158.526 241.016 158.774 236.578 149.024 236.683 149.238 231.683 139.613 231.795 139.816 226.232 130.316 226.354 130.512 220.292 121.262 220.428 121.459 213.741 112.334 213.863 112.494 206.738 103.619 206.866 103.772 199.304 95.1467 199.448 95.3037 191.386 86.9287 191.533 87.0754 183.033 79.0129 183.159 79.1278 174.284 71.3153 174.44 71.4469 165.19 64.0094 165.309 64.1013 155.746 56.9138 155.925 57.0414 145.987 50.2914 146.142 50.392 135.892 44.017 136.049 44.1102 125.486 38.1102 125.625 38.186 114.875 32.561 115.073 32.6587 104.011 27.5337 104.166 27.6023 92.9788 22.9148 93.1535 22.9838 81.716 18.7338 81.9267 18.8063 70.3017 15.1188 70.4815 15.1718 58.794 11.9843 58.9883 12.0328 47.1133 9.34528 47.3217 9.3874 35.3842 7.2624 35.6219 7.2983 23.5594 5.7983 23.7699 5.81955 11.7074 4.88205 11.9438 4.8943-0.118699 4.5818ZM268.856 188.51 257.933 217.25 241.495 191.267Z" fill="#4472C4" transform="matrix(1 0 0 -1 3031.5 1607.75)"/><path d="M3713.08 1361.5 3713.08 1536.92 3703.92 1536.92 3703.92 1361.5ZM3722.25 1532.34 3708.5 1559.84 3694.75 1532.34Z" fill="#4472C4"/></g></svg>