<svg width="1594" height="895" xmlns="http://www.w3.org/2000/svg" xmlns:xlink="http://www.w3.org/1999/xlink" xml:space="preserve" overflow="hidden"><defs><clipPath id="clip0"><rect x="290" y="131" width="1594" height="895"/></clipPath></defs><g clip-path="url(#clip0)" transform="translate(-290 -131)"><rect x="292.5" y="451.95" width="53.5497" height="371.55" fill="#4472C4"/><path d="M346.05 451.95 530.5 267.5 530.5 639.05 346.05 823.5Z" fill="#375C9E" fill-rule="evenodd"/><path d="M292.5 451.95 476.95 267.5 530.5 267.5 346.05 451.95Z" fill="#698ED0" fill-rule="evenodd"/><path d="M292.5 451.95 476.95 267.5 530.5 267.5 530.5 639.05 346.05 823.5 292.5 823.5ZM292.5 451.95 346.05 451.95 530.5 267.5M346.05 451.95 346.05 823.5" stroke="#2F528F" stroke-width="4.58333" stroke-miterlimit="8" fill="none" fill-rule="evenodd"/><rect x="354.5" y="449.094" width="1.43683" height="374.406" fill="#7F7F7F"/><path d="M355.937 449.094 537.531 267.5 537.531 641.906 355.937 823.5Z" fill="#666666" fill-rule="evenodd"/><path d="M354.5 449.094 536.094 267.5 537.531 267.5 355.937 449.094Z" fill="#989898" fill-rule="evenodd"/><path d="M354.5 449.094 536.094 267.5 537.531 267.5 537.531 641.906 355.937 823.5 354.5 823.5ZM354.5 449.094 355.937 449.094 537.531 267.5M355.937 449.094 355.937 823.5" stroke="#7F7F7F" stroke-width="4.58333" stroke-miterlimit="8" fill="none" fill-rule="evenodd"/><rect x="364.5" y="450.056" width="1.44412" height="373.444" fill="#70AD47"/><path d="M365.944 450.056 548.5 267.5 548.5 640.944 365.944 823.5Z" fill="#5A8B39" fill-rule="evenodd"/><path d="M364.5 450.056 547.056 267.5 548.5 267.5 365.944 450.056Z" fill="#8CBD6B" fill-rule="evenodd"/><path d="M364.5 450.056 547.056 267.5 548.5 267.5 548.5 640.944 365.944 823.5 364.5 823.5ZM364.5 450.056 365.944 450.056 548.5 267.5M365.944 450.056 365.944 823.5" stroke="#70AD47" stroke-width="4.58333" stroke-miterlimit="8" fill="none" fill-rule="evenodd"/><rect x="724.5" y="405.95" width="53.5497" height="371.55" fill="#4472C4"/><path d="M778.05 405.95 962.5 221.5 962.5 593.05 778.05 777.5Z" fill="#375C9E" fill-rule="evenodd"/><path d="M724.5 405.95 908.95 221.5 962.5 221.5 778.05 405.95Z" fill="#698ED0" fill-rule="evenodd"/><path d="M724.5 405.95 908.95 221.5 962.5 221.5 962.5 593.05 778.05 777.5 724.5 777.5ZM724.5 405.95 778.05 405.95 962.5 221.5M778.05 405.95 778.05 777.5" stroke="#2F528F" stroke-width="4.58333" stroke-miterlimit="8" fill="none" fill-rule="evenodd"/><rect x="1160.5" y="405.95" width="53.5498" height="371.55" fill="#7F7F7F"/><path d="M1214.05 405.95 1398.5 221.5 1398.5 593.05 1214.05 777.5Z" fill="#666666" fill-rule="evenodd"/><path d="M1160.5 405.95 1344.95 221.5 1398.5 221.5 1214.05 405.95Z" fill="#989898" fill-rule="evenodd"/><path d="M1160.5 405.95 1344.95 221.5 1398.5 221.5 1398.5 593.05 1214.05 777.5 1160.5 777.5ZM1160.5 405.95 1214.05 405.95 1398.5 221.5M1214.05 405.95 1214.05 777.5" stroke="#7F7F7F" stroke-width="4.58333" stroke-miterlimit="8" fill="none" fill-rule="evenodd"/><text font-family="Arial,Arial_MSFontService,sans-serif" font-weight="700" font-size="83" transform="matrix(1 0 0 1 636.479 858)">Conv 3x3</text><text font-family="Arial,Arial_MSFontService,sans-serif" font-weight="700" font-size="83" transform="matrix(1 0 0 1 1082.32 858)">Batch</text><text font-family="Arial,Arial_MSFontService,sans-serif" font-weight="700" font-size="83" transform="matrix(1 0 0 1 1067.72 957)">Normal</text><rect x="1588.5" y="405.95" width="53.5498" height="371.55" fill="#70AD47"/><path d="M1642.05 405.95 1826.5 221.5 1826.5 593.05 1642.05 777.5Z" fill="#5A8B39" fill-rule="evenodd"/><path d="M1588.5 405.95 1772.95 221.5 1826.5 221.5 1642.05 405.95Z" fill="#8CBD6B" fill-rule="evenodd"/><path d="M1588.5 405.95 1772.95 221.5 1826.5 221.5 1826.5 593.05 1642.05 777.5 1588.5 777.5ZM1588.5 405.95 1642.05 405.95 1826.5 221.5M1642.05 405.95 1642.05 777.5" stroke="#70AD47" stroke-width="4.58333" stroke-miterlimit="8" fill="none" fill-rule="evenodd"/><text font-family="Arial,Arial_MSFontService,sans-serif" font-weight="700" font-size="83" transform="matrix(1 0 0 1 1562.57 874)">Relu</text><path d="M603.5 272.002C603.5 196.062 665.062 134.5 741.002 134.5L1743 134.5C1818.94 134.5 1880.5 196.062 1880.5 272.002L1880.5 821.997C1880.5 897.938 1818.94 959.5 1743 959.5L741.002 959.5C665.062 959.5 603.5 897.938 603.5 821.997Z" stroke="#000000" stroke-width="6.875" stroke-miterlimit="8" stroke-dasharray="27.5 20.625" fill="none" fill-rule="evenodd"/><path d="M847.5 509.5 1073.5 509.5 1073.5 472.5 1147.5 546.5 1073.5 620.5 1073.5 583.5 847.5 583.5Z" stroke="#2F528F" stroke-width="4.58333" stroke-miterlimit="8" fill="#DAE3F3" fill-rule="evenodd"/><path d="M1277.5 509.5 1502.5 509.5 1502.5 472.5 1576.5 546.5 1502.5 620.5 1502.5 583.5 1277.5 583.5Z" stroke="#2F528F" stroke-width="4.58333" stroke-miterlimit="8" fill="#DAE3F3" fill-rule="evenodd"/></g></svg>