<svg width="1843" height="759" xmlns="http://www.w3.org/2000/svg" xmlns:xlink="http://www.w3.org/1999/xlink" xml:space="preserve" overflow="hidden"><defs><clipPath id="clip0"><rect x="619" y="863" width="1843" height="759"/></clipPath></defs><g clip-path="url(#clip0)" transform="translate(-619 -863)"><rect x="702.5" y="1081.42" width="104.081" height="402.081" fill="#385723"/><path d="M806.581 1081.42 949.5 938.5 949.5 1340.58 806.581 1483.5Z" fill="#2D461C" fill-rule="evenodd"/><path d="M702.5 1081.42 845.419 938.5 949.5 938.5 806.581 1081.42Z" fill="#5F784E" fill-rule="evenodd"/><path d="M702.5 1081.42 845.419 938.5 949.5 938.5 949.5 1340.58 806.581 1483.5 702.5 1483.5ZM702.5 1081.42 806.581 1081.42 949.5 938.5M806.581 1081.42 806.581 1483.5" stroke="#385723" stroke-width="4.58333" stroke-miterlimit="8" fill="none" fill-rule="evenodd"/><rect x="1126.5" y="1126.87" width="201.628" height="396.628" fill="#4472C4"/><path d="M1328.13 1126.87 1476.5 978.5 1476.5 1375.13 1328.13 1523.5Z" fill="#375C9E" fill-rule="evenodd"/><path d="M1126.5 1126.87 1274.87 978.5 1476.5 978.5 1328.13 1126.87Z" fill="#698ED0" fill-rule="evenodd"/><path d="M1126.5 1126.87 1274.87 978.5 1476.5 978.5 1476.5 1375.13 1328.13 1523.5 1126.5 1523.5ZM1126.5 1126.87 1328.13 1126.87 1476.5 978.5M1328.13 1126.87 1328.13 1523.5" stroke="#4472C4" stroke-width="4.58333" stroke-miterlimit="8" fill="none" fill-rule="evenodd"/><rect x="1338.5" y="1122.36" width="1.13843" height="401.139" fill="#7F7F7F"/><path d="M1339.64 1122.36 1483.5 978.5 1483.5 1379.64 1339.64 1523.5Z" fill="#666666" fill-rule="evenodd"/><path d="M1338.5 1122.36 1482.36 978.5 1483.5 978.5 1339.64 1122.36Z" fill="#989898" fill-rule="evenodd"/><path d="M1338.5 1122.36 1482.36 978.5 1483.5 978.5 1483.5 1379.64 1339.64 1523.5 1338.5 1523.5ZM1338.5 1122.36 1339.64 1122.36 1483.5 978.5M1339.64 1122.36 1339.64 1523.5" stroke="#7F7F7F" stroke-width="4.58333" stroke-miterlimit="8" fill="none" fill-rule="evenodd"/><rect x="1347.5" y="1123.35" width="1.14612" height="400.146" fill="#70AD47"/><path d="M1348.65 1123.35 1493.5 978.5 1493.5 1378.65 1348.65 1523.5Z" fill="#5A8B39" fill-rule="evenodd"/><path d="M1347.5 1123.35 1492.35 978.5 1493.5 978.5 1348.65 1123.35Z" fill="#8CBD6B" fill-rule="evenodd"/><path d="M1347.5 1123.35 1492.35 978.5 1493.5 978.5 1493.5 1378.65 1348.65 1523.5 1347.5 1523.5ZM1347.5 1123.35 1348.65 1123.35 1493.5 978.5M1348.65 1123.35 1348.65 1523.5" stroke="#70AD47" stroke-width="4.58333" stroke-miterlimit="8" fill="none" fill-rule="evenodd"/><rect x="1652.5" y="1126.87" width="201.628" height="396.628" fill="#4472C4"/><path d="M1854.13 1126.87 2002.5 978.5 2002.5 1375.13 1854.13 1523.5Z" fill="#375C9E" fill-rule="evenodd"/><path d="M1652.5 1126.87 1800.87 978.5 2002.5 978.5 1854.13 1126.87Z" fill="#698ED0" fill-rule="evenodd"/><path d="M1652.5 1126.87 1800.87 978.5 2002.5 978.5 2002.5 1375.13 1854.13 1523.5 1652.5 1523.5ZM1652.5 1126.87 1854.13 1126.87 2002.5 978.5M1854.13 1126.87 1854.13 1523.5" stroke="#4472C4" stroke-width="4.58333" stroke-miterlimit="8" fill="none" fill-rule="evenodd"/><rect x="1864.5" y="1122.36" width="1.13843" height="401.139" fill="#7F7F7F"/><path d="M1865.64 1122.36 2009.5 978.5 2009.5 1379.64 1865.64 1523.5Z" fill="#666666" fill-rule="evenodd"/><path d="M1864.5 1122.36 2008.36 978.5 2009.5 978.5 1865.64 1122.36Z" fill="#989898" fill-rule="evenodd"/><path d="M1864.5 1122.36 2008.36 978.5 2009.5 978.5 2009.5 1379.64 1865.64 1523.5 1864.5 1523.5ZM1864.5 1122.36 1865.64 1122.36 2009.5 978.5M1865.64 1122.36 1865.64 1523.5" stroke="#7F7F7F" stroke-width="4.58333" stroke-miterlimit="8" fill="none" fill-rule="evenodd"/><path d="M1382.5 1213.75 1607 1213.75 1607 1176.5 1681.5 1251 1607 1325.5 1607 1288.25 1382.5 1288.25Z" stroke="#2F528F" stroke-width="4.58333" stroke-miterlimit="8" fill="#DAE3F3" fill-rule="evenodd"/><path d="M1907.5 1213.75 2132 1213.75 2132 1176.5 2206.5 1251 2132 1325.5 2132 1288.25 1907.5 1288.25Z" stroke="#2F528F" stroke-width="4.58333" stroke-miterlimit="8" fill="#DAE3F3" fill-rule="evenodd"/><path d="M2206.5 1256C2206.5 1194.97 2255.97 1145.5 2317 1145.5 2378.03 1145.5 2427.5 1194.97 2427.5 1256 2427.5 1317.03 2378.03 1366.5 2317 1366.5 2255.97 1366.5 2206.5 1317.03 2206.5 1256Z" fill="#4472C4" fill-rule="evenodd"/><path d="M2317 1145.5 2317 1366.5M2206.5 1256 2427.5 1256" stroke="#2F528F" stroke-width="4.58333" stroke-miterlimit="8" fill="none" fill-rule="evenodd"/><path d="M2206.5 1256C2206.5 1194.97 2255.97 1145.5 2317 1145.5 2378.03 1145.5 2427.5 1194.97 2427.5 1256 2427.5 1317.03 2378.03 1366.5 2317 1366.5 2255.97 1366.5 2206.5 1317.03 2206.5 1256Z" stroke="#2F528F" stroke-width="4.58333" stroke-miterlimit="8" fill="none" fill-rule="evenodd"/><path d="M1023.5 1218.5 1093 1218.5 1093 1181.5 1162.5 1255.5 1093 1329.5 1093 1292.5 1023.5 1292.5Z" stroke="#2F528F" stroke-width="4.58333" stroke-miterlimit="8" fill="#DAE3F3" fill-rule="evenodd"/><path d="M1086.2 1181.94 1086.2 922.635 2323.48 922.635 2323.48 1113.99 2310.88 1113.99 2310.88 928.937 2317.18 935.239 1092.5 935.239 1098.8 928.937 1098.8 1181.94ZM2336.09 1107.69 2317.18 1145.5 2298.27 1107.69Z" fill="#8FAADC"/><path d="M1011.5 981.336C1011.5 917.914 1062.91 866.5 1126.34 866.5L2343.66 866.5C2407.09 866.5 2458.5 917.914 2458.5 981.336L2458.5 1440.66C2458.5 1504.09 2407.09 1555.5 2343.66 1555.5L1126.34 1555.5C1062.91 1555.5 1011.5 1504.09 1011.5 1440.66Z" stroke="#000000" stroke-width="6.875" stroke-miterlimit="8" stroke-dasharray="27.5 20.625" fill="none" fill-rule="evenodd"/><text font-family="Arial,Arial_MSFontService,sans-serif" font-weight="700" font-size="83" transform="matrix(1 0 0 1 669.277 1553)">Residual</text></g></svg>