<svg width="2048" height="856" xmlns="http://www.w3.org/2000/svg" xmlns:xlink="http://www.w3.org/1999/xlink" xml:space="preserve" overflow="hidden"><defs><clipPath id="clip0"><rect x="147" y="1123" width="2048" height="856"/></clipPath></defs><g clip-path="url(#clip0)" transform="translate(-147 -1123)"><rect x="243.5" y="1407.42" width="104.081" height="403.081" fill="#FF0000"/><path d="M347.581 1407.42 490.5 1264.5 490.5 1667.58 347.581 1810.5Z" fill="#CD0000" fill-rule="evenodd"/><path d="M243.5 1407.42 386.419 1264.5 490.5 1264.5 347.581 1407.42Z" fill="#FF3232" fill-rule="evenodd"/><path d="M243.5 1407.42 386.419 1264.5 490.5 1264.5 490.5 1667.58 347.581 1810.5 243.5 1810.5ZM243.5 1407.42 347.581 1407.42 490.5 1264.5M347.581 1407.42 347.581 1810.5" stroke="#FF0000" stroke-width="4.58333" stroke-miterlimit="8" fill="none" fill-rule="evenodd"/><path d="M607.5 1475.45 755.448 1327.5 956.5 1327.5 956.5 1725.55 808.552 1873.5 607.5 1873.5ZM607.5 1475.45 808.552 1475.45 956.5 1327.5M808.552 1475.45 808.552 1873.5" stroke="#000000" stroke-width="4.58333" stroke-miterlimit="8" fill="none" fill-rule="evenodd"/><rect x="1800.5" y="1470.65" width="25.8448" height="402.845" fill="#FF0000"/><path d="M1826.34 1470.65 1969.5 1327.5 1969.5 1730.35 1826.34 1873.5Z" fill="#CD0000" fill-rule="evenodd"/><path d="M1800.5 1470.65 1943.66 1327.5 1969.5 1327.5 1826.34 1470.65Z" fill="#FF3232" fill-rule="evenodd"/><path d="M1800.5 1470.65 1943.66 1327.5 1969.5 1327.5 1969.5 1730.35 1826.34 1873.5 1800.5 1873.5ZM1800.5 1470.65 1826.34 1470.65 1969.5 1327.5M1826.34 1470.65 1826.34 1873.5" stroke="#000000" stroke-width="4.58333" stroke-miterlimit="8" fill="none" fill-rule="evenodd"/><rect x="1830.5" y="1469.81" width="25.692" height="403.692" fill="#843C0C"/><path d="M1856.19 1469.81 1998.5 1327.5 1998.5 1731.19 1856.19 1873.5Z" fill="#6A300A" fill-rule="evenodd"/><path d="M1830.5 1469.81 1972.81 1327.5 1998.5 1327.5 1856.19 1469.81Z" fill="#9C623C" fill-rule="evenodd"/><path d="M1830.5 1469.81 1972.81 1327.5 1998.5 1327.5 1998.5 1731.19 1856.19 1873.5 1830.5 1873.5ZM1830.5 1469.81 1856.19 1469.81 1998.5 1327.5M1856.19 1469.81 1856.19 1873.5" stroke="#000000" stroke-width="4.58333" stroke-miterlimit="8" fill="none" fill-rule="evenodd"/><rect x="1859.5" y="1470.65" width="25.8448" height="402.845" fill="#C55A11"/><path d="M1885.34 1470.65 2028.5 1327.5 2028.5 1730.35 1885.34 1873.5Z" fill="#9E480E" fill-rule="evenodd"/><path d="M1859.5 1470.65 2002.66 1327.5 2028.5 1327.5 1885.34 1470.65Z" fill="#D07A40" fill-rule="evenodd"/><path d="M1859.5 1470.65 2002.66 1327.5 2028.5 1327.5 2028.5 1730.35 1885.34 1873.5 1859.5 1873.5ZM1859.5 1470.65 1885.34 1470.65 2028.5 1327.5M1885.34 1470.65 1885.34 1873.5" stroke="#000000" stroke-width="4.58333" stroke-miterlimit="8" fill="none" fill-rule="evenodd"/><rect x="1888.5" y="1471.65" width="25.8448" height="402.845" fill="#F4B183"/><path d="M1914.34 1471.65 2057.5 1328.5 2057.5 1731.35 1914.34 1874.5Z" fill="#C48E69" fill-rule="evenodd"/><path d="M1888.5 1471.65 2031.66 1328.5 2057.5 1328.5 1914.34 1471.65Z" fill="#F6C09B" fill-rule="evenodd"/><path d="M1888.5 1471.65 2031.66 1328.5 2057.5 1328.5 2057.5 1731.35 1914.34 1874.5 1888.5 1874.5ZM1888.5 1471.65 1914.34 1471.65 2057.5 1328.5M1914.34 1471.65 1914.34 1874.5" stroke="#000000" stroke-width="4.58333" stroke-miterlimit="8" fill="none" fill-rule="evenodd"/><rect x="1918.5" y="1469.81" width="25.692" height="403.692" fill="#F8CBAD"/><path d="M1944.19 1469.81 2086.5 1327.5 2086.5 1731.19 1944.19 1873.5Z" fill="#C7A38B" fill-rule="evenodd"/><path d="M1918.5 1469.81 2060.81 1327.5 2086.5 1327.5 1944.19 1469.81Z" fill="#F9D5BD" fill-rule="evenodd"/><path d="M1918.5 1469.81 2060.81 1327.5 2086.5 1327.5 2086.5 1731.19 1944.19 1873.5 1918.5 1873.5ZM1918.5 1469.81 1944.19 1469.81 2086.5 1327.5M1944.19 1469.81 1944.19 1873.5" stroke="#000000" stroke-width="4.58333" stroke-miterlimit="8" fill="none" fill-rule="evenodd"/><rect x="1947.5" y="1470.81" width="25.692" height="402.692" fill="#FBE5D6"/><path d="M1973.19 1470.81 2115.5 1328.5 2115.5 1731.19 1973.19 1873.5Z" fill="#CAB8AC" fill-rule="evenodd"/><path d="M1947.5 1470.81 2089.81 1328.5 2115.5 1328.5 1973.19 1470.81Z" fill="#FCEADE" fill-rule="evenodd"/><path d="M1947.5 1470.81 2089.81 1328.5 2115.5 1328.5 2115.5 1731.19 1973.19 1873.5 1947.5 1873.5ZM1947.5 1470.81 1973.19 1470.81 2115.5 1328.5M1973.19 1470.81 1973.19 1873.5" stroke="#000000" stroke-width="4.58333" stroke-miterlimit="8" fill="none" fill-rule="evenodd"/><rect x="1976.5" y="1470.81" width="25.692" height="402.692" fill="#525252"/><path d="M2002.19 1470.81 2144.5 1328.5 2144.5 1731.19 2002.19 1873.5Z" fill="#424242" fill-rule="evenodd"/><path d="M1976.5 1470.81 2118.81 1328.5 2144.5 1328.5 2002.19 1470.81Z" fill="#747474" fill-rule="evenodd"/><path d="M1976.5 1470.81 2118.81 1328.5 2144.5 1328.5 2144.5 1731.19 2002.19 1873.5 1976.5 1873.5ZM1976.5 1470.81 2002.19 1470.81 2144.5 1328.5M2002.19 1470.81 2002.19 1873.5" stroke="#000000" stroke-width="4.58333" stroke-miterlimit="8" fill="none" fill-rule="evenodd"/><rect x="1060.5" y="1163.5" width="33" height="33" stroke="#000000" stroke-width="4.58333" stroke-miterlimit="8" fill="#FFFFFF"/><rect x="1093.5" y="1163.5" width="33" height="33" stroke="#000000" stroke-width="4.58333" stroke-miterlimit="8" fill="#FFFFFF"/><rect x="1126.5" y="1163.5" width="33" height="33" stroke="#000000" stroke-width="4.58333" stroke-miterlimit="8" fill="#FFFFFF"/><rect x="1159.5" y="1163.5" width="33" height="33" stroke="#000000" stroke-width="4.58333" stroke-miterlimit="8" fill="#FFFFFF"/><rect x="1192.5" y="1163.5" width="33" height="33" stroke="#000000" stroke-width="4.58333" stroke-miterlimit="8" fill="#FFFFFF"/><rect x="1225.5" y="1163.5" width="33" height="33" stroke="#000000" stroke-width="4.58333" stroke-miterlimit="8" fill="#FFFFFF"/><rect x="1258.5" y="1163.5" width="33" height="33" stroke="#000000" stroke-width="4.58333" stroke-miterlimit="8" fill="#FFFFFF"/><rect x="1549.5" y="1164.5" width="33" height="33" stroke="#000000" stroke-width="4.58333" stroke-miterlimit="8" fill="#FF0000"/><rect x="1582.5" y="1164.5" width="33" height="33" stroke="#000000" stroke-width="4.58333" stroke-miterlimit="8" fill="#843C0C"/><rect x="1615.5" y="1164.5" width="33" height="33" stroke="#000000" stroke-width="4.58333" stroke-miterlimit="8" fill="#C55A11"/><rect x="1648.5" y="1164.5" width="33" height="33" stroke="#000000" stroke-width="4.58333" stroke-miterlimit="8" fill="#F4B183"/><rect x="1681.5" y="1164.5" width="33" height="33" stroke="#000000" stroke-width="4.58333" stroke-miterlimit="8" fill="#F8CBAD"/><rect x="1714.5" y="1164.5" width="33" height="33" stroke="#000000" stroke-width="4.58333" stroke-miterlimit="8" fill="#FBE5D6"/><rect x="1747.5" y="1164.5" width="33" height="33" stroke="#000000" stroke-width="4.58333" stroke-miterlimit="8" fill="#525252"/><path d="M3.61846-2.81313 148.466 183.501 141.229 189.127-3.61846 2.81313ZM152.89 174.256 158.913 204.407 131.179 191.135Z" fill="#4472C4" transform="matrix(1 0 0 -1 901.5 1384.91)"/><path d="M956.5 1521.92 1777.52 1521.92 1777.52 1531.08 956.5 1531.08ZM1772.94 1512.75 1800.44 1526.5 1772.94 1540.25Z" fill="#4472C4"/><path d="M1291.52 1175.92 1526.51 1176.83 1526.48 1186 1291.48 1185.08ZM1521.97 1167.65 1549.41 1181.51 1521.86 1195.15Z" fill="#4472C4"/><path d="M1784.55 1179.35 1882.25 1363.51 1874.15 1367.81 1776.45 1183.65ZM1888.2 1355.17 1888.94 1385.91 1863.91 1368.06Z" fill="#4472C4"/><path d="M892.726 1213.78 922.289 1213.78 920.07 1223.85 916.07 1223.85C915.966 1221.87 915.778 1220.48 915.507 1219.69 915.237 1218.9 914.82 1218.32 914.257 1217.97 913.695 1217.62 912.903 1217.44 911.882 1217.44L904.82 1217.44 901.382 1233.06 905.57 1233.06C906.799 1233.06 907.794 1232.67 908.554 1231.88 909.315 1231.09 910.08 1229.8 910.851 1228.03L914.289 1228.03 911.007 1241.97 907.789 1241.97C907.789 1240.51 907.711 1239.43 907.554 1238.72 907.398 1238.01 907.122 1237.5 906.726 1237.19 906.33 1236.88 905.716 1236.72 904.882 1236.72L900.601 1236.72 898.101 1248C897.955 1248.67 897.851 1249.25 897.789 1249.74 897.726 1250.23 897.695 1250.87 897.695 1251.66 897.695 1252.62 897.94 1253.29 898.429 1253.69 898.919 1254.09 899.684 1254.31 900.726 1254.38L900.289 1256.44 884.132 1256.44 884.57 1254.38C885.757 1254.04 886.632 1253.46 887.195 1252.63 887.757 1251.79 888.289 1250.25 888.789 1248L894.476 1222.22C894.747 1220.99 894.882 1219.77 894.882 1218.56 894.882 1217.69 894.679 1217.05 894.273 1216.64 893.867 1216.24 893.205 1215.97 892.289 1215.85Z" fill-rule="evenodd"/><text fill="#000000" fill-opacity="0" font-family="Arial,Arial_MSFontService,sans-serif" font-size="42.6562" x="884.132" y="1251.11">𝑭</text><path d="M962.711 1248.78C961.273 1248.78 960.011 1249.48 958.925 1250.89 957.839 1252.3 956.955 1254.21 956.274 1256.64 955.593 1259.06 955.253 1261.25 955.253 1263.19 955.253 1264.31 955.417 1265.14 955.746 1265.69 956.075 1266.24 956.584 1266.52 957.273 1266.52 958.282 1266.52 959.311 1266.02 960.359 1265.04 961.407 1264.05 962.253 1262.89 962.895 1261.56 963.538 1260.23 964.111 1258.41 964.616 1256.1L964.8 1255.25C965.045 1254.12 965.167 1253 965.167 1251.9 965.167 1250.86 964.976 1250.08 964.593 1249.56 964.211 1249.04 963.584 1248.78 962.711 1248.78ZM962.436 1246.39C964.716 1246.39 966.659 1246.94 968.265 1248.04L970.331 1246.39 972.901 1246.76 967.072 1273.29C966.904 1274.04 966.796 1274.6 966.751 1274.96 966.705 1275.33 966.682 1275.64 966.682 1275.9 966.682 1276.58 966.85 1277.05 967.187 1277.33 967.523 1277.6 968.12 1277.79 968.977 1277.9L968.724 1279.42 959.2 1279.42 962.941 1265.3 962.643 1265.21C961.388 1266.8 960.145 1267.98 958.913 1268.76 957.682 1269.53 956.209 1269.91 954.496 1269.91 952.752 1269.91 951.401 1269.28 950.445 1268.02 949.489 1266.76 949.011 1264.94 949.011 1262.57 949.011 1260.51 949.309 1258.46 949.906 1256.42 950.503 1254.39 951.359 1252.63 952.476 1251.15 953.593 1249.68 954.997 1248.51 956.687 1247.67 958.378 1246.82 960.294 1246.39 962.436 1246.39ZM938.174 1246.39C939.352 1246.39 940.618 1246.49 941.972 1246.68 943.326 1246.87 944.561 1247.13 945.678 1247.45L944.485 1252.93 941.57 1252.93C941.433 1251.51 941.069 1250.46 940.48 1249.79 939.891 1249.12 939.046 1248.78 937.944 1248.78 936.919 1248.78 936.097 1249.04 935.477 1249.57 934.858 1250.1 934.548 1250.81 934.548 1251.72 934.548 1252.51 934.808 1253.21 935.328 1253.8 935.848 1254.4 936.858 1255.15 938.357 1256.05 939.979 1257.02 941.142 1258.01 941.846 1259.04 942.55 1260.06 942.901 1261.26 942.901 1262.64 942.901 1264.2 942.484 1265.53 941.651 1266.63 940.817 1267.73 939.677 1268.55 938.231 1269.09 936.785 1269.62 935.137 1269.89 933.286 1269.89 930.318 1269.89 927.472 1269.52 924.749 1268.79L926.034 1263.1 928.948 1263.1C929.025 1264.48 929.38 1265.55 930.015 1266.33 930.65 1267.11 931.626 1267.51 932.941 1267.51 934.15 1267.51 935.083 1267.21 935.741 1266.62 936.399 1266.03 936.728 1265.2 936.728 1264.13 936.728 1263.49 936.621 1262.95 936.407 1262.5 936.193 1262.06 935.841 1261.63 935.351 1261.21 934.862 1260.78 934.066 1260.24 932.964 1259.56 931.434 1258.65 930.321 1257.69 929.625 1256.71 928.929 1255.72 928.581 1254.62 928.581 1253.39 928.581 1251.14 929.423 1249.41 931.106 1248.2 932.788 1247 935.145 1246.39 938.174 1246.39Z" fill-rule="evenodd"/><text fill="#000000" fill-opacity="0" font-family="Arial,Arial_MSFontService,sans-serif" font-size="33.0239" x="924.749" y="1275.29">𝒔𝒒</text><path d="M1002.35 1211.28 1003.2 1213.69C998.322 1215.29 994.713 1218.42 992.369 1223.08 990.025 1227.74 988.853 1233.59 988.853 1240.63 988.853 1247.92 990.025 1253.93 992.369 1258.66 994.713 1263.39 998.291 1266.55 1003.1 1268.16L1002.35 1270.56C996.249 1268.96 991.572 1265.51 988.322 1260.2 985.072 1254.9 983.447 1248.48 983.447 1240.94 983.447 1233.42 985.077 1227 988.338 1221.67 991.598 1216.35 996.27 1212.89 1002.35 1211.28Z" fill-rule="evenodd"/><text fill="#000000" fill-opacity="0" font-family="Arial,Arial_MSFontService,sans-serif" font-size="59.2812" x="983.447" y="1263.15">(</text><path d="M1018.49 1228.66C1020.34 1228.66 1021.98 1229.06 1023.41 1229.86 1024.84 1230.66 1025.94 1231.78 1026.71 1233.22 1027.48 1234.66 1027.86 1236.29 1027.86 1238.13 1027.86 1239.94 1027.45 1241.57 1026.63 1243.03 1025.81 1244.49 1024.66 1245.63 1023.19 1246.45 1021.72 1247.28 1020.07 1247.69 1018.24 1247.69 1016.38 1247.69 1014.74 1247.28 1013.32 1246.45 1011.89 1245.63 1010.79 1244.49 1010 1243.02 1009.22 1241.55 1008.83 1239.91 1008.83 1238.1 1008.83 1236.39 1009.24 1234.81 1010.07 1233.38 1010.89 1231.94 1012.05 1230.79 1013.54 1229.94 1015.03 1229.09 1016.68 1228.66 1018.49 1228.66Z" fill-rule="evenodd"/><text fill="#000000" fill-opacity="0" font-family="Arial,Arial_MSFontService,sans-serif" font-size="19.0312" x="1008.83" y="1245.31">•</text><path d="M1034.85 1211.28C1040.94 1212.89 1045.61 1216.35 1048.87 1221.67 1052.13 1227 1053.76 1233.42 1053.76 1240.94 1053.76 1248.48 1052.13 1254.9 1048.88 1260.2 1045.63 1265.51 1040.96 1268.96 1034.85 1270.56L1034.1 1268.16C1038.92 1266.55 1042.49 1263.39 1044.84 1258.66 1047.18 1253.93 1048.35 1247.92 1048.35 1240.63 1048.35 1233.59 1047.19 1227.74 1044.85 1223.08 1042.52 1218.42 1038.91 1215.29 1034.01 1213.69Z" fill-rule="evenodd"/><text fill="#000000" fill-opacity="0" font-family="Arial,Arial_MSFontService,sans-serif" font-size="59.2812" x="1034.01" y="1263.15">)</text><path d="M1306.96 1216.61 1336.52 1216.61 1334.3 1226.67 1330.3 1226.67C1330.2 1224.69 1330.01 1223.31 1329.74 1222.52 1329.47 1221.73 1329.05 1221.15 1328.49 1220.8 1327.93 1220.44 1327.13 1220.27 1326.11 1220.27L1319.05 1220.27 1315.61 1235.89 1319.8 1235.89C1321.03 1235.89 1322.02 1235.5 1322.78 1234.7 1323.54 1233.91 1324.31 1232.63 1325.08 1230.86L1328.52 1230.86 1325.24 1244.8 1322.02 1244.8C1322.02 1243.34 1321.94 1242.26 1321.78 1241.55 1321.63 1240.84 1321.35 1240.33 1320.96 1240.02 1320.56 1239.7 1319.95 1239.55 1319.11 1239.55L1314.83 1239.55 1312.33 1250.83C1312.19 1251.5 1312.08 1252.07 1312.02 1252.56 1311.96 1253.05 1311.93 1253.69 1311.93 1254.49 1311.93 1255.44 1312.17 1256.12 1312.66 1256.52 1313.15 1256.91 1313.91 1257.14 1314.96 1257.2L1314.52 1259.27 1298.36 1259.27 1298.8 1257.2C1299.99 1256.87 1300.86 1256.29 1301.43 1255.45 1301.99 1254.62 1302.52 1253.08 1303.02 1250.83L1308.71 1225.05C1308.98 1223.82 1309.11 1222.6 1309.11 1221.39 1309.11 1220.52 1308.91 1219.88 1308.5 1219.47 1308.1 1219.06 1307.44 1218.8 1306.52 1218.67Z" fill-rule="evenodd"/><text fill="#000000" fill-opacity="0" font-family="Arial,Arial_MSFontService,sans-serif" font-size="42.6562" x="1298.36" y="1253.93">𝑭</text><path d="M1353.87 1251.61C1352.45 1251.61 1351.17 1252.31 1350.03 1253.72 1348.89 1255.13 1347.95 1257.18 1347.22 1259.87 1350.03 1259.79 1352.19 1259.25 1353.68 1258.25 1355.17 1257.25 1355.92 1255.83 1355.92 1253.99 1355.92 1253.21 1355.74 1252.62 1355.38 1252.21 1355.02 1251.81 1354.52 1251.61 1353.87 1251.61ZM1374.41 1249.22C1375.63 1249.22 1376.57 1249.4 1377.21 1249.77 1377.85 1250.14 1378.38 1250.78 1378.79 1251.69 1379.21 1252.6 1379.6 1254.05 1379.96 1256.06L1380.19 1256.06C1381.33 1254.47 1382.21 1253.27 1382.83 1252.47 1383.46 1251.66 1384.04 1251.02 1384.58 1250.54 1385.11 1250.06 1385.63 1249.72 1386.14 1249.52 1386.64 1249.32 1387.24 1249.22 1387.93 1249.22 1388.69 1249.22 1389.47 1249.36 1390.25 1249.63L1389.17 1254.59 1387.1 1254.59C1387.03 1253.95 1386.74 1253.63 1386.25 1253.63 1386.04 1253.63 1385.81 1253.68 1385.58 1253.79 1385.34 1253.89 1385.02 1254.13 1384.63 1254.51 1384.24 1254.88 1383.76 1255.43 1383.18 1256.14 1382.6 1256.85 1381.72 1257.93 1380.56 1259.39 1381.1 1262.61 1381.54 1264.93 1381.88 1266.33 1382.23 1267.73 1382.58 1268.63 1382.95 1269.05 1383.16 1269.28 1383.42 1269.39 1383.73 1269.39 1384.11 1269.39 1384.47 1269.24 1384.8 1268.94 1385.12 1268.65 1385.55 1267.98 1386.07 1266.94L1388.16 1267.9C1387.27 1269.52 1386.26 1270.73 1385.14 1271.53 1384.02 1272.32 1382.7 1272.72 1381.18 1272.72 1380.25 1272.72 1379.5 1272.6 1378.94 1272.36 1378.38 1272.13 1377.91 1271.73 1377.52 1271.18 1377.13 1270.63 1376.79 1269.85 1376.49 1268.85 1376.19 1267.85 1375.91 1266.54 1375.65 1264.92L1375.42 1264.92C1374.12 1266.78 1373.08 1268.21 1372.3 1269.19 1371.52 1270.16 1370.85 1270.9 1370.29 1271.39 1369.73 1271.88 1369.2 1272.22 1368.69 1272.42 1368.17 1272.62 1367.56 1272.72 1366.84 1272.72 1366.5 1272.72 1366.09 1272.68 1365.61 1272.59 1365.13 1272.51 1364.76 1272.42 1364.52 1272.33L1365.6 1267.35 1367.66 1267.35C1367.68 1267.67 1367.76 1267.91 1367.9 1268.07 1368.05 1268.23 1368.24 1268.31 1368.47 1268.31 1368.74 1268.31 1369 1268.26 1369.24 1268.14 1369.47 1268.03 1369.8 1267.77 1370.22 1267.37 1370.64 1266.97 1371.18 1266.39 1371.82 1265.62 1372.46 1264.84 1373.55 1263.49 1375.08 1261.54 1374.76 1259.74 1374.45 1258.18 1374.17 1256.87 1373.89 1255.57 1373.63 1254.62 1373.4 1254.03 1373.17 1253.44 1372.95 1253.04 1372.75 1252.85 1372.54 1252.65 1372.31 1252.55 1372.05 1252.55 1371.74 1252.55 1371.47 1252.63 1371.24 1252.79 1371.01 1252.95 1370.77 1253.21 1370.52 1253.57 1370.27 1253.93 1370 1254.41 1369.71 1255L1367.62 1254.04C1368.51 1252.42 1369.5 1251.21 1370.61 1250.41 1371.72 1249.62 1372.99 1249.22 1374.41 1249.22ZM1354.45 1249.22C1359.13 1249.22 1361.47 1250.91 1361.47 1254.29 1361.47 1255.45 1361.24 1256.48 1360.77 1257.37 1360.3 1258.25 1359.53 1259.06 1358.44 1259.78 1357.35 1260.5 1355.82 1261.08 1353.84 1261.52 1351.86 1261.96 1349.47 1262.22 1346.67 1262.28 1346.47 1263.18 1346.37 1264.11 1346.37 1265.08 1346.37 1266.5 1346.67 1267.57 1347.26 1268.29 1347.86 1269.01 1348.76 1269.37 1349.97 1269.37 1351.32 1269.37 1352.53 1269.1 1353.62 1268.55 1354.71 1268.01 1355.98 1267.04 1357.45 1265.65L1359.38 1267.58C1357.84 1269.32 1356.17 1270.62 1354.39 1271.46 1352.61 1272.3 1350.68 1272.72 1348.59 1272.72 1346.8 1272.72 1345.28 1272.41 1344.03 1271.78 1342.77 1271.15 1341.83 1270.22 1341.19 1268.99 1340.56 1267.76 1340.24 1266.29 1340.24 1264.57 1340.24 1263.78 1340.35 1262.76 1340.56 1261.52 1340.85 1259.84 1341.3 1258.34 1341.89 1257.02 1342.64 1255.4 1343.62 1254.01 1344.83 1252.85 1346.04 1251.68 1347.46 1250.79 1349.09 1250.16 1350.72 1249.53 1352.5 1249.22 1354.45 1249.22Z" fill-rule="evenodd"/><text fill="#000000" fill-opacity="0" font-family="Arial,Arial_MSFontService,sans-serif" font-size="23.5" x="1340.24" y="1269.78">𝒆𝒙</text><path d="M1417.73 1214.11 1418.57 1216.52C1413.7 1218.12 1410.09 1221.25 1407.74 1225.91 1405.4 1230.56 1404.23 1236.41 1404.23 1243.45 1404.23 1250.75 1405.4 1256.76 1407.74 1261.49 1410.09 1266.21 1413.67 1269.38 1418.48 1270.99L1417.73 1273.39C1411.62 1271.79 1406.95 1268.33 1403.7 1263.03 1400.45 1257.73 1398.82 1251.31 1398.82 1243.77 1398.82 1236.25 1400.45 1229.82 1403.71 1224.5 1406.97 1219.18 1411.65 1215.71 1417.73 1214.11Z" fill-rule="evenodd"/><text fill="#000000" fill-opacity="0" font-family="Arial,Arial_MSFontService,sans-serif" font-size="59.2812" x="1398.82" y="1265.98">(</text><path d="M1433.86 1231.49C1435.72 1231.49 1437.36 1231.89 1438.79 1232.69 1440.21 1233.49 1441.31 1234.61 1442.08 1236.05 1442.85 1237.49 1443.24 1239.12 1443.24 1240.95 1443.24 1242.77 1442.83 1244.4 1442.01 1245.86 1441.18 1247.32 1440.04 1248.46 1438.57 1249.28 1437.1 1250.11 1435.45 1250.52 1433.61 1250.52 1431.76 1250.52 1430.12 1250.11 1428.69 1249.28 1427.27 1248.46 1426.16 1247.31 1425.38 1245.85 1424.6 1244.38 1424.21 1242.74 1424.21 1240.92 1424.21 1239.21 1424.62 1237.64 1425.44 1236.2 1426.27 1234.77 1427.42 1233.62 1428.91 1232.77 1430.4 1231.91 1432.05 1231.49 1433.86 1231.49Z" fill-rule="evenodd"/><text fill="#000000" fill-opacity="0" font-family="Arial,Arial_MSFontService,sans-serif" font-size="19.0312" x="1424.21" y="1248.14">•</text><path d="M1452.39 1252.02 1457.85 1252.02C1458.15 1253.48 1458.29 1254.91 1458.29 1256.33 1458.29 1257.79 1458.04 1259.12 1457.54 1260.33 1457.04 1261.54 1456.24 1262.74 1455.15 1263.94 1454.06 1265.14 1452.55 1266.45 1450.64 1267.89L1448.95 1265.99C1450.01 1264.99 1450.78 1264.08 1451.26 1263.28 1451.74 1262.48 1452.08 1261.57 1452.29 1260.55 1452.5 1259.53 1452.6 1258.25 1452.6 1256.7 1452.6 1255.12 1452.53 1253.56 1452.39 1252.02Z" fill-rule="evenodd"/><text fill="#000000" fill-opacity="0" font-family="Arial,Arial_MSFontService,sans-serif" font-size="15.875" x="1448.95" y="1265.91">,</text><path d="M1475.83 1216.61 1491.83 1216.61 1491.36 1218.67C1490.71 1218.76 1490.18 1218.9 1489.76 1219.11 1489.35 1219.32 1489.01 1219.61 1488.75 1219.97 1488.49 1220.33 1488.3 1220.79 1488.17 1221.33 1488.05 1221.87 1487.98 1222.37 1487.97 1222.83 1487.96 1223.29 1487.94 1224.6 1487.92 1226.77L1487.8 1238.52C1487.78 1240.58 1487.67 1243.9 1487.48 1248.49L1487.89 1248.49C1488.6 1246.88 1490.12 1243.75 1492.45 1239.08L1503.73 1216.61 1510.58 1216.61 1510.61 1237.08 1510.64 1239.86C1510.64 1242.78 1510.57 1245.65 1510.42 1248.49L1510.83 1248.49C1511.81 1246.44 1513.57 1242.91 1516.11 1237.89L1520.76 1228.8C1521.68 1227.03 1522.36 1225.58 1522.8 1224.45 1523.23 1223.33 1523.45 1222.39 1523.45 1221.64 1523.45 1221.02 1523.38 1220.52 1523.23 1220.14 1523.09 1219.77 1522.82 1219.45 1522.42 1219.2 1522.03 1218.95 1521.48 1218.78 1520.8 1218.67L1521.26 1216.61 1534.55 1216.61 1534.08 1218.67C1533.39 1218.8 1532.78 1219.05 1532.25 1219.42 1531.72 1219.8 1531.21 1220.3 1530.73 1220.92 1530.25 1221.55 1529.79 1222.26 1529.33 1223.06 1528.87 1223.87 1528.25 1224.99 1527.48 1226.42L1509.58 1259.49 1502.08 1259.49 1502.01 1239.36 1502.01 1234.05C1502.01 1232.69 1502.03 1231.28 1502.05 1229.8L1501.64 1229.8C1500.95 1231.34 1500.26 1232.78 1499.58 1234.11L1486.83 1259.49 1479.33 1259.49 1478.7 1226.24C1478.66 1224.26 1478.51 1222.76 1478.25 1221.74 1477.99 1220.71 1477.64 1219.98 1477.2 1219.53 1476.76 1219.08 1476.15 1218.8 1475.36 1218.67Z" fill-rule="evenodd"/><text fill="#000000" fill-opacity="0" font-family="Arial,Arial_MSFontService,sans-serif" font-size="42.875" x="1475.36" y="1254.13">𝑾</text><path d="M1537.13 1214.11C1543.21 1215.71 1547.88 1219.18 1551.14 1224.5 1554.41 1229.82 1556.04 1236.25 1556.04 1243.77 1556.04 1251.31 1554.41 1257.73 1551.16 1263.03 1547.91 1268.33 1543.23 1271.79 1537.13 1273.39L1536.38 1270.99C1541.19 1269.38 1544.77 1266.21 1547.11 1261.49 1549.46 1256.76 1550.63 1250.75 1550.63 1243.45 1550.63 1236.41 1549.46 1230.56 1547.13 1225.91 1544.8 1221.25 1541.18 1218.12 1536.29 1216.52Z" fill-rule="evenodd"/><text fill="#000000" fill-opacity="0" font-family="Arial,Arial_MSFontService,sans-serif" font-size="59.2812" x="1536.29" y="1265.98">)</text><path d="M1572.96 1396.96 1602.53 1396.96 1600.31 1407.02 1596.31 1407.02C1596.2 1405.04 1596.01 1403.66 1595.74 1402.87 1595.47 1402.08 1595.06 1401.5 1594.49 1401.15 1593.93 1400.79 1593.14 1400.62 1592.12 1400.62L1585.06 1400.62 1581.62 1416.24 1585.81 1416.24C1587.04 1416.24 1588.03 1415.85 1588.79 1415.06 1589.55 1414.26 1590.32 1412.98 1591.09 1411.21L1594.53 1411.21 1591.24 1425.15 1588.03 1425.15C1588.03 1423.69 1587.95 1422.61 1587.79 1421.9 1587.63 1421.19 1587.36 1420.68 1586.96 1420.37 1586.57 1420.06 1585.95 1419.9 1585.12 1419.9L1580.84 1419.9 1578.34 1431.18C1578.19 1431.85 1578.09 1432.42 1578.03 1432.91 1577.96 1433.4 1577.93 1434.04 1577.93 1434.84 1577.93 1435.79 1578.18 1436.47 1578.67 1436.87 1579.16 1437.26 1579.92 1437.49 1580.96 1437.56L1580.53 1439.62 1564.37 1439.62 1564.81 1437.56C1565.99 1437.22 1566.87 1436.64 1567.43 1435.81 1567.99 1434.97 1568.53 1433.43 1569.03 1431.18L1574.71 1405.4C1574.98 1404.17 1575.12 1402.95 1575.12 1401.74 1575.12 1400.87 1574.92 1400.23 1574.51 1399.82 1574.1 1399.41 1573.44 1399.15 1572.53 1399.02Z" fill-rule="evenodd"/><text fill="#000000" fill-opacity="0" font-family="Arial,Arial_MSFontService,sans-serif" font-size="42.6562" x="1564.37" y="1434.29">𝑭</text><path d="M1712.88 1431.96C1711.46 1431.96 1710.17 1432.66 1709.04 1434.07 1707.9 1435.48 1706.96 1437.53 1706.22 1440.22 1709.04 1440.14 1711.19 1439.6 1712.68 1438.6 1714.18 1437.6 1714.92 1436.18 1714.92 1434.34 1714.92 1433.56 1714.74 1432.97 1714.38 1432.56 1714.02 1432.16 1713.52 1431.96 1712.88 1431.96ZM1666.95 1431.96C1665.53 1431.96 1664.26 1432.67 1663.16 1434.1 1662.06 1435.53 1661.17 1437.46 1660.5 1439.87 1659.83 1442.29 1659.49 1444.46 1659.49 1446.37 1659.49 1447.49 1659.65 1448.32 1659.98 1448.87 1660.31 1449.42 1660.82 1449.7 1661.51 1449.7 1662.52 1449.7 1663.55 1449.2 1664.6 1448.22 1665.64 1447.23 1666.49 1446.07 1667.13 1444.74 1667.77 1443.41 1668.35 1441.59 1668.85 1439.28L1669.04 1438.43C1669.28 1437.3 1669.4 1436.16 1669.4 1435.03 1669.4 1434.02 1669.21 1433.26 1668.83 1432.74 1668.45 1432.22 1667.82 1431.96 1666.95 1431.96ZM1713.45 1429.57C1718.13 1429.57 1720.48 1431.26 1720.48 1434.64 1720.48 1435.8 1720.24 1436.83 1719.78 1437.72 1719.31 1438.6 1718.53 1439.41 1717.45 1440.13 1716.36 1440.85 1714.83 1441.43 1712.84 1441.87 1710.86 1442.31 1708.47 1442.57 1705.67 1442.63 1705.47 1443.53 1705.37 1444.46 1705.37 1445.43 1705.37 1446.85 1705.67 1447.92 1706.27 1448.64 1706.87 1449.36 1707.77 1449.72 1708.98 1449.72 1710.32 1449.72 1711.54 1449.45 1712.63 1448.9 1713.71 1448.36 1714.99 1447.39 1716.46 1446L1718.39 1447.93C1716.84 1449.67 1715.18 1450.97 1713.4 1451.81 1711.61 1452.65 1709.68 1453.07 1707.6 1453.07 1705.81 1453.07 1704.29 1452.76 1703.03 1452.13 1701.78 1451.5 1700.83 1450.57 1700.2 1449.34 1699.56 1448.11 1699.25 1446.64 1699.25 1444.92 1699.25 1444.13 1699.35 1443.11 1699.57 1441.87 1699.86 1440.19 1700.3 1438.69 1700.9 1437.37 1701.65 1435.75 1702.63 1434.36 1703.84 1433.2 1705.05 1432.03 1706.46 1431.14 1708.09 1430.51 1709.72 1429.88 1711.51 1429.57 1713.45 1429.57ZM1666.67 1429.57C1668.95 1429.57 1670.9 1430.12 1672.5 1431.22L1674.73 1429.57 1677.3 1429.94 1673.58 1445.54C1673.35 1446.51 1673.24 1447.38 1673.24 1448.16 1673.24 1448.66 1673.32 1449.05 1673.49 1449.33 1673.66 1449.6 1673.95 1449.74 1674.36 1449.74 1674.83 1449.74 1675.35 1449.53 1675.9 1449.1 1676.45 1448.67 1677.09 1448.04 1677.83 1447.2L1679.48 1448.85C1677.87 1450.45 1676.49 1451.56 1675.32 1452.16 1674.16 1452.77 1672.94 1453.07 1671.65 1453.07 1670.37 1453.07 1669.35 1452.71 1668.6 1452 1667.85 1451.29 1667.48 1450.35 1667.48 1449.19 1667.48 1448.81 1667.52 1448.44 1667.61 1448.09L1667.29 1448.04C1666.18 1449.36 1665.22 1450.35 1664.41 1451.02 1663.61 1451.68 1662.76 1452.19 1661.85 1452.54 1660.95 1452.89 1659.95 1453.07 1658.85 1453.07 1657.01 1453.07 1655.62 1452.45 1654.67 1451.2 1653.72 1449.95 1653.25 1448.14 1653.25 1445.75 1653.25 1443.68 1653.55 1441.63 1654.14 1439.6 1654.74 1437.56 1655.6 1435.81 1656.71 1434.33 1657.83 1432.86 1659.23 1431.69 1660.92 1430.84 1662.61 1429.99 1664.53 1429.57 1666.67 1429.57ZM1643.27 1429.57C1644.29 1429.57 1645.4 1429.65 1646.6 1429.81 1647.79 1429.97 1648.85 1430.2 1649.76 1430.49L1648.48 1436.09 1644.35 1436.09C1644.38 1435.77 1644.39 1435.44 1644.39 1435.1 1644.39 1434 1644.23 1433.2 1643.89 1432.7 1643.55 1432.21 1643.06 1431.96 1642.4 1431.96 1641.27 1431.96 1640.19 1432.61 1639.16 1433.91 1638.14 1435.21 1637.28 1437.01 1636.59 1439.32 1635.9 1441.63 1635.56 1443.66 1635.56 1445.41 1635.56 1448.28 1636.61 1449.72 1638.7 1449.72 1639.76 1449.72 1640.76 1449.48 1641.7 1449.01 1642.64 1448.53 1643.71 1447.74 1644.9 1446.62L1646.76 1448.62C1645.15 1450.22 1643.54 1451.37 1641.94 1452.05 1640.33 1452.73 1638.56 1453.07 1636.64 1453.07 1634.3 1453.07 1632.48 1452.34 1631.19 1450.88 1629.89 1449.42 1629.25 1447.39 1629.25 1444.79 1629.25 1442.35 1629.79 1439.87 1630.89 1437.35 1631.98 1434.83 1633.6 1432.9 1635.74 1431.57 1637.88 1430.24 1640.39 1429.57 1643.27 1429.57ZM1618.41 1429.57C1619.59 1429.57 1620.85 1429.67 1622.21 1429.86 1623.56 1430.05 1624.8 1430.3 1625.91 1430.63L1624.72 1436.11 1621.81 1436.11C1621.67 1434.69 1621.31 1433.64 1620.72 1432.97 1620.13 1432.29 1619.28 1431.96 1618.18 1431.96 1617.16 1431.96 1616.33 1432.22 1615.71 1432.75 1615.09 1433.28 1614.78 1433.99 1614.78 1434.89 1614.78 1435.69 1615.04 1436.39 1615.56 1436.98 1616.08 1437.58 1617.09 1438.33 1618.59 1439.23 1620.22 1440.2 1621.38 1441.19 1622.08 1442.22 1622.79 1443.24 1623.14 1444.44 1623.14 1445.82 1623.14 1447.38 1622.72 1448.71 1621.89 1449.81 1621.05 1450.91 1619.91 1451.73 1618.47 1452.27 1617.02 1452.8 1615.37 1453.07 1613.52 1453.07 1610.55 1453.07 1607.71 1452.7 1604.99 1451.97L1606.27 1446.28 1609.18 1446.28C1609.26 1447.65 1609.62 1448.73 1610.25 1449.51 1610.89 1450.29 1611.86 1450.68 1613.18 1450.68 1614.39 1450.68 1615.32 1450.39 1615.98 1449.8 1616.64 1449.21 1616.96 1448.38 1616.96 1447.31 1616.96 1446.67 1616.86 1446.12 1616.64 1445.68 1616.43 1445.24 1616.08 1444.8 1615.59 1444.38 1615.1 1443.96 1614.3 1443.42 1613.2 1442.74 1611.67 1441.82 1610.56 1440.87 1609.86 1439.89 1609.17 1438.9 1608.82 1437.79 1608.82 1436.57 1608.82 1434.32 1609.66 1432.59 1611.34 1431.38 1613.03 1430.17 1615.38 1429.57 1618.41 1429.57ZM1693.03 1419.84 1695.63 1419.84 1689.75 1445.47C1689.51 1446.54 1689.38 1447.44 1689.38 1448.16 1689.38 1448.76 1689.48 1449.17 1689.68 1449.4 1689.88 1449.63 1690.16 1449.74 1690.53 1449.74 1690.98 1449.74 1691.47 1449.53 1692.02 1449.11 1692.57 1448.69 1693.22 1448.05 1693.97 1447.2L1695.63 1448.85C1694.13 1450.38 1692.78 1451.46 1691.6 1452.11 1690.41 1452.75 1689.11 1453.07 1687.69 1453.07 1686.06 1453.07 1684.88 1452.67 1684.13 1451.88 1683.38 1451.08 1683 1449.88 1683 1448.27 1683 1447.37 1683.17 1446.17 1683.51 1444.67L1687.62 1426.77C1687.95 1425.3 1688.12 1424.21 1688.12 1423.49 1688.12 1423.15 1688.09 1422.89 1688.02 1422.7 1687.95 1422.51 1687.85 1422.35 1687.71 1422.23 1687.57 1422.1 1687.39 1422.01 1687.16 1421.94 1686.93 1421.87 1686.48 1421.79 1685.8 1421.7L1686.17 1420.21Z" fill-rule="evenodd"/><text fill="#000000" fill-opacity="0" font-family="Arial,Arial_MSFontService,sans-serif" font-size="33.2305" x="1604.99" y="1448.92">𝒔𝒄𝒂𝒍𝒆</text><path d="M1750.19 1394.46 1751.04 1396.87C1746.16 1398.47 1742.55 1401.6 1740.21 1406.26 1737.87 1410.91 1736.69 1416.76 1736.69 1423.81 1736.69 1431.1 1737.87 1437.11 1740.21 1441.84 1742.55 1446.57 1746.13 1449.73 1750.94 1451.34L1750.19 1453.74C1744.09 1452.14 1739.41 1448.69 1736.16 1443.38 1732.91 1438.08 1731.29 1431.66 1731.29 1424.12 1731.29 1416.6 1732.92 1410.17 1736.18 1404.85 1739.44 1399.53 1744.11 1396.07 1750.19 1394.46Z" fill-rule="evenodd"/><text fill="#000000" fill-opacity="0" font-family="Arial,Arial_MSFontService,sans-serif" font-size="59.2812" x="1731.29" y="1446.33">(</text><path d="M1766.33 1411.84C1768.18 1411.84 1769.82 1412.24 1771.25 1413.04 1772.68 1413.84 1773.78 1414.96 1774.55 1416.4 1775.32 1417.84 1775.7 1419.47 1775.7 1421.31 1775.7 1423.12 1775.29 1424.75 1774.47 1426.21 1773.65 1427.67 1772.5 1428.81 1771.03 1429.63 1769.56 1430.46 1767.91 1430.87 1766.08 1430.87 1764.23 1430.87 1762.58 1430.46 1761.16 1429.63 1759.73 1428.81 1758.63 1427.66 1757.84 1426.2 1757.06 1424.73 1756.67 1423.09 1756.67 1421.27 1756.67 1419.57 1757.08 1417.99 1757.91 1416.56 1758.73 1415.12 1759.89 1413.97 1761.38 1413.12 1762.87 1412.26 1764.52 1411.84 1766.33 1411.84Z" fill-rule="evenodd"/><text fill="#000000" fill-opacity="0" font-family="Arial,Arial_MSFontService,sans-serif" font-size="19.0312" x="1756.67" y="1428.49">•</text><path d="M1784.85 1432.37 1790.32 1432.37C1790.61 1433.83 1790.76 1435.26 1790.76 1436.68 1790.76 1438.14 1790.51 1439.47 1790.01 1440.68 1789.51 1441.89 1788.71 1443.09 1787.62 1444.29 1786.52 1445.49 1785.02 1446.81 1783.1 1448.24L1781.41 1446.34C1782.48 1445.34 1783.25 1444.44 1783.73 1443.63 1784.2 1442.83 1784.55 1441.92 1784.76 1440.9 1784.96 1439.88 1785.07 1438.6 1785.07 1437.06 1785.07 1435.47 1785 1433.91 1784.85 1432.37Z" fill-rule="evenodd"/><text fill="#000000" fill-opacity="0" font-family="Arial,Arial_MSFontService,sans-serif" font-size="15.875" x="1781.41" y="1446.26">,</text><path d="M1808.15 1411.84C1810.01 1411.84 1811.65 1412.24 1813.07 1413.04 1814.5 1413.84 1815.6 1414.96 1816.37 1416.4 1817.14 1417.84 1817.53 1419.47 1817.53 1421.31 1817.53 1423.12 1817.12 1424.75 1816.29 1426.21 1815.47 1427.67 1814.32 1428.81 1812.86 1429.63 1811.39 1430.46 1809.74 1430.87 1807.9 1430.87 1806.05 1430.87 1804.41 1430.46 1802.98 1429.63 1801.55 1428.81 1800.45 1427.66 1799.67 1426.2 1798.89 1424.73 1798.5 1423.09 1798.5 1421.27 1798.5 1419.57 1798.91 1417.99 1799.73 1416.56 1800.55 1415.12 1801.71 1413.97 1803.2 1413.12 1804.69 1412.26 1806.34 1411.84 1808.15 1411.84Z" fill-rule="evenodd"/><text fill="#000000" fill-opacity="0" font-family="Arial,Arial_MSFontService,sans-serif" font-size="19.0312" x="1798.5" y="1428.49">•</text><path d="M1824.52 1394.46C1830.6 1396.07 1835.27 1399.53 1838.53 1404.85 1841.79 1410.17 1843.42 1416.6 1843.42 1424.12 1843.42 1431.66 1841.8 1438.08 1838.55 1443.38 1835.3 1448.69 1830.62 1452.14 1824.52 1453.74L1823.77 1451.34C1828.58 1449.73 1832.16 1446.57 1834.5 1441.84 1836.84 1437.11 1838.02 1431.1 1838.02 1423.81 1838.02 1416.76 1836.85 1410.91 1834.52 1406.26 1832.18 1401.6 1828.57 1398.47 1823.67 1396.87Z" fill-rule="evenodd"/><text fill="#000000" fill-opacity="0" font-family="Arial,Arial_MSFontService,sans-serif" font-size="59.2812" x="1823.67" y="1446.33">)</text><path d="M554.5 1263.34C554.5 1187.76 615.763 1126.5 691.336 1126.5L2054.66 1126.5C2130.24 1126.5 2191.5 1187.76 2191.5 1263.34L2191.5 1810.66C2191.5 1886.24 2130.24 1947.5 2054.66 1947.5L691.336 1947.5C615.763 1947.5 554.5 1886.24 554.5 1810.66Z" stroke="#000000" stroke-width="6.875" stroke-linecap="square" stroke-miterlimit="8" stroke-dasharray="20.625 6.875" fill="none" fill-rule="evenodd"/><text font-family="Arial,Arial_MSFontService,sans-serif" font-weight="700" font-size="83" transform="matrix(1 0 0 1 196.906 1910)">SE</text><text font-family="Arial,Arial_MSFontService,sans-serif" font-weight="700" font-size="83" transform="matrix(1 0 0 1 306.906 1910)">-</text><text font-family="Arial,Arial_MSFontService,sans-serif" font-weight="700" font-size="83" transform="matrix(1 0 0 1 334.406 1910)">Block</text></g></svg>