<svg width="2693" height="696" xmlns="http://www.w3.org/2000/svg" xmlns:xlink="http://www.w3.org/1999/xlink" xml:space="preserve" overflow="hidden"><defs><clipPath id="clip0"><rect x="764" y="143" width="2693" height="696"/></clipPath></defs><g clip-path="url(#clip0)" transform="translate(-764 -143)"><path d="M3196.5 530C3196.5 468.972 3245.97 419.5 3307 419.5 3368.03 419.5 3417.5 468.972 3417.5 530 3417.5 591.027 3368.03 640.5 3307 640.5 3245.97 640.5 3196.5 591.027 3196.5 530Z" fill="#4472C4" fill-rule="evenodd"/><path d="M3307 419.5 3307 640.5M3196.5 530 3417.5 530" stroke="#2F528F" stroke-width="4.58333" stroke-miterlimit="8" fill="none" fill-rule="evenodd"/><path d="M3196.5 530C3196.5 468.972 3245.97 419.5 3307 419.5 3368.03 419.5 3417.5 468.972 3417.5 530 3417.5 591.027 3368.03 640.5 3307 640.5 3245.97 640.5 3196.5 591.027 3196.5 530Z" stroke="#2F528F" stroke-width="4.58333" stroke-miterlimit="8" fill="none" fill-rule="evenodd"/><rect x="2716.5" y="401.872" width="201.628" height="397.628" fill="#FF0000"/><path d="M2918.13 401.872 3066.5 253.5 3066.5 651.128 2918.13 799.5Z" fill="#CD0000" fill-rule="evenodd"/><path d="M2716.5 401.872 2864.87 253.5 3066.5 253.5 2918.13 401.872Z" fill="#FF3232" fill-rule="evenodd"/><path d="M2716.5 401.872 2864.87 253.5 3066.5 253.5 3066.5 651.128 2918.13 799.5 2716.5 799.5ZM2716.5 401.872 2918.13 401.872 3066.5 253.5M2918.13 401.872 2918.13 799.5" stroke="#FF0000" stroke-width="4.58333" stroke-miterlimit="8" fill="none" fill-rule="evenodd"/><rect x="766.5" y="360.998" width="104.502" height="402.502" fill="#C55A11"/><path d="M871.002 360.998 1014.5 217.5 1014.5 620.002 871.002 763.5Z" fill="#9E480E" fill-rule="evenodd"/><path d="M766.5 360.998 909.998 217.5 1014.5 217.5 871.002 360.998Z" fill="#D07A40" fill-rule="evenodd"/><path d="M766.5 360.998 909.998 217.5 1014.5 217.5 1014.5 620.002 871.002 763.5 766.5 763.5ZM766.5 360.998 871.002 360.998 1014.5 217.5M871.002 360.998 871.002 763.5" stroke="#C55A11" stroke-width="4.58333" stroke-miterlimit="8" fill="none" fill-rule="evenodd"/><rect x="1737.5" y="406.872" width="201.628" height="396.628" fill="#4472C4"/><path d="M1939.13 406.872 2087.5 258.5 2087.5 655.128 1939.13 803.5Z" fill="#375C9E" fill-rule="evenodd"/><path d="M1737.5 406.872 1885.87 258.5 2087.5 258.5 1939.13 406.872Z" fill="#698ED0" fill-rule="evenodd"/><path d="M1737.5 406.872 1885.87 258.5 2087.5 258.5 2087.5 655.128 1939.13 803.5 1737.5 803.5ZM1737.5 406.872 1939.13 406.872 2087.5 258.5M1939.13 406.872 1939.13 803.5" stroke="#4472C4" stroke-width="4.58333" stroke-miterlimit="8" fill="none" fill-rule="evenodd"/><rect x="1949.5" y="402.361" width="1.13843" height="401.139" fill="#7F7F7F"/><path d="M1950.64 402.361 2094.5 258.5 2094.5 659.639 1950.64 803.5Z" fill="#666666" fill-rule="evenodd"/><path d="M1949.5 402.361 2093.36 258.5 2094.5 258.5 1950.64 402.361Z" fill="#989898" fill-rule="evenodd"/><path d="M1949.5 402.361 2093.36 258.5 2094.5 258.5 2094.5 659.639 1950.64 803.5 1949.5 803.5ZM1949.5 402.361 1950.64 402.361 2094.5 258.5M1950.64 402.361 1950.64 803.5" stroke="#7F7F7F" stroke-width="4.58333" stroke-miterlimit="8" fill="none" fill-rule="evenodd"/><rect x="1958.5" y="402.354" width="1.14587" height="401.146" fill="#70AD47"/><path d="M1959.65 402.354 2104.5 257.5 2104.5 658.646 1959.65 803.5Z" fill="#5A8B39" fill-rule="evenodd"/><path d="M1958.5 402.354 2103.35 257.5 2104.5 257.5 1959.65 402.354Z" fill="#8CBD6B" fill-rule="evenodd"/><path d="M1958.5 402.354 2103.35 257.5 2104.5 257.5 2104.5 658.646 1959.65 803.5 1958.5 803.5ZM1958.5 402.354 1959.65 402.354 2104.5 257.5M1959.65 402.354 1959.65 803.5" stroke="#70AD47" stroke-width="4.58333" stroke-miterlimit="8" fill="none" fill-rule="evenodd"/><rect x="2225.5" y="403.872" width="201.628" height="397.628" fill="#4472C4"/><path d="M2427.13 403.872 2575.5 255.5 2575.5 653.128 2427.13 801.5Z" fill="#375C9E" fill-rule="evenodd"/><path d="M2225.5 403.872 2373.87 255.5 2575.5 255.5 2427.13 403.872Z" fill="#698ED0" fill-rule="evenodd"/><path d="M2225.5 403.872 2373.87 255.5 2575.5 255.5 2575.5 653.128 2427.13 801.5 2225.5 801.5ZM2225.5 403.872 2427.13 403.872 2575.5 255.5M2427.13 403.872 2427.13 801.5" stroke="#4472C4" stroke-width="4.58333" stroke-miterlimit="8" fill="none" fill-rule="evenodd"/><rect x="2437.5" y="399.362" width="1.13818" height="402.138" fill="#7F7F7F"/><path d="M2438.64 399.362 2582.5 255.5 2582.5 657.638 2438.64 801.5Z" fill="#666666" fill-rule="evenodd"/><path d="M2437.5 399.362 2581.36 255.5 2582.5 255.5 2438.64 399.362Z" fill="#989898" fill-rule="evenodd"/><path d="M2437.5 399.362 2581.36 255.5 2582.5 255.5 2582.5 657.638 2438.64 801.5 2437.5 801.5ZM2437.5 399.362 2438.64 399.362 2582.5 255.5M2438.64 399.362 2438.64 801.5" stroke="#7F7F7F" stroke-width="4.58333" stroke-miterlimit="8" fill="none" fill-rule="evenodd"/><rect x="2446.5" y="400.354" width="1.14575" height="401.146" fill="#70AD47"/><path d="M2447.65 400.354 2592.5 255.5 2592.5 656.646 2447.65 801.5Z" fill="#5A8B39" fill-rule="evenodd"/><path d="M2446.5 400.354 2591.35 255.5 2592.5 255.5 2447.65 400.354Z" fill="#8CBD6B" fill-rule="evenodd"/><path d="M2446.5 400.354 2591.35 255.5 2592.5 255.5 2592.5 656.646 2447.65 801.5 2446.5 801.5ZM2446.5 400.354 2447.65 400.354 2592.5 255.5M2447.65 400.354 2447.65 801.5" stroke="#70AD47" stroke-width="4.58333" stroke-miterlimit="8" fill="none" fill-rule="evenodd"/><path d="M1996.5 493.5 2222.5 493.5 2222.5 456.5 2296.5 530.5 2222.5 604.5 2222.5 567.5 1996.5 567.5Z" stroke="#2F528F" stroke-width="4.58333" stroke-miterlimit="8" fill="#DAE3F3" fill-rule="evenodd"/><path d="M2487.5 493.5 2712.5 493.5 2712.5 456.5 2786.5 530.5 2712.5 604.5 2712.5 567.5 2487.5 567.5Z" stroke="#2F528F" stroke-width="4.58333" stroke-miterlimit="8" fill="#DAE3F3" fill-rule="evenodd"/><path d="M2968.5 497.75 3193 497.75 3193 460.5 3267.5 535 3193 609.5 3193 572.25 2968.5 572.25Z" stroke="#2F528F" stroke-width="4.58333" stroke-miterlimit="8" fill="#DAE3F3" fill-rule="evenodd"/><path d="M1087.5 498.5 1157.5 498.5 1157.5 461.5 1227.5 535.5 1157.5 609.5 1157.5 572.5 1087.5 572.5Z" stroke="#2F528F" stroke-width="4.58333" stroke-miterlimit="8" fill="#DAE3F3" fill-rule="evenodd"/><path d="M1151.2 462.083 1151.2 190.699 3313.64 190.699 3313.64 387.99 3301.04 387.99 3301.04 197.001 3307.34 203.303 1157.5 203.303 1163.8 197.001 1163.8 462.083ZM3326.25 381.688 3307.34 419.5 3288.44 381.688Z" fill="#8FAADC"/><path d="M1075.5 261.335C1075.5 197.914 1126.91 146.5 1190.34 146.5L3338.67 146.5C3402.09 146.5 3453.5 197.914 3453.5 261.335L3453.5 720.665C3453.5 784.087 3402.09 835.5 3338.67 835.5L1190.34 835.5C1126.91 835.5 1075.5 784.087 1075.5 720.665Z" stroke="#000000" stroke-width="6.875" stroke-miterlimit="8" stroke-dasharray="27.5 20.625" fill="none" fill-rule="evenodd"/><rect x="1249.5" y="404.872" width="201.628" height="397.628"/><path d="M1451.13 404.872 1599.5 256.5 1599.5 654.128 1451.13 802.5Z" fill-rule="evenodd"/><path d="M1249.5 404.872 1397.87 256.5 1599.5 256.5 1451.13 404.872Z" fill="#323232" fill-rule="evenodd"/><path d="M1249.5 404.872 1397.87 256.5 1599.5 256.5 1599.5 654.128 1451.13 802.5 1249.5 802.5ZM1249.5 404.872 1451.13 404.872 1599.5 256.5M1451.13 404.872 1451.13 802.5" stroke="#000000" stroke-width="4.58333" stroke-miterlimit="8" fill="none" fill-rule="evenodd"/><path d="M1511.5 498.5 1736.5 498.5 1736.5 461.5 1810.5 535.5 1736.5 609.5 1736.5 572.5 1511.5 572.5Z" stroke="#2F528F" stroke-width="4.58333" stroke-miterlimit="8" fill="#DAE3F3" fill-rule="evenodd"/></g></svg>