<svg width="3575" height="1665" xmlns="http://www.w3.org/2000/svg" xmlns:xlink="http://www.w3.org/1999/xlink" xml:space="preserve" overflow="hidden"><defs><clipPath id="clip0"><rect x="293" y="356" width="3575" height="1665"/></clipPath><clipPath id="clip1"><rect x="605" y="1360" width="1476" height="661"/></clipPath><clipPath id="clip2"><rect x="605" y="1360" width="1476" height="661"/></clipPath><clipPath id="clip3"><rect x="605" y="1360" width="1476" height="661"/></clipPath><clipPath id="clip4"><rect x="605" y="1360" width="1476" height="661"/></clipPath><clipPath id="clip5"><rect x="2080" y="1360" width="1579" height="661"/></clipPath><clipPath id="clip6"><rect x="2080" y="1360" width="1579" height="661"/></clipPath><clipPath id="clip7"><rect x="2080" y="1360" width="1579" height="661"/></clipPath><clipPath id="clip8"><rect x="2080" y="1360" width="1579" height="661"/></clipPath><clipPath id="clip9"><rect x="292" y="356" width="3576" height="925"/></clipPath><clipPath id="clip10"><rect x="292" y="356" width="3576" height="925"/></clipPath><clipPath id="clip11"><rect x="292" y="356" width="3576" height="925"/></clipPath><clipPath id="clip12"><rect x="292" y="356" width="3576" height="925"/></clipPath></defs><g clip-path="url(#clip0)" transform="translate(-293 -356)"><g clip-path="url(#clip1)"><g clip-path="url(#clip2)"><g clip-path="url(#clip3)"><g clip-path="url(#clip4)"><path d="M1608.55 964.661 1680.77 964.661 1680.77 1243.62 1608.55 1243.62Z" fill="#0D0D0D" transform="matrix(1 0 0 1.00031 -882.488 593.429)"/><path d="M1680.76 964.661 1779.92 865.504 1779.92 1144.46 1680.76 1243.62Z" fill="#0A0A0A" fill-rule="evenodd" transform="matrix(1 0 0 1.00031 -882.488 593.429)"/><path d="M1608.55 964.661 1707.71 865.504 1779.92 865.504 1680.76 964.661Z" fill="#3C3C3C" fill-rule="evenodd" transform="matrix(1 0 0 1.00031 -882.488 593.429)"/><path d="M1608.55 964.661 1707.71 865.504 1779.92 865.504 1779.92 1144.46 1680.76 1243.62 1608.55 1243.62ZM1608.55 964.661 1680.76 964.661 1779.92 865.504M1680.76 964.661 1680.76 1243.62" stroke="#000000" stroke-width="3.17987" stroke-miterlimit="8" fill="none" fill-rule="evenodd" transform="matrix(1 0 0 1.00031 -882.488 593.429)"/><path d="M1861.09 1011.86 1963.74 909.213 2103.23 909.213 2103.23 1185.38 2000.58 1288.02 1861.09 1288.02ZM1861.09 1011.86 2000.58 1011.86 2103.23 909.213M2000.58 1011.86 2000.58 1288.02" stroke="#000000" stroke-width="3.17987" stroke-miterlimit="8" fill="none" fill-rule="evenodd" transform="matrix(1 0 0 1.00031 -882.488 593.429)"/><path d="M2101.15 1113.48 2525.36 1113.48 2525.36 1119.83 2101.15 1119.83ZM2522.17 1107.12 2541.25 1116.66 2522.17 1126.2Z" fill="#4472C4" transform="matrix(1 0 0 1.00031 -882.488 593.429)"/><path d="M1824.32 864.7C1824.32 812.263 1866.83 769.761 1919.26 769.761L2865.12 769.761C2917.56 769.761 2960.06 812.263 2960.06 864.7L2960.06 1244.43C2960.06 1296.86 2917.56 1339.36 2865.12 1339.36L1919.26 1339.36C1866.83 1339.36 1824.32 1296.86 1824.32 1244.43Z" stroke="#000000" stroke-width="4.76981" stroke-linecap="square" stroke-miterlimit="8" stroke-dasharray="14.3094 4.76981" fill="none" fill-rule="evenodd" transform="matrix(1 0 0 1.00031 -882.488 593.429)"/><text font-family="Arial,Arial_MSFontService,sans-serif" font-weight="700" font-size="83" transform="matrix(0.693791 0 0 0.694006 714.258 1904)">Spatial</text><text font-family="Arial,Arial_MSFontService,sans-serif" font-weight="700" font-size="83" transform="matrix(0.693791 0 0 0.694006 639.551 1973)">Transformer</text><path d="M2688.09 1019.09 2791.03 916.151 2930.92 916.151 2930.92 1192.02 2827.98 1294.96 2688.09 1294.96ZM2688.09 1019.09 2827.98 1019.09 2930.92 916.151M2827.98 1019.09 2827.98 1294.96" stroke="#000000" stroke-width="3.17987" stroke-miterlimit="8" fill="none" fill-rule="evenodd" transform="matrix(1 0 0 1.00031 -882.488 593.429)"/><text fill="#4472C4" font-family="Arial,Arial_MSFontService,sans-serif" font-weight="700" font-size="73" transform="matrix(0.693791 0 0 0.694006 1228.25 1473)">Localisation </text><text fill="#4472C4" font-family="Arial,Arial_MSFontService,sans-serif" font-weight="700" font-size="73" transform="matrix(0.693791 0 0 0.694006 1335.76 1534)">Net</text><path d="M2538.93 1116.31C2538.93 1097.34 2554.3 1081.97 2573.27 1081.97 2592.24 1081.97 2607.61 1097.34 2607.61 1116.31 2607.61 1135.28 2592.24 1150.65 2573.27 1150.65 2554.3 1150.65 2538.93 1135.28 2538.93 1116.31Z" fill="#4472C4" fill-rule="evenodd" transform="matrix(1 0 0 1.00031 -882.488 593.429)"/><path d="M2573.27 1081.97 2573.27 1150.65M2538.93 1116.31 2607.61 1116.31" stroke="#2F528F" stroke-width="3.17987" stroke-miterlimit="8" fill="none" fill-rule="evenodd" transform="matrix(1 0 0 1.00031 -882.488 593.429)"/><path d="M2538.93 1116.31C2538.93 1097.34 2554.3 1081.97 2573.27 1081.97 2592.24 1081.97 2607.61 1097.34 2607.61 1116.31 2607.61 1135.28 2592.24 1150.65 2573.27 1150.65 2554.3 1150.65 2538.93 1135.28 2538.93 1116.31Z" stroke="#2F528F" stroke-width="3.17987" stroke-miterlimit="8" fill="none" fill-rule="evenodd" transform="matrix(1 0 0 1.00031 -882.488 593.429)"/><path d="M2610.39 1112.09 2672.52 1112.09 2672.52 1118.45 2610.39 1118.45ZM2669.34 1105.73 2688.42 1115.27 2669.34 1124.81Z" fill="#4472C4" transform="matrix(1 0 0 1.00031 -882.488 593.429)"/><text font-family="Arial,Arial_MSFontService,sans-serif" font-weight="700" font-size="73" transform="matrix(0.693791 0 0 0.694006 1602.09 1789)">Sampler</text><path d="M2410.27 901.131C2409.84 902.893 2409.53 904.565 2409.34 906.147 2409.16 907.729 2409.06 909.13 2409.06 910.351 2409.06 911.801 2409.27 912.883 2409.71 913.591 2410.15 914.299 2410.84 914.653 2411.78 914.653 2413.43 914.653 2414.98 913.494 2416.44 911.17 2417.9 908.846 2419.15 905.495 2420.19 901.131ZM2419.4 884.729C2417.72 884.729 2416.14 885.853 2414.68 888.094 2413.23 890.335 2411.98 893.645 2410.94 898.016L2420.85 898.016C2421.21 896.35 2421.5 894.817 2421.71 893.416 2421.91 892.014 2422.02 890.71 2422.02 889.503 2422.02 887.789 2421.82 886.568 2421.41 885.833 2421.01 885.097 2420.33 884.729 2419.4 884.729ZM2419.44 882.162C2422.48 882.162 2424.74 883.03 2426.24 884.771 2427.74 886.512 2428.5 889.121 2428.5 892.597 2428.5 895.039 2428.1 897.911 2427.3 901.214 2426.49 904.523 2425.37 907.389 2423.91 909.824 2422.45 912.252 2420.69 914.098 2418.63 915.346 2416.56 916.602 2414.24 917.227 2411.65 917.227 2408.63 917.227 2406.37 916.359 2404.85 914.632 2403.33 912.897 2402.58 910.372 2402.58 907.042 2402.58 904.6 2402.97 901.713 2403.75 898.383 2404.53 895.053 2405.65 892.16 2407.1 889.704 2408.55 887.248 2410.31 885.375 2412.37 884.091 2414.43 882.801 2416.79 882.162 2419.44 882.162Z" fill="#4472C4" fill-rule="evenodd" transform="matrix(1 0 0 1.00031 -882.488 593.429)"/><path d="M2475.54 892.153 2485.26 901.575 2485.26 903.156 2475.54 912.578 2474.08 911.218 2479.75 903.996 2448.51 903.996 2448.51 900.707 2479.75 900.707 2474.08 893.513Z" fill-rule="evenodd" transform="matrix(1 0 0 1.00031 -882.488 593.429)"/><path d="M2505.92 883.078 2533.17 883.078 2531.22 892.028 2528.05 892.028C2528.04 890.196 2527.93 888.913 2527.73 888.184 2527.53 887.449 2527.22 886.894 2526.78 886.526 2526.34 886.152 2525.73 885.971 2524.94 885.971L2522.74 885.971 2517.42 910.157C2517.3 910.698 2517.22 911.163 2517.17 911.537 2517.12 911.919 2517.1 912.419 2517.1 913.05 2517.1 913.806 2517.29 914.34 2517.68 914.653 2518.07 914.972 2518.67 915.152 2519.5 915.201L2519.15 916.831 2506.02 916.831 2506.36 915.201C2507.09 915.104 2507.67 914.889 2508.1 914.555 2508.53 914.229 2508.88 913.737 2509.17 913.085 2509.46 912.432 2509.75 911.454 2510.05 910.157L2515.37 885.971 2513.39 885.971C2512.48 885.971 2511.75 886.103 2511.18 886.381 2510.63 886.651 2510 887.22 2509.3 888.08 2508.62 888.948 2507.94 890.092 2507.31 891.508L2504.07 891.508Z" fill="#70AD47" fill-rule="evenodd" transform="matrix(1 0 0 1.00031 -882.488 593.429)"/><path d="M2541.78 915.811C2541.47 917.095 2541.25 918.309 2541.11 919.461 2540.97 920.605 2540.9 921.625 2540.9 922.513 2540.9 923.561 2541.06 924.345 2541.38 924.865 2541.7 925.379 2542.2 925.635 2542.88 925.635 2544.07 925.635 2545.2 924.789 2546.26 923.103 2547.32 921.417 2548.23 918.982 2548.98 915.811ZM2548.41 903.913C2547.18 903.913 2546.05 904.724 2544.99 906.348 2543.92 907.978 2543.02 910.379 2542.27 913.549L2549.47 913.549C2549.73 912.342 2549.93 911.232 2550.08 910.212 2550.24 909.192 2550.31 908.249 2550.31 907.375 2550.31 906.133 2550.16 905.238 2549.87 904.711 2549.58 904.176 2549.09 903.913 2548.41 903.913ZM2548.44 902.04C2550.65 902.04 2552.29 902.671 2553.38 903.934 2554.47 905.196 2555.01 907.09 2555.01 909.616 2555.01 911.392 2554.72 913.473 2554.14 915.874 2553.56 918.274 2552.74 920.356 2551.68 922.125 2550.63 923.887 2549.34 925.226 2547.85 926.135 2546.35 927.044 2544.67 927.502 2542.79 927.502 2540.59 927.502 2538.95 926.87 2537.85 925.615 2536.75 924.359 2536.2 922.52 2536.2 920.106 2536.2 918.33 2536.48 916.241 2537.05 913.82 2537.62 911.406 2538.43 909.304 2539.48 907.521 2540.54 905.737 2541.81 904.378 2543.31 903.441 2544.81 902.511 2546.51 902.04 2548.44 902.04Z" fill="#70AD47" fill-rule="evenodd" transform="matrix(1 0 0 1.00031 -882.488 593.429)"/><path d="M2592.85 881.101 2593.52 883.002C2589.66 884.272 2586.8 886.748 2584.95 890.432 2583.1 894.116 2582.17 898.744 2582.17 904.322 2582.17 910.087 2583.1 914.847 2584.95 918.586 2586.8 922.333 2589.63 924.837 2593.44 926.107L2592.85 928.008C2588.01 926.738 2584.32 924.005 2581.74 919.814 2579.18 915.617 2577.89 910.531 2577.89 904.565 2577.89 898.612 2579.18 893.534 2581.76 889.322 2584.34 885.111 2588.04 882.364 2592.85 881.101Z" fill="#70AD47" fill-rule="evenodd" transform="matrix(1 0 0 1.00031 -882.488 593.429)"/><path d="M2617.08 882.683C2620.57 882.683 2623.71 883.148 2626.48 884.091L2624.97 891.161 2621.73 891.161C2621.73 889.732 2621.58 888.615 2621.27 887.81 2620.97 887.012 2620.5 886.436 2619.87 886.096 2619.25 885.749 2618.41 885.576 2617.35 885.576 2615.16 885.576 2613.19 886.582 2611.44 888.601 2609.7 890.62 2608.21 893.589 2606.99 897.509 2605.77 901.422 2605.16 904.946 2605.16 908.076 2605.16 912.252 2606.54 914.333 2609.29 914.333 2610.61 914.333 2611.7 913.917 2612.55 913.085 2613.41 912.252 2614.04 910.962 2614.43 909.213L2614.78 907.659C2614.91 907.049 2615 906.542 2615.03 906.14 2615.06 905.73 2615.08 905.363 2615.08 905.037 2615.08 904.357 2614.92 903.85 2614.61 903.517 2614.3 903.177 2613.76 902.955 2613 902.858L2613.34 901.228 2625.42 901.228 2625.07 902.858C2624.42 903.073 2623.95 903.337 2623.63 903.642 2623.32 903.94 2623.04 904.391 2622.79 904.974 2622.54 905.557 2622.27 906.535 2621.98 907.902L2620.07 916.436 2616.66 917.227 2615.35 915.471C2613.19 916.644 2610.94 917.227 2608.6 917.227 2605.14 917.227 2602.48 916.255 2600.62 914.313 2598.77 912.363 2597.84 909.553 2597.84 905.876 2597.84 903.601 2598.23 900.999 2599 898.078 2599.78 895.15 2600.97 892.514 2602.6 890.162 2604.22 887.81 2606.27 885.978 2608.72 884.66 2611.18 883.342 2613.96 882.683 2617.08 882.683Z" fill="#70AD47" fill-rule="evenodd" transform="matrix(1 0 0 1.00031 -882.488 593.429)"/><path d="M2630.29 881.101C2635.11 882.364 2638.81 885.111 2641.39 889.322 2643.96 893.534 2645.25 898.612 2645.25 904.565 2645.25 910.531 2643.97 915.617 2641.39 919.814 2638.83 924.005 2635.12 926.738 2630.29 928.008L2629.7 926.107C2633.51 924.837 2636.34 922.333 2638.2 918.586 2640.05 914.847 2640.98 910.087 2640.98 904.322 2640.98 898.744 2640.06 894.116 2638.2 890.432 2636.36 886.748 2633.5 884.272 2629.63 883.002Z" fill="#70AD47" fill-rule="evenodd" transform="matrix(1 0 0 1.00031 -882.488 593.429)"/><text fill="#70AD47" font-family="Arial,Arial_MSFontService,sans-serif" font-weight="700" font-size="64" transform="matrix(0.693791 0 0 0.694006 1631.44 1423)">Grid </text><text fill="#70AD47" font-family="Arial,Arial_MSFontService,sans-serif" font-weight="700" font-size="64" transform="matrix(0.693791 0 0 0.694006 1735.19 1423)">Generator</text><path d="M2384.16 888.927 2395.22 899.639 2395.22 901.443 2384.16 912.155 2382.51 910.608 2388.95 902.4 2353.43 902.4 2353.43 898.661 2388.95 898.661 2382.51 890.474Z" fill-rule="evenodd" transform="matrix(1 0 0 1.00031 -882.488 593.429)"/><path d="M2102.53 842.727C2102.53 829.247 2113.45 818.327 2126.93 818.327L2437.52 818.327C2451 818.327 2461.92 829.247 2461.92 842.727L2461.92 940.316C2461.92 953.796 2451 964.717 2437.52 964.717L2126.93 964.717C2113.45 964.717 2102.53 953.796 2102.53 940.316Z" stroke="#2F528F" stroke-width="6.35975" stroke-miterlimit="8" stroke-dasharray="25.439 19.0793" fill="none" fill-rule="evenodd" transform="matrix(1 0 0 1.00031 -882.488 593.429)"/><path d="M2390.46 873.136C2390.46 866.24 2396.05 860.648 2402.95 860.648L2665.89 860.648C2672.79 860.648 2678.38 866.24 2678.38 873.136L2678.38 923.089C2678.38 929.985 2672.79 935.577 2665.89 935.577L2402.95 935.577C2396.05 935.577 2390.46 929.985 2390.46 923.089Z" stroke="#70AD47" stroke-width="6.35975" stroke-miterlimit="8" stroke-dasharray="25.439 19.0793" fill="none" fill-rule="evenodd" transform="matrix(1 0 0 1.00031 -882.488 593.429)"/><path d="M0.0823523-3.17881 8.53335-2.95987 17.0573-2.29739 25.5817-1.23736 34.0187 0.264502 42.3972 2.16069 50.6356 4.40754 58.8366 7.00896 66.9054 10.0072 74.7817 13.3073 82.5799 16.92 90.1547 20.8836 97.5859 25.1047 104.805 29.5948 111.816 34.3567 118.552 39.4203 125.066 44.6574 131.321 50.1635 137.313 55.8476 143.008 61.7634 148.349 67.8549 153.38 74.1205 158.11 80.5748 162.405 87.1291 166.346 93.8588 169.89 100.682 173.042 107.606 175.758 114.641 177.985 121.769 179.786 129.015 180.51 134.49 174.205 135.324 173.504 130.026 173.571 130.376 171.836 123.394 171.887 123.576 169.719 116.638 169.787 116.835 167.143 109.984 167.215 110.156 164.136 103.392 164.209 103.54 160.74 96.8623 160.817 97.0031 156.958 90.4121 157.042 90.5481 152.837 84.1305 152.931 84.2672 148.292 77.9363 148.376 78.0473 143.433 71.8899 143.522 71.9961 138.275 66.0119 138.375 66.1209 132.782 60.3104 132.884 60.4121 126.987 54.8185 127.074 54.8982 120.917 49.4779 121.025 49.5692 114.607 44.4092 114.69 44.4729 108.055 39.4863 108.179 39.5748 101.284 34.8917 101.392 34.9615 94.2807 30.5386 94.3896 30.6033 87.0611 26.4405 87.1575 26.4931 79.6993 22.5905 79.8366 22.6583 72.1619 19.1026 72.2694 19.1502 64.5079 15.8981 64.6291 15.946 56.6938 12.9973 56.84 13.0476 48.7747 10.4893 48.8994 10.5261 40.7908 8.3146 40.9256 8.34825 32.6868 6.48367 32.8314 6.51289 24.5492 5.03859 24.7142 5.0635 16.3453 4.02281 16.4913 4.03755 8.12249 3.38712 8.2865 3.39562-0.0823523 3.17881ZM186.53 130.787 178.952 150.726 167.547 132.699Z" fill="#4472C4" transform="matrix(1 0 0 -1.00031 1220.74 1709.22)"/><path d="M2576.1 944.597 2576.1 1066.3 2569.75 1066.3 2569.75 944.597ZM2582.46 1063.12 2572.92 1082.2 2563.38 1063.12Z" fill="#4472C4" transform="matrix(1 0 0 1.00031 -882.488 593.429)"/></g></g></g></g><g clip-path="url(#clip5)"><g clip-path="url(#clip6)"><g clip-path="url(#clip7)"><g clip-path="url(#clip8)"><path d="M187.738 1085.12 267.984 1085.12 267.984 1395.89 187.738 1395.89Z" fill="#FF0000" transform="matrix(1 0 0 1.00004 1966.66 495.135)"/><path d="M267.984 1085.12 378.174 974.924 378.174 1285.7 267.984 1395.89Z" fill="#CD0000" fill-rule="evenodd" transform="matrix(1 0 0 1.00004 1966.66 495.135)"/><path d="M187.738 1085.12 297.928 974.924 378.174 974.924 267.984 1085.12Z" fill="#FF3232" fill-rule="evenodd" transform="matrix(1 0 0 1.00004 1966.66 495.135)"/><path d="M187.738 1085.12 297.928 974.924 378.174 974.924 378.174 1285.7 267.984 1395.89 187.738 1395.89ZM187.738 1085.12 267.984 1085.12 378.174 974.924M267.984 1085.12 267.984 1395.89" stroke="#FF0000" stroke-width="3.53373" stroke-miterlimit="8" fill="none" fill-rule="evenodd" transform="matrix(1 0 0 1.00004 1966.66 495.135)"/><path d="M468.38 1137.57 582.447 1023.5 737.458 1023.5 737.458 1330.39 623.39 1444.46 468.38 1444.46ZM468.38 1137.57 623.39 1137.57 737.458 1023.5M623.39 1137.57 623.39 1444.46" stroke="#000000" stroke-width="3.53373" stroke-miterlimit="8" fill="none" fill-rule="evenodd" transform="matrix(1 0 0 1.00004 1966.66 495.135)"/><path d="M1388.18 1133.87 1408.1 1133.87 1408.1 1444.46 1388.18 1444.46Z" fill="#FF0000" transform="matrix(1 0 0 1.00004 1966.66 495.135)"/><path d="M1408.1 1133.87 1518.48 1023.5 1518.48 1334.09 1408.1 1444.46Z" fill="#CD0000" fill-rule="evenodd" transform="matrix(1 0 0 1.00004 1966.66 495.135)"/><path d="M1388.18 1133.87 1498.55 1023.5 1518.48 1023.5 1408.1 1133.87Z" fill="#FF3232" fill-rule="evenodd" transform="matrix(1 0 0 1.00004 1966.66 495.135)"/><path d="M1388.18 1133.87 1498.55 1023.5 1518.48 1023.5 1518.48 1334.09 1408.1 1444.46 1388.18 1444.46ZM1388.18 1133.87 1408.1 1133.87 1518.48 1023.5M1408.1 1133.87 1408.1 1444.46" stroke="#000000" stroke-width="3.53373" stroke-miterlimit="8" fill="none" fill-rule="evenodd" transform="matrix(1 0 0 1.00004 1966.66 495.135)"/><path d="M1411.31 1133.22 1431.12 1133.22 1431.12 1444.46 1411.31 1444.46Z" fill="#843C0C" transform="matrix(1 0 0 1.00004 1966.66 495.135)"/><path d="M1431.12 1133.22 1540.84 1023.5 1540.84 1334.74 1431.12 1444.46Z" fill="#6A300A" fill-rule="evenodd" transform="matrix(1 0 0 1.00004 1966.66 495.135)"/><path d="M1411.31 1133.22 1521.03 1023.5 1540.84 1023.5 1431.12 1133.22Z" fill="#9C623C" fill-rule="evenodd" transform="matrix(1 0 0 1.00004 1966.66 495.135)"/><path d="M1411.31 1133.22 1521.03 1023.5 1540.84 1023.5 1540.84 1334.74 1431.12 1444.46 1411.31 1444.46ZM1411.31 1133.22 1431.12 1133.22 1540.84 1023.5M1431.12 1133.22 1431.12 1444.46" stroke="#000000" stroke-width="3.53373" stroke-miterlimit="8" fill="none" fill-rule="evenodd" transform="matrix(1 0 0 1.00004 1966.66 495.135)"/><path d="M1433.67 1133.87 1453.59 1133.87 1453.59 1444.46 1433.67 1444.46Z" fill="#C55A11" transform="matrix(1 0 0 1.00004 1966.66 495.135)"/><path d="M1453.59 1133.87 1563.97 1023.5 1563.97 1334.09 1453.59 1444.46Z" fill="#9E480E" fill-rule="evenodd" transform="matrix(1 0 0 1.00004 1966.66 495.135)"/><path d="M1433.67 1133.87 1544.04 1023.5 1563.97 1023.5 1453.59 1133.87Z" fill="#D07A40" fill-rule="evenodd" transform="matrix(1 0 0 1.00004 1966.66 495.135)"/><path d="M1433.67 1133.87 1544.04 1023.5 1563.97 1023.5 1563.97 1334.09 1453.59 1444.46 1433.67 1444.46ZM1433.67 1133.87 1453.59 1133.87 1563.97 1023.5M1453.59 1133.87 1453.59 1444.46" stroke="#000000" stroke-width="3.53373" stroke-miterlimit="8" fill="none" fill-rule="evenodd" transform="matrix(1 0 0 1.00004 1966.66 495.135)"/><path d="M1456.03 1134.64 1475.95 1134.64 1475.95 1445.23 1456.03 1445.23Z" fill="#F4B183" transform="matrix(1 0 0 1.00004 1966.66 495.135)"/><path d="M1475.95 1134.64 1586.32 1024.27 1586.32 1334.86 1475.95 1445.23Z" fill="#C48E69" fill-rule="evenodd" transform="matrix(1 0 0 1.00004 1966.66 495.135)"/><path d="M1456.03 1134.64 1566.4 1024.27 1586.32 1024.27 1475.95 1134.64Z" fill="#F6C09B" fill-rule="evenodd" transform="matrix(1 0 0 1.00004 1966.66 495.135)"/><path d="M1456.03 1134.64 1566.4 1024.27 1586.32 1024.27 1586.32 1334.86 1475.95 1445.23 1456.03 1445.23ZM1456.03 1134.64 1475.95 1134.64 1586.32 1024.27M1475.95 1134.64 1475.95 1445.23" stroke="#000000" stroke-width="3.53373" stroke-miterlimit="8" fill="none" fill-rule="evenodd" transform="matrix(1 0 0 1.00004 1966.66 495.135)"/><path d="M1479.16 1133.22 1498.96 1133.22 1498.96 1444.46 1479.16 1444.46Z" fill="#F8CBAD" transform="matrix(1 0 0 1.00004 1966.66 495.135)"/><path d="M1498.96 1133.22 1608.68 1023.5 1608.68 1334.74 1498.96 1444.46Z" fill="#C7A38B" fill-rule="evenodd" transform="matrix(1 0 0 1.00004 1966.66 495.135)"/><path d="M1479.16 1133.22 1588.88 1023.5 1608.68 1023.5 1498.96 1133.22Z" fill="#F9D5BD" fill-rule="evenodd" transform="matrix(1 0 0 1.00004 1966.66 495.135)"/><path d="M1479.16 1133.22 1588.88 1023.5 1608.68 1023.5 1608.68 1334.74 1498.96 1444.46 1479.16 1444.46ZM1479.16 1133.22 1498.96 1133.22 1608.68 1023.5M1498.96 1133.22 1498.96 1444.46" stroke="#000000" stroke-width="3.53373" stroke-miterlimit="8" fill="none" fill-rule="evenodd" transform="matrix(1 0 0 1.00004 1966.66 495.135)"/><path d="M1501.51 1133.99 1521.32 1133.99 1521.32 1444.46 1501.51 1444.46Z" fill="#FBE5D6" transform="matrix(1 0 0 1.00004 1966.66 495.135)"/><path d="M1521.32 1133.99 1631.04 1024.27 1631.04 1334.74 1521.32 1444.46Z" fill="#CAB8AC" fill-rule="evenodd" transform="matrix(1 0 0 1.00004 1966.66 495.135)"/><path d="M1501.51 1133.99 1611.24 1024.27 1631.04 1024.27 1521.32 1133.99Z" fill="#FCEADE" fill-rule="evenodd" transform="matrix(1 0 0 1.00004 1966.66 495.135)"/><path d="M1501.51 1133.99 1611.24 1024.27 1631.04 1024.27 1631.04 1334.74 1521.32 1444.46 1501.51 1444.46ZM1501.51 1133.99 1521.32 1133.99 1631.04 1024.27M1521.32 1133.99 1521.32 1444.46" stroke="#000000" stroke-width="3.53373" stroke-miterlimit="8" fill="none" fill-rule="evenodd" transform="matrix(1 0 0 1.00004 1966.66 495.135)"/><path d="M1523.87 1133.99 1543.68 1133.99 1543.68 1444.46 1523.87 1444.46Z" fill="#525252" transform="matrix(1 0 0 1.00004 1966.66 495.135)"/><path d="M1543.68 1133.99 1653.4 1024.27 1653.4 1334.74 1543.68 1444.46Z" fill="#424242" fill-rule="evenodd" transform="matrix(1 0 0 1.00004 1966.66 495.135)"/><path d="M1523.87 1133.99 1633.59 1024.27 1653.4 1024.27 1543.68 1133.99Z" fill="#747474" fill-rule="evenodd" transform="matrix(1 0 0 1.00004 1966.66 495.135)"/><path d="M1523.87 1133.99 1633.59 1024.27 1653.4 1024.27 1653.4 1334.74 1543.68 1444.46 1523.87 1444.46ZM1523.87 1133.99 1543.68 1133.99 1653.4 1024.27M1543.68 1133.99 1543.68 1444.46" stroke="#000000" stroke-width="3.53373" stroke-miterlimit="8" fill="none" fill-rule="evenodd" transform="matrix(1 0 0 1.00004 1966.66 495.135)"/><path d="M817.641 897.054 843.084 897.054 843.084 922.497 817.641 922.497Z" stroke="#000000" stroke-width="3.53373" stroke-miterlimit="8" fill="#FFFFFF" transform="matrix(1 0 0 1.00004 1966.66 495.135)"/><path d="M843.084 897.054 868.527 897.054 868.527 922.497 843.084 922.497Z" stroke="#000000" stroke-width="3.53373" stroke-miterlimit="8" fill="#FFFFFF" transform="matrix(1 0 0 1.00004 1966.66 495.135)"/><path d="M868.527 897.054 893.97 897.054 893.97 922.497 868.527 922.497Z" stroke="#000000" stroke-width="3.53373" stroke-miterlimit="8" fill="#FFFFFF" transform="matrix(1 0 0 1.00004 1966.66 495.135)"/><path d="M893.97 897.054 919.413 897.054 919.413 922.497 893.97 922.497Z" stroke="#000000" stroke-width="3.53373" stroke-miterlimit="8" fill="#FFFFFF" transform="matrix(1 0 0 1.00004 1966.66 495.135)"/><path d="M919.413 897.054 944.856 897.054 944.856 922.497 919.413 922.497Z" stroke="#000000" stroke-width="3.53373" stroke-miterlimit="8" fill="#FFFFFF" transform="matrix(1 0 0 1.00004 1966.66 495.135)"/><path d="M944.856 897.054 970.299 897.054 970.299 922.497 944.856 922.497Z" stroke="#000000" stroke-width="3.53373" stroke-miterlimit="8" fill="#FFFFFF" transform="matrix(1 0 0 1.00004 1966.66 495.135)"/><path d="M970.299 897.054 995.741 897.054 995.741 922.497 970.299 922.497Z" stroke="#000000" stroke-width="3.53373" stroke-miterlimit="8" fill="#FFFFFF" transform="matrix(1 0 0 1.00004 1966.66 495.135)"/><path d="M1194.66 897.825 1220.1 897.825 1220.1 923.268 1194.66 923.268Z" stroke="#000000" stroke-width="3.53373" stroke-miterlimit="8" fill="#FF0000" transform="matrix(1 0 0 1.00004 1966.66 495.135)"/><path d="M1220.1 897.825 1245.54 897.825 1245.54 923.268 1220.1 923.268Z" stroke="#000000" stroke-width="3.53373" stroke-miterlimit="8" fill="#843C0C" transform="matrix(1 0 0 1.00004 1966.66 495.135)"/><path d="M1245.54 897.825 1270.99 897.825 1270.99 923.268 1245.54 923.268Z" stroke="#000000" stroke-width="3.53373" stroke-miterlimit="8" fill="#C55A11" transform="matrix(1 0 0 1.00004 1966.66 495.135)"/><path d="M1270.99 897.825 1296.43 897.825 1296.43 923.268 1270.99 923.268Z" stroke="#000000" stroke-width="3.53373" stroke-miterlimit="8" fill="#F4B183" transform="matrix(1 0 0 1.00004 1966.66 495.135)"/><path d="M1296.43 897.825 1321.87 897.825 1321.87 923.268 1296.43 923.268Z" stroke="#000000" stroke-width="3.53373" stroke-miterlimit="8" fill="#F8CBAD" transform="matrix(1 0 0 1.00004 1966.66 495.135)"/><path d="M1321.87 897.825 1347.32 897.825 1347.32 923.268 1321.87 923.268Z" stroke="#000000" stroke-width="3.53373" stroke-miterlimit="8" fill="#FBE5D6" transform="matrix(1 0 0 1.00004 1966.66 495.135)"/><path d="M1347.32 897.825 1372.76 897.825 1372.76 923.268 1347.32 923.268Z" stroke="#000000" stroke-width="3.53373" stroke-miterlimit="8" fill="#525252" transform="matrix(1 0 0 1.00004 1966.66 495.135)"/><path d="M2.78982-2.16891 114.467 141.479 108.887 145.816-2.78982 2.16891ZM117.878 134.351 122.521 157.597 101.138 147.364Z" fill="#4472C4" transform="matrix(1 0 0 -1.00004 2661.72 1562.94)"/><path d="M737.458 1173.39 1370.46 1173.39 1370.46 1180.46 737.458 1180.46ZM1366.93 1166.32 1388.13 1176.93 1366.93 1187.53Z" fill="#4472C4" transform="matrix(1 0 0 1.00004 1966.66 495.135)"/><path d="M995.757 906.63 1176.93 907.331 1176.91 914.401 995.726 913.692ZM1173.43 900.254 1194.59 910.94 1173.35 921.456Z" fill="#4472C4" transform="matrix(1 0 0 1.00004 1966.66 495.135)"/><path d="M1375.88 909.274 1451.21 1051.26 1444.96 1054.58 1369.64 912.589ZM1455.79 1044.83 1456.37 1068.53 1437.07 1054.77Z" fill="#4472C4" transform="matrix(1 0 0 1.00004 1966.66 495.135)"/><path d="M688.288 935.82 711.081 935.82 709.37 943.583 706.286 943.583C706.206 942.057 706.061 940.985 705.852 940.376 705.644 939.767 705.323 939.32 704.889 939.05 704.455 938.78 703.845 938.641 703.057 938.641L697.613 938.641 694.962 950.684 698.191 950.684C699.138 950.684 699.906 950.384 700.492 949.775 701.078 949.165 701.668 948.171 702.263 946.806L704.913 946.806 702.383 957.554 699.902 957.554C699.902 956.428 699.842 955.596 699.721 955.048 699.6 954.501 699.387 954.108 699.082 953.869 698.777 953.63 698.303 953.506 697.66 953.506L694.36 953.506 692.432 962.203C692.32 962.72 692.24 963.167 692.192 963.545 692.143 963.922 692.119 964.416 692.119 965.025 692.119 965.765 692.308 966.282 692.685 966.59 693.063 966.898 693.653 967.068 694.456 967.122L694.119 968.71 681.662 968.71 682 967.122C682.915 966.86 683.59 966.413 684.024 965.773 684.457 965.125 684.867 963.938 685.253 962.203L689.637 942.327C689.846 941.378 689.951 940.438 689.951 939.505 689.951 938.834 689.794 938.341 689.481 938.025 689.168 937.716 688.658 937.508 687.951 937.416Z" fill-rule="evenodd" transform="matrix(1 0 0 1.00004 1966.66 495.135)"/><path d="M742.246 962.804C741.138 962.804 740.165 963.344 739.327 964.431 738.49 965.518 737.809 966.991 737.283 968.864 736.758 970.73 736.496 972.419 736.496 973.914 736.496 974.778 736.623 975.418 736.876 975.842 737.13 976.266 737.522 976.482 738.054 976.482 738.832 976.482 739.625 976.096 740.433 975.341 741.241 974.578 741.893 973.683 742.388 972.658 742.884 971.632 743.326 970.229 743.715 968.448L743.857 967.793C744.046 966.922 744.14 966.058 744.14 965.21 744.14 964.408 743.993 963.807 743.697 963.406 743.403 963.005 742.919 962.804 742.246 962.804ZM742.034 960.962C743.792 960.962 745.29 961.386 746.529 962.234L748.121 960.962 750.103 961.247 745.609 981.702C745.479 982.28 745.396 982.712 745.361 982.989 745.326 983.274 745.308 983.513 745.308 983.714 745.308 984.238 745.438 984.601 745.697 984.816 745.956 985.025 746.417 985.171 747.077 985.256L746.882 986.428 739.539 986.428 742.424 975.541 742.194 975.472C741.226 976.698 740.268 977.608 739.318 978.209 738.369 978.803 737.233 979.096 735.913 979.096 734.568 979.096 733.526 978.61 732.789 977.638 732.052 976.667 731.684 975.264 731.684 973.436 731.684 971.848 731.914 970.268 732.374 968.695 732.834 967.13 733.494 965.773 734.355 964.632 735.216 963.498 736.299 962.596 737.602 961.949 738.906 961.293 740.383 960.962 742.034 960.962ZM723.328 960.962C724.237 960.962 725.213 961.039 726.257 961.185 727.301 961.332 728.253 961.532 729.114 961.779L728.194 966.004 725.947 966.004C725.841 964.909 725.56 964.1 725.106 963.583 724.652 963.067 724.001 962.804 723.151 962.804 722.361 962.804 721.727 963.005 721.249 963.413 720.772 963.822 720.533 964.37 720.533 965.071 720.533 965.68 720.733 966.22 721.134 966.675 721.535 967.137 722.314 967.716 723.47 968.41 724.72 969.157 725.617 969.921 726.16 970.715 726.702 971.501 726.973 972.426 726.973 973.49 726.973 974.693 726.651 975.719 726.009 976.567 725.366 977.415 724.487 978.047 723.372 978.463 722.258 978.872 720.987 979.08 719.56 979.08 717.271 979.08 715.077 978.795 712.978 978.232L713.969 973.845 716.215 973.845C716.275 974.909 716.548 975.734 717.038 976.335 717.527 976.937 718.28 977.245 719.294 977.245 720.226 977.245 720.945 977.014 721.453 976.559 721.96 976.104 722.214 975.464 722.214 974.639 722.214 974.146 722.131 973.729 721.966 973.383 721.801 973.043 721.53 972.712 721.152 972.388 720.775 972.056 720.161 971.64 719.312 971.116 718.132 970.414 717.274 969.674 716.737 968.918 716.201 968.155 715.932 967.307 715.932 966.359 715.932 964.624 716.581 963.29 717.879 962.357 719.176 961.432 720.993 960.962 723.328 960.962Z" fill-rule="evenodd" transform="matrix(1 0 0 1.00004 1966.66 495.135)"/><path d="M772.808 933.892 773.463 935.75C769.702 936.984 766.92 939.397 765.113 942.99 763.305 946.583 762.402 951.093 762.402 956.521 762.402 962.141 763.305 966.775 765.113 970.422 766.92 974.069 769.678 976.505 773.386 977.746L772.808 979.597C768.104 978.363 764.498 975.703 761.992 971.609 759.487 967.523 758.234 962.573 758.234 956.76 758.234 950.962 759.49 946.012 762.005 941.903 764.518 937.801 768.12 935.133 772.808 933.892Z" fill-rule="evenodd" transform="matrix(1 0 0 1.00004 1966.66 495.135)"/><path d="M785.252 947.292C786.678 947.292 787.943 947.6 789.045 948.217 790.148 948.834 790.996 949.698 791.589 950.808 792.183 951.918 792.476 953.175 792.476 954.593 792.476 955.989 792.16 957.245 791.528 958.371 790.896 959.497 790.009 960.376 788.875 961.008 787.742 961.648 786.47 961.964 785.059 961.964 783.625 961.964 782.361 961.648 781.266 961.008 780.163 960.376 779.315 959.497 778.706 958.364 778.105 957.23 777.804 955.966 777.804 954.57 777.804 953.252 778.12 952.034 778.76 950.931 779.392 949.821 780.286 948.934 781.435 948.279 782.584 947.623 783.856 947.292 785.252 947.292Z" fill-rule="evenodd" transform="matrix(1 0 0 1.00004 1966.66 495.135)"/><path d="M797.865 933.892C802.561 935.133 806.161 937.801 808.675 941.903 811.188 946.012 812.445 950.962 812.445 956.76 812.445 962.573 811.188 967.523 808.682 971.609 806.177 975.703 802.576 978.363 797.865 979.597L797.287 977.746C801.003 976.505 803.756 974.069 805.567 970.422 807.372 966.775 808.274 962.141 808.274 956.521 808.274 951.093 807.379 946.583 805.575 942.99 803.779 939.397 800.996 936.984 797.218 935.75Z" fill-rule="evenodd" transform="matrix(1 0 0 1.00004 1966.66 495.135)"/><path d="M1007.66 938.001 1030.45 938.001 1028.74 945.758 1025.66 945.758C1025.58 944.231 1025.43 943.167 1025.22 942.558 1025.02 941.949 1024.69 941.502 1024.26 941.232 1023.83 940.954 1023.21 940.823 1022.43 940.823L1016.98 940.823 1014.33 952.866 1017.56 952.866C1018.51 952.866 1019.27 952.566 1019.86 951.949 1020.44 951.34 1021.04 950.353 1021.63 948.988L1024.28 948.988 1021.75 959.736 1019.27 959.736C1019.27 958.61 1019.21 957.778 1019.09 957.23 1018.97 956.683 1018.76 956.289 1018.45 956.051 1018.15 955.804 1017.68 955.688 1017.03 955.688L1013.73 955.688 1011.8 964.385C1011.69 964.902 1011.61 965.341 1011.56 965.719 1011.52 966.097 1011.49 966.59 1011.49 967.207 1011.49 967.939 1011.68 968.464 1012.06 968.772 1012.43 969.073 1013.02 969.25 1013.83 969.296L1013.49 970.892 1001.03 970.892 1001.37 969.296C1002.29 969.042 1002.96 968.595 1003.4 967.947 1003.83 967.307 1004.24 966.12 1004.62 964.385L1009.01 944.509C1009.22 943.56 1009.32 942.62 1009.32 941.687 1009.32 941.016 1009.16 940.523 1008.85 940.206 1008.54 939.89 1008.03 939.69 1007.32 939.59Z" fill-rule="evenodd" transform="matrix(1 0 0 1.00004 1966.66 495.135)"/><path d="M1043.83 964.986C1042.73 964.986 1041.75 965.526 1040.87 966.613 1039.99 967.7 1039.26 969.281 1038.7 971.355 1040.87 971.293 1042.53 970.877 1043.68 970.106 1044.83 969.335 1045.41 968.24 1045.41 966.821 1045.41 966.22 1045.27 965.765 1044.99 965.449 1044.72 965.141 1044.33 964.986 1043.83 964.986ZM1059.66 963.144C1060.61 963.144 1061.33 963.282 1061.82 963.568 1062.32 963.853 1062.73 964.346 1063.04 965.048 1063.37 965.75 1063.67 966.868 1063.94 968.417L1064.12 968.417C1065 967.191 1065.68 966.266 1066.16 965.649 1066.64 965.025 1067.09 964.531 1067.51 964.161 1067.91 963.791 1068.32 963.529 1068.71 963.375 1069.09 963.221 1069.56 963.144 1070.09 963.144 1070.67 963.144 1071.28 963.252 1071.88 963.46L1071.04 967.284 1069.45 967.284C1069.39 966.79 1069.17 966.544 1068.79 966.544 1068.63 966.544 1068.45 966.582 1068.28 966.667 1068.09 966.744 1067.84 966.929 1067.54 967.222 1067.24 967.508 1066.87 967.932 1066.43 968.479 1065.98 969.026 1065.3 969.859 1064.41 970.985 1064.82 973.467 1065.16 975.256 1065.42 976.335 1065.69 977.415 1065.96 978.109 1066.25 978.433 1066.41 978.61 1066.61 978.695 1066.85 978.695 1067.14 978.695 1067.42 978.579 1067.68 978.348 1067.92 978.124 1068.25 977.608 1068.65 976.806L1070.27 977.546C1069.58 978.795 1068.8 979.728 1067.94 980.345 1067.07 980.954 1066.06 981.262 1064.88 981.262 1064.17 981.262 1063.59 981.17 1063.16 980.984 1062.73 980.807 1062.36 980.499 1062.06 980.075 1061.76 979.651 1061.5 979.049 1061.27 978.278 1061.04 977.507 1060.82 976.497 1060.62 975.248L1060.44 975.248C1059.44 976.682 1058.64 977.785 1058.04 978.54 1057.44 979.288 1056.92 979.859 1056.49 980.237 1056.06 980.614 1055.65 980.877 1055.25 981.031 1054.85 981.185 1054.38 981.262 1053.83 981.262 1053.57 981.262 1053.25 981.231 1052.88 981.162 1052.51 981.1 1052.22 981.031 1052.04 980.961L1052.87 977.122 1054.46 977.122C1054.48 977.369 1054.54 977.554 1054.65 977.677 1054.76 977.8 1054.91 977.862 1055.08 977.862 1055.29 977.862 1055.49 977.823 1055.68 977.731 1055.86 977.646 1056.11 977.446 1056.43 977.137 1056.76 976.829 1057.17 976.382 1057.67 975.788 1058.16 975.187 1059 974.146 1060.18 972.642 1059.93 971.255 1059.7 970.052 1059.48 969.042 1059.26 968.039 1059.06 967.307 1058.89 966.852 1058.71 966.397 1058.54 966.089 1058.38 965.942 1058.22 965.788 1058.05 965.711 1057.85 965.711 1057.61 965.711 1057.4 965.773 1057.22 965.896 1057.04 966.019 1056.86 966.22 1056.67 966.497 1056.47 966.775 1056.26 967.145 1056.04 967.6L1054.43 966.86C1055.12 965.611 1055.88 964.678 1056.73 964.061 1057.59 963.452 1058.57 963.144 1059.66 963.144ZM1044.28 963.144C1047.88 963.144 1049.69 964.447 1049.69 967.053 1049.69 967.947 1049.51 968.741 1049.15 969.427 1048.79 970.106 1048.19 970.73 1047.35 971.285 1046.51 971.841 1045.33 972.288 1043.81 972.627 1042.28 972.966 1040.44 973.167 1038.28 973.213 1038.12 973.907 1038.05 974.624 1038.05 975.372 1038.05 976.466 1038.28 977.291 1038.73 977.847 1039.19 978.402 1039.89 978.679 1040.82 978.679 1041.86 978.679 1042.8 978.471 1043.64 978.047 1044.48 977.631 1045.46 976.883 1046.59 975.811L1048.08 977.299C1046.89 978.641 1045.6 979.643 1044.23 980.291 1042.86 980.938 1041.37 981.262 1039.76 981.262 1038.38 981.262 1037.21 981.023 1036.24 980.537 1035.27 980.052 1034.55 979.335 1034.05 978.386 1033.57 977.438 1033.32 976.305 1033.32 974.978 1033.32 974.369 1033.4 973.583 1033.57 972.627 1033.79 971.332 1034.14 970.175 1034.59 969.157 1035.17 967.908 1035.93 966.837 1036.86 965.942 1037.79 965.04 1038.89 964.354 1040.14 963.868 1041.4 963.383 1042.77 963.144 1044.28 963.144Z" fill-rule="evenodd" transform="matrix(1 0 0 1.00004 1966.66 495.135)"/><path d="M1093.06 936.074 1093.71 937.932C1089.96 939.166 1087.17 941.579 1085.36 945.172 1083.56 948.757 1082.66 953.267 1082.66 958.695 1082.66 964.323 1083.56 968.957 1085.36 972.604 1087.17 976.243 1089.93 978.687 1093.64 979.928L1093.06 981.779C1088.35 980.545 1084.75 977.877 1082.25 973.791 1079.74 969.705 1078.48 964.755 1078.48 958.942 1078.48 953.144 1079.74 948.186 1082.25 944.085 1084.77 939.983 1088.38 937.308 1093.06 936.074Z" fill-rule="evenodd" transform="matrix(1 0 0 1.00004 1966.66 495.135)"/><path d="M1105.5 949.474C1106.93 949.474 1108.2 949.782 1109.3 950.399 1110.4 951.016 1111.24 951.879 1111.84 952.99 1112.43 954.1 1112.73 955.357 1112.73 956.768 1112.73 958.171 1112.42 959.427 1111.78 960.553 1111.14 961.679 1110.27 962.558 1109.13 963.19 1108 963.83 1106.73 964.146 1105.31 964.146 1103.88 964.146 1102.62 963.83 1101.51 963.19 1100.42 962.558 1099.56 961.671 1098.96 960.545 1098.36 959.412 1098.06 958.148 1098.06 956.744 1098.06 955.426 1098.38 954.216 1099.01 953.105 1099.65 952.003 1100.54 951.116 1101.68 950.461 1102.83 949.798 1104.1 949.474 1105.5 949.474Z" fill-rule="evenodd" transform="matrix(1 0 0 1.00004 1966.66 495.135)"/><path d="M1119.79 965.302 1124 965.302C1124.23 966.428 1124.34 967.531 1124.34 968.625 1124.34 969.751 1124.14 970.777 1123.76 971.709 1123.37 972.642 1122.76 973.568 1121.91 974.493 1121.07 975.418 1119.91 976.428 1118.44 977.538L1117.13 976.073C1117.95 975.302 1118.55 974.601 1118.92 973.984 1119.29 973.367 1119.55 972.665 1119.71 971.879 1119.87 971.093 1119.95 970.106 1119.95 968.911 1119.95 967.693 1119.89 966.49 1119.79 965.302Z" fill-rule="evenodd" transform="matrix(1 0 0 1.00004 1966.66 495.135)"/><path d="M1137.86 938.001 1150.19 938.001 1149.83 939.59C1149.33 939.659 1148.92 939.767 1148.6 939.929 1148.28 940.091 1148.02 940.314 1147.82 940.592 1147.62 940.87 1147.47 941.224 1147.37 941.641 1147.28 942.057 1147.23 942.442 1147.22 942.797 1147.21 943.152 1147.2 944.162 1147.18 945.835L1147.09 954.894C1147.07 956.482 1146.99 959.042 1146.84 962.581L1147.16 962.581C1147.7 961.34 1148.88 958.926 1150.67 955.326L1159.37 938.001 1164.65 938.001 1164.67 953.784 1164.7 955.927C1164.7 958.178 1164.64 960.391 1164.53 962.581L1164.84 962.581C1165.6 961 1166.96 958.279 1168.91 954.408L1172.5 947.4C1173.21 946.035 1173.73 944.917 1174.07 944.046 1174.4 943.183 1174.57 942.458 1174.57 941.88 1174.57 941.402 1174.52 941.016 1174.4 940.723 1174.3 940.438 1174.09 940.191 1173.78 939.998 1173.48 939.806 1173.06 939.675 1172.53 939.59L1172.89 938.001 1183.13 938.001 1182.77 939.59C1182.24 939.69 1181.77 939.883 1181.36 940.168 1180.95 940.461 1180.56 940.846 1180.19 941.325 1179.82 941.81 1179.46 942.358 1179.11 942.974 1178.75 943.599 1178.27 944.462 1177.68 945.565L1163.88 971.062 1158.1 971.062 1158.04 955.542 1158.04 951.448C1158.04 950.399 1158.06 949.312 1158.07 948.171L1157.76 948.171C1157.23 949.358 1156.69 950.469 1156.17 951.494L1146.34 971.062 1140.56 971.062 1140.07 945.426C1140.04 943.9 1139.93 942.743 1139.72 941.957 1139.52 941.163 1139.25 940.6 1138.92 940.253 1138.58 939.906 1138.11 939.69 1137.5 939.59Z" fill-rule="evenodd" transform="matrix(1 0 0 1.00004 1966.66 495.135)"/><path d="M1185.12 936.074C1189.81 937.308 1193.41 939.983 1195.92 944.085 1198.44 948.186 1199.7 953.144 1199.7 958.942 1199.7 964.755 1198.44 969.705 1195.94 973.791 1193.43 977.877 1189.82 980.545 1185.12 981.779L1184.54 979.928C1188.25 978.687 1191.01 976.243 1192.82 972.604 1194.63 968.957 1195.53 964.323 1195.53 958.695 1195.53 953.267 1194.63 948.757 1192.83 945.172 1191.03 941.579 1188.24 939.166 1184.47 937.932Z" fill-rule="evenodd" transform="matrix(1 0 0 1.00004 1966.66 495.135)"/><path d="M1212.75 1077.05 1235.54 1077.05 1233.83 1084.81 1230.75 1084.81C1230.66 1083.28 1230.52 1082.22 1230.31 1081.61 1230.1 1081 1229.79 1080.55 1229.35 1080.28 1228.91 1080 1228.3 1079.87 1227.52 1079.87L1222.08 1079.87 1219.42 1091.92 1222.65 1091.92C1223.6 1091.92 1224.36 1091.61 1224.95 1091.01 1225.54 1090.39 1226.13 1089.4 1226.72 1088.04L1229.38 1088.04 1226.84 1098.79 1224.36 1098.79C1224.36 1097.66 1224.3 1096.83 1224.18 1096.28 1224.06 1095.73 1223.85 1095.34 1223.54 1095.1 1223.24 1094.86 1222.76 1094.74 1222.12 1094.74L1218.82 1094.74 1216.89 1103.43C1216.78 1103.95 1216.7 1104.39 1216.65 1104.77 1216.6 1105.15 1216.58 1105.64 1216.58 1106.26 1216.58 1106.99 1216.77 1107.51 1217.15 1107.82 1217.53 1108.12 1218.11 1108.3 1218.91 1108.35L1218.58 1109.94 1206.12 1109.94 1206.46 1108.35C1207.37 1108.09 1208.05 1107.64 1208.48 1107 1208.91 1106.36 1209.33 1105.17 1209.72 1103.43L1214.1 1083.56C1214.3 1082.61 1214.41 1081.67 1214.41 1080.74 1214.41 1080.07 1214.26 1079.57 1213.94 1079.26 1213.62 1078.94 1213.12 1078.74 1212.41 1078.64Z" fill-rule="evenodd" transform="matrix(1 0 0 1.00004 1966.66 495.135)"/><path d="M1320.62 1104.04C1319.53 1104.04 1318.53 1104.58 1317.66 1105.66 1316.78 1106.75 1316.06 1108.33 1315.49 1110.4 1317.66 1110.34 1319.32 1109.93 1320.47 1109.15 1321.63 1108.38 1322.2 1107.29 1322.2 1105.87 1322.2 1105.27 1322.06 1104.81 1321.78 1104.5 1321.5 1104.19 1321.12 1104.04 1320.62 1104.04ZM1285.21 1104.04C1284.12 1104.04 1283.14 1104.58 1282.29 1105.69 1281.44 1106.79 1280.76 1108.28 1280.24 1110.13 1279.72 1112 1279.46 1113.67 1279.46 1115.15 1279.46 1116.01 1279.58 1116.65 1279.84 1117.07 1280.09 1117.5 1280.49 1117.71 1281.02 1117.71 1281.8 1117.71 1282.59 1117.33 1283.4 1116.57 1284.2 1115.81 1284.86 1114.91 1285.35 1113.89 1285.84 1112.86 1286.29 1111.46 1286.68 1109.68L1286.82 1109.02C1287.01 1108.15 1287.1 1107.27 1287.1 1106.4 1287.1 1105.62 1286.95 1105.04 1286.66 1104.64 1286.37 1104.24 1285.88 1104.04 1285.21 1104.04ZM1321.06 1102.19C1324.67 1102.19 1326.48 1103.5 1326.48 1106.1 1326.48 1107 1326.3 1107.79 1325.94 1108.48 1325.58 1109.15 1324.98 1109.78 1324.15 1110.33 1323.31 1110.89 1322.13 1111.34 1320.59 1111.68 1319.07 1112.02 1317.22 1112.22 1315.06 1112.26 1314.91 1112.96 1314.83 1113.67 1314.83 1114.42 1314.83 1115.52 1315.06 1116.34 1315.53 1116.9 1315.99 1117.45 1316.68 1117.73 1317.62 1117.73 1318.65 1117.73 1319.59 1117.52 1320.43 1117.1 1321.26 1116.68 1322.25 1115.93 1323.38 1114.86L1324.87 1116.35C1323.68 1117.69 1322.4 1118.69 1321.02 1119.34 1319.64 1119.99 1318.16 1120.31 1316.55 1120.31 1315.17 1120.31 1314 1120.07 1313.03 1119.59 1312.07 1119.1 1311.33 1118.38 1310.85 1117.44 1310.35 1116.49 1310.11 1115.35 1310.11 1114.03 1310.11 1113.42 1310.19 1112.63 1310.36 1111.68 1310.59 1110.38 1310.92 1109.22 1311.39 1108.21 1311.97 1106.96 1312.72 1105.89 1313.65 1104.99 1314.59 1104.09 1315.67 1103.4 1316.93 1102.92 1318.19 1102.43 1319.57 1102.19 1321.06 1102.19ZM1285 1102.19C1286.75 1102.19 1288.26 1102.62 1289.49 1103.46L1291.21 1102.19 1293.19 1102.48 1290.32 1114.51C1290.15 1115.25 1290.06 1115.92 1290.06 1116.53 1290.06 1116.91 1290.12 1117.21 1290.25 1117.43 1290.39 1117.64 1290.61 1117.74 1290.92 1117.74 1291.29 1117.74 1291.69 1117.58 1292.11 1117.25 1292.54 1116.92 1293.03 1116.43 1293.6 1115.79L1294.87 1117.06C1293.63 1118.29 1292.57 1119.15 1291.67 1119.61 1290.77 1120.08 1289.83 1120.31 1288.84 1120.31 1287.85 1120.31 1287.06 1120.03 1286.48 1119.49 1285.91 1118.94 1285.62 1118.21 1285.62 1117.32 1285.62 1117.03 1285.65 1116.74 1285.72 1116.47L1285.47 1116.43C1284.62 1117.45 1283.88 1118.21 1283.25 1118.73 1282.64 1119.24 1281.98 1119.63 1281.28 1119.9 1280.59 1120.17 1279.81 1120.31 1278.97 1120.31 1277.55 1120.31 1276.48 1119.83 1275.74 1118.87 1275.01 1117.91 1274.65 1116.51 1274.65 1114.67 1274.65 1113.07 1274.88 1111.49 1275.34 1109.93 1275.8 1108.35 1276.46 1107 1277.32 1105.86 1278.18 1104.73 1279.26 1103.83 1280.56 1103.17 1281.87 1102.52 1283.35 1102.19 1285 1102.19ZM1266.95 1102.19C1267.74 1102.19 1268.6 1102.25 1269.52 1102.38 1270.44 1102.5 1271.26 1102.68 1271.96 1102.9L1270.97 1107.22 1267.79 1107.22C1267.81 1106.97 1267.82 1106.72 1267.82 1106.46 1267.82 1105.61 1267.69 1104.99 1267.43 1104.61 1267.17 1104.23 1266.79 1104.04 1266.28 1104.04 1265.41 1104.04 1264.58 1104.54 1263.79 1105.54 1263 1106.54 1262.34 1107.93 1261.8 1109.71 1261.27 1111.49 1261.01 1113.06 1261.01 1114.41 1261.01 1116.62 1261.82 1117.73 1263.43 1117.73 1264.25 1117.73 1265.02 1117.54 1265.74 1117.18 1266.47 1116.81 1267.29 1116.2 1268.21 1115.34L1269.65 1116.88C1268.4 1118.11 1267.16 1119 1265.93 1119.52 1264.69 1120.05 1263.32 1120.31 1261.84 1120.31 1260.04 1120.31 1258.64 1119.75 1257.64 1118.62 1256.64 1117.5 1256.15 1115.93 1256.15 1113.93 1256.15 1112.05 1256.56 1110.13 1257.41 1108.19 1258.25 1106.25 1259.5 1104.76 1261.15 1103.73 1262.8 1102.71 1264.73 1102.19 1266.95 1102.19ZM1247.79 1102.19C1248.7 1102.19 1249.67 1102.27 1250.72 1102.42 1251.76 1102.56 1252.71 1102.76 1253.57 1103.01L1252.65 1107.24 1250.41 1107.24C1250.3 1106.14 1250.02 1105.33 1249.57 1104.81 1249.11 1104.29 1248.46 1104.04 1247.61 1104.04 1246.82 1104.04 1246.18 1104.24 1245.71 1104.64 1245.23 1105.05 1244.99 1105.6 1244.99 1106.29 1244.99 1106.91 1245.19 1107.45 1245.59 1107.91 1245.99 1108.37 1246.77 1108.95 1247.93 1109.64 1249.18 1110.39 1250.08 1111.15 1250.62 1111.95 1251.16 1112.73 1251.43 1113.66 1251.43 1114.72 1251.43 1115.92 1251.11 1116.95 1250.47 1117.8 1249.82 1118.65 1248.94 1119.28 1247.83 1119.69 1246.72 1120.1 1245.44 1120.31 1244.02 1120.31 1241.73 1120.31 1239.54 1120.03 1237.44 1119.46L1238.43 1115.08 1240.67 1115.08C1240.73 1116.13 1241.01 1116.97 1241.5 1117.57 1241.99 1118.17 1242.74 1118.47 1243.76 1118.47 1244.69 1118.47 1245.41 1118.24 1245.91 1117.79 1246.42 1117.34 1246.67 1116.7 1246.67 1115.87 1246.67 1115.38 1246.59 1114.95 1246.42 1114.61 1246.26 1114.27 1245.99 1113.94 1245.61 1113.61 1245.24 1113.29 1244.62 1112.87 1243.77 1112.35 1242.59 1111.64 1241.74 1110.91 1241.2 1110.15 1240.66 1109.39 1240.39 1108.53 1240.39 1107.59 1240.39 1105.85 1241.04 1104.52 1242.34 1103.59 1243.64 1102.66 1245.45 1102.19 1247.79 1102.19ZM1305.32 1094.69 1307.32 1094.69 1302.79 1114.45C1302.61 1115.28 1302.51 1115.97 1302.51 1116.53 1302.51 1116.99 1302.58 1117.3 1302.74 1117.48 1302.89 1117.66 1303.11 1117.74 1303.39 1117.74 1303.74 1117.74 1304.12 1117.58 1304.54 1117.26 1304.96 1116.93 1305.47 1116.44 1306.04 1115.79L1307.32 1117.06C1306.17 1118.24 1305.13 1119.07 1304.22 1119.57 1303.3 1120.06 1302.3 1120.31 1301.2 1120.31 1299.95 1120.31 1299.04 1120 1298.46 1119.39 1297.88 1118.78 1297.59 1117.85 1297.59 1116.61 1297.59 1115.92 1297.72 1114.99 1297.98 1113.83L1301.15 1100.03C1301.4 1098.9 1301.53 1098.06 1301.53 1097.51 1301.53 1097.24 1301.51 1097.04 1301.46 1096.9 1301.4 1096.75 1301.33 1096.63 1301.22 1096.53 1301.11 1096.43 1300.97 1096.36 1300.79 1096.31 1300.62 1096.26 1300.27 1096.19 1299.75 1096.12L1300.03 1094.98Z" fill-rule="evenodd" transform="matrix(1 0 0 1.00004 1966.66 495.135)"/><path d="M1349.39 1075.12 1350.04 1076.98C1346.28 1078.21 1343.5 1080.63 1341.69 1084.22 1339.89 1087.81 1338.98 1092.32 1338.98 1097.75 1338.98 1103.37 1339.89 1108.01 1341.69 1111.65 1343.5 1115.3 1346.26 1117.74 1349.97 1118.98L1349.39 1120.83C1344.69 1119.59 1341.08 1116.93 1338.57 1112.84 1336.07 1108.75 1334.82 1103.8 1334.82 1097.99 1334.82 1092.19 1336.07 1087.24 1338.59 1083.13 1341.1 1079.03 1344.7 1076.36 1349.39 1075.12Z" fill-rule="evenodd" transform="matrix(1 0 0 1.00004 1966.66 495.135)"/><path d="M1361.83 1088.52C1363.26 1088.52 1364.52 1088.83 1365.63 1089.45 1366.73 1090.07 1367.58 1090.93 1368.17 1092.04 1368.76 1093.15 1369.06 1094.41 1369.06 1095.82 1369.06 1097.22 1368.74 1098.48 1368.11 1099.6 1367.48 1100.73 1366.59 1101.61 1365.46 1102.24 1364.32 1102.88 1363.05 1103.2 1361.64 1103.2 1360.21 1103.2 1358.94 1102.88 1357.85 1102.24 1356.74 1101.61 1355.9 1100.72 1355.29 1099.59 1354.69 1098.46 1354.39 1097.2 1354.39 1095.79 1354.39 1094.48 1354.7 1093.26 1355.34 1092.16 1355.97 1091.05 1356.87 1090.17 1358.02 1089.51 1359.17 1088.85 1360.44 1088.52 1361.83 1088.52Z" fill-rule="evenodd" transform="matrix(1 0 0 1.00004 1966.66 495.135)"/><path d="M1376.11 1104.35 1380.33 1104.35C1380.55 1105.48 1380.67 1106.58 1380.67 1107.67 1380.67 1108.8 1380.48 1109.83 1380.09 1110.76 1379.71 1111.69 1379.09 1112.62 1378.25 1113.54 1377.4 1114.47 1376.24 1115.48 1374.76 1116.59L1373.46 1115.12C1374.29 1114.35 1374.88 1113.66 1375.25 1113.03 1375.61 1112.42 1375.88 1111.71 1376.04 1110.93 1376.2 1110.14 1376.28 1109.15 1376.28 1107.97 1376.28 1106.74 1376.23 1105.54 1376.11 1104.35Z" fill-rule="evenodd" transform="matrix(1 0 0 1.00004 1966.66 495.135)"/><path d="M1394.08 1088.52C1395.51 1088.52 1396.78 1088.83 1397.87 1089.45 1398.97 1090.07 1399.82 1090.93 1400.41 1092.04 1401.01 1093.15 1401.31 1094.41 1401.31 1095.82 1401.31 1097.22 1400.99 1098.48 1400.35 1099.6 1399.72 1100.73 1398.83 1101.61 1397.71 1102.24 1396.57 1102.88 1395.3 1103.2 1393.88 1103.2 1392.46 1103.2 1391.19 1102.88 1390.09 1102.24 1388.99 1101.61 1388.14 1100.72 1387.54 1099.59 1386.94 1098.46 1386.64 1097.2 1386.64 1095.79 1386.64 1094.48 1386.95 1093.26 1387.58 1092.16 1388.22 1091.05 1389.11 1090.17 1390.26 1089.51 1391.41 1088.85 1392.68 1088.52 1394.08 1088.52Z" fill-rule="evenodd" transform="matrix(1 0 0 1.00004 1966.66 495.135)"/><path d="M1406.7 1075.12C1411.39 1076.36 1414.99 1079.03 1417.5 1083.13 1420.01 1087.24 1421.27 1092.19 1421.27 1097.99 1421.27 1103.8 1420.02 1108.75 1417.51 1112.84 1415.01 1116.93 1411.4 1119.59 1406.7 1120.83L1406.12 1118.98C1409.83 1117.74 1412.59 1115.3 1414.39 1111.65 1416.2 1108.01 1417.11 1103.37 1417.11 1097.75 1417.11 1092.32 1416.2 1087.81 1414.41 1084.22 1412.6 1080.63 1409.82 1078.21 1406.04 1076.98Z" fill-rule="evenodd" transform="matrix(1 0 0 1.00004 1966.66 495.135)"/><path d="M427.517 974.03C427.517 915.758 474.751 868.527 533.017 868.527L1584.13 868.527C1642.41 868.527 1689.64 915.758 1689.64 974.03L1689.64 1396.01C1689.64 1454.28 1642.41 1501.51 1584.13 1501.51L533.017 1501.51C474.751 1501.51 427.517 1454.28 427.517 1396.01Z" stroke="#000000" stroke-width="5.3006" stroke-linecap="square" stroke-miterlimit="8" stroke-dasharray="15.9018 5.3006" fill="none" fill-rule="evenodd" transform="matrix(1 0 0 1.00004 1966.66 495.135)"/><text font-family="Arial,Arial_MSFontService,sans-serif" font-weight="700" font-size="83" transform="matrix(0.770996 0 0 0.771028 2118.48 1968)">SE</text><text font-family="Arial,Arial_MSFontService,sans-serif" font-weight="700" font-size="83" transform="matrix(0.770996 0 0 0.771028 2203.29 1968)">-</text><text font-family="Arial,Arial_MSFontService,sans-serif" font-weight="700" font-size="83" transform="matrix(0.770996 0 0 0.771028 2224.49 1968)">Block</text></g></g></g></g><g clip-path="url(#clip9)"><g clip-path="url(#clip10)"><g clip-path="url(#clip11)"><g clip-path="url(#clip12)"><path d="M4243.4 703.583C4243.4 622.568 4309.08 556.893 4390.09 556.893 4471.11 556.893 4536.79 622.568 4536.79 703.583 4536.79 784.598 4471.11 850.274 4390.09 850.274 4309.08 850.274 4243.4 784.598 4243.4 703.583Z" fill="#4472C4" fill-rule="evenodd" transform="matrix(1 0 0 1.00005 -721.222 166.155)"/><path d="M4390.09 556.893 4390.09 850.274M4243.4 703.583 4536.79 703.583" stroke="#2F528F" stroke-width="6.08444" stroke-miterlimit="8" fill="none" fill-rule="evenodd" transform="matrix(1 0 0 1.00005 -721.222 166.155)"/><path d="M4243.4 703.583C4243.4 622.568 4309.08 556.893 4390.09 556.893 4471.11 556.893 4536.79 622.568 4536.79 703.583 4536.79 784.598 4471.11 850.274 4390.09 850.274 4309.08 850.274 4243.4 784.598 4243.4 703.583Z" stroke="#2F528F" stroke-width="6.08444" stroke-miterlimit="8" fill="none" fill-rule="evenodd" transform="matrix(1 0 0 1.00005 -721.222 166.155)"/><path d="M3606.2 533.491 3873.86 533.491 3873.86 1061.35 3606.2 1061.35Z" fill="#FF0000" transform="matrix(1 0 0 1.00005 -721.222 166.155)"/><path d="M3873.86 533.491 4070.83 336.525 4070.83 864.383 3873.86 1061.35Z" fill="#CD0000" fill-rule="evenodd" transform="matrix(1 0 0 1.00005 -721.222 166.155)"/><path d="M3606.2 533.491 3803.16 336.525 4070.83 336.525 3873.86 533.491Z" fill="#FF3232" fill-rule="evenodd" transform="matrix(1 0 0 1.00005 -721.222 166.155)"/><path d="M3606.2 533.491 3803.16 336.525 4070.83 336.525 4070.83 864.383 3873.86 1061.35 3606.2 1061.35ZM3606.2 533.491 3873.86 533.491 4070.83 336.525M3873.86 533.491 3873.86 1061.35" stroke="#FF0000" stroke-width="6.08444" stroke-miterlimit="8" fill="none" fill-rule="evenodd" transform="matrix(1 0 0 1.00005 -721.222 166.155)"/><path d="M1017.54 479.231 1156.27 479.231 1156.27 1013.56 1017.54 1013.56Z" fill="#C55A11" transform="matrix(1 0 0 1.00005 -721.222 166.155)"/><path d="M1156.27 479.231 1346.76 288.735 1346.76 823.062 1156.27 1013.56Z" fill="#9E480E" fill-rule="evenodd" transform="matrix(1 0 0 1.00005 -721.222 166.155)"/><path d="M1017.54 479.231 1208.04 288.735 1346.76 288.735 1156.27 479.231Z" fill="#D07A40" fill-rule="evenodd" transform="matrix(1 0 0 1.00005 -721.222 166.155)"/><path d="M1017.54 479.231 1208.04 288.735 1346.76 288.735 1346.76 823.062 1156.27 1013.56 1017.54 1013.56ZM1017.54 479.231 1156.27 479.231 1346.76 288.735M1156.27 479.231 1156.27 1013.56" stroke="#C55A11" stroke-width="6.08444" stroke-miterlimit="8" fill="none" fill-rule="evenodd" transform="matrix(1 0 0 1.00005 -721.222 166.155)"/><path d="M2306.56 540.129 2574.22 540.129 2574.22 1066.66 2306.56 1066.66Z" fill="#4472C4" transform="matrix(1 0 0 1.00005 -721.222 166.155)"/><path d="M2574.23 540.129 2771.19 343.163 2771.19 869.693 2574.23 1066.66Z" fill="#375C9E" fill-rule="evenodd" transform="matrix(1 0 0 1.00005 -721.222 166.155)"/><path d="M2306.56 540.129 2503.52 343.163 2771.19 343.163 2574.23 540.129Z" fill="#698ED0" fill-rule="evenodd" transform="matrix(1 0 0 1.00005 -721.222 166.155)"/><path d="M2306.56 540.129 2503.52 343.163 2771.19 343.163 2771.19 869.693 2574.23 1066.66 2306.56 1066.66ZM2306.56 540.129 2574.23 540.129 2771.19 343.163M2574.23 540.129 2574.23 1066.66" stroke="#4472C4" stroke-width="6.08444" stroke-miterlimit="8" fill="none" fill-rule="evenodd" transform="matrix(1 0 0 1.00005 -721.222 166.155)"/><path d="M2587.99 534.141 2589.5 534.141 2589.5 1066.66 2587.99 1066.66Z" fill="#7F7F7F" transform="matrix(1 0 0 1.00005 -721.222 166.155)"/><path d="M2589.51 534.141 2780.48 343.163 2780.48 875.681 2589.51 1066.66Z" fill="#666666" fill-rule="evenodd" transform="matrix(1 0 0 1.00005 -721.222 166.155)"/><path d="M2587.99 534.141 2778.97 343.163 2780.48 343.163 2589.51 534.141Z" fill="#989898" fill-rule="evenodd" transform="matrix(1 0 0 1.00005 -721.222 166.155)"/><path d="M2587.99 534.141 2778.97 343.163 2780.48 343.163 2780.48 875.681 2589.51 1066.66 2587.99 1066.66ZM2587.99 534.141 2589.51 534.141 2780.48 343.163M2589.51 534.141 2589.51 1066.66" stroke="#7F7F7F" stroke-width="6.08444" stroke-miterlimit="8" fill="none" fill-rule="evenodd" transform="matrix(1 0 0 1.00005 -721.222 166.155)"/><path d="M2599.94 534.131 2601.46 534.131 2601.46 1066.66 2599.94 1066.66Z" fill="#70AD47" transform="matrix(1 0 0 1.00005 -721.222 166.155)"/><path d="M2601.47 534.131 2793.76 341.835 2793.76 874.363 2601.47 1066.66Z" fill="#5A8B39" fill-rule="evenodd" transform="matrix(1 0 0 1.00005 -721.222 166.155)"/><path d="M2599.94 534.131 2792.23 341.835 2793.76 341.835 2601.47 534.131Z" fill="#8CBD6B" fill-rule="evenodd" transform="matrix(1 0 0 1.00005 -721.222 166.155)"/><path d="M2599.94 534.131 2792.23 341.835 2793.76 341.835 2793.76 874.363 2601.47 1066.66 2599.94 1066.66ZM2599.94 534.131 2601.47 534.131 2793.76 341.835M2601.47 534.131 2601.47 1066.66" stroke="#70AD47" stroke-width="6.08444" stroke-miterlimit="8" fill="none" fill-rule="evenodd" transform="matrix(1 0 0 1.00005 -721.222 166.155)"/><path d="M2954.39 536.146 3222.05 536.146 3222.05 1064 2954.39 1064Z" fill="#4472C4" transform="matrix(1 0 0 1.00005 -721.222 166.155)"/><path d="M3222.05 536.146 3419.02 339.18 3419.02 867.038 3222.05 1064Z" fill="#375C9E" fill-rule="evenodd" transform="matrix(1 0 0 1.00005 -721.222 166.155)"/><path d="M2954.39 536.146 3151.35 339.18 3419.02 339.18 3222.05 536.146Z" fill="#698ED0" fill-rule="evenodd" transform="matrix(1 0 0 1.00005 -721.222 166.155)"/><path d="M2954.39 536.146 3151.35 339.18 3419.02 339.18 3419.02 867.038 3222.05 1064 2954.39 1064ZM2954.39 536.146 3222.05 536.146 3419.02 339.18M3222.05 536.146 3222.05 1064" stroke="#4472C4" stroke-width="6.08444" stroke-miterlimit="8" fill="none" fill-rule="evenodd" transform="matrix(1 0 0 1.00005 -721.222 166.155)"/><path d="M3235.82 530.159 3237.33 530.159 3237.33 1064 3235.82 1064Z" fill="#7F7F7F" transform="matrix(1 0 0 1.00005 -721.222 166.155)"/><path d="M3237.33 530.159 3428.31 339.18 3428.31 873.025 3237.33 1064Z" fill="#666666" fill-rule="evenodd" transform="matrix(1 0 0 1.00005 -721.222 166.155)"/><path d="M3235.82 530.159 3426.8 339.18 3428.31 339.18 3237.33 530.159Z" fill="#989898" fill-rule="evenodd" transform="matrix(1 0 0 1.00005 -721.222 166.155)"/><path d="M3235.82 530.159 3426.8 339.18 3428.31 339.18 3428.31 873.025 3237.33 1064 3235.82 1064ZM3235.82 530.159 3237.33 530.159 3428.31 339.18M3237.33 530.159 3237.33 1064" stroke="#7F7F7F" stroke-width="6.08444" stroke-miterlimit="8" fill="none" fill-rule="evenodd" transform="matrix(1 0 0 1.00005 -721.222 166.155)"/><path d="M3247.77 531.476 3249.29 531.476 3249.29 1064 3247.77 1064Z" fill="#70AD47" transform="matrix(1 0 0 1.00005 -721.222 166.155)"/><path d="M3249.29 531.476 3441.58 339.18 3441.58 871.708 3249.29 1064Z" fill="#5A8B39" fill-rule="evenodd" transform="matrix(1 0 0 1.00005 -721.222 166.155)"/><path d="M3247.77 531.476 3440.06 339.18 3441.58 339.18 3249.29 531.476Z" fill="#8CBD6B" fill-rule="evenodd" transform="matrix(1 0 0 1.00005 -721.222 166.155)"/><path d="M3247.77 531.476 3440.06 339.18 3441.58 339.18 3441.58 871.708 3249.29 1064 3247.77 1064ZM3247.77 531.476 3249.29 531.476 3441.58 339.18M3249.29 531.476 3249.29 1064" stroke="#70AD47" stroke-width="6.08444" stroke-miterlimit="8" fill="none" fill-rule="evenodd" transform="matrix(1 0 0 1.00005 -721.222 166.155)"/><path d="M2650.39 655.129 2950.4 655.129 2950.4 606.011 3048.64 704.247 2950.4 802.483 2950.4 753.365 2650.39 753.365Z" stroke="#2F528F" stroke-width="6.08444" stroke-miterlimit="8" fill="#DAE3F3" fill-rule="evenodd" transform="matrix(1 0 0 1.00005 -721.222 166.155)"/><path d="M3302.2 655.129 3600.89 655.129 3600.89 606.011 3699.12 704.247 3600.89 802.483 3600.89 753.365 3302.2 753.365Z" stroke="#2F528F" stroke-width="6.08444" stroke-miterlimit="8" fill="#DAE3F3" fill-rule="evenodd" transform="matrix(1 0 0 1.00005 -721.222 166.155)"/><path d="M3940.73 660.771 4238.76 660.771 4238.76 611.321 4337.66 710.221 4238.76 809.121 4238.76 759.671 3940.73 759.671Z" stroke="#2F528F" stroke-width="6.08444" stroke-miterlimit="8" fill="#DAE3F3" fill-rule="evenodd" transform="matrix(1 0 0 1.00005 -721.222 166.155)"/><path d="M1443.67 661.767 1536.6 661.767 1536.6 612.649 1629.53 710.885 1536.6 809.121 1536.6 760.003 1443.67 760.003Z" stroke="#2F528F" stroke-width="6.08444" stroke-miterlimit="8" fill="#DAE3F3" fill-rule="evenodd" transform="matrix(1 0 0 1.00005 -721.222 166.155)"/><path d="M1528.24 613.422 1528.24 253.156 4398.91 253.156 4398.91 515.063 4382.18 515.063 4382.18 261.522 4390.55 269.888 1536.6 269.888 1544.96 261.522 1544.96 613.422ZM4415.65 506.697 4390.55 556.893 4365.46 506.697Z" fill="#8FAADC" transform="matrix(1 0 0 1.00005 -721.222 166.155)"/><path d="M1427.74 346.926C1427.74 262.734 1495.99 194.481 1580.2 194.481L4432.14 194.481C4516.33 194.481 4584.58 262.734 4584.58 346.926L4584.58 956.694C4584.58 1040.89 4516.33 1109.14 4432.14 1109.14L1580.2 1109.14C1495.99 1109.14 1427.74 1040.89 1427.74 956.694Z" stroke="#000000" stroke-width="9.12667" stroke-miterlimit="8" stroke-dasharray="36.5067 27.38" fill="none" fill-rule="evenodd" transform="matrix(1 0 0 1.00005 -721.222 166.155)"/><path d="M1658.73 537.474 1926.4 537.474 1926.4 1065.33 1658.73 1065.33Z" transform="matrix(1 0 0 1.00005 -721.222 166.155)"/><path d="M1926.4 537.474 2123.36 340.508 2123.36 868.365 1926.4 1065.33Z" fill-rule="evenodd" transform="matrix(1 0 0 1.00005 -721.222 166.155)"/><path d="M1658.73 537.474 1855.69 340.508 2123.36 340.508 1926.4 537.474Z" fill="#323232" fill-rule="evenodd" transform="matrix(1 0 0 1.00005 -721.222 166.155)"/><path d="M1658.73 537.474 1855.69 340.508 2123.36 340.508 2123.36 868.365 1926.4 1065.33 1658.73 1065.33ZM1658.73 537.474 1926.4 537.474 2123.36 340.508M1926.4 537.474 1926.4 1065.33" stroke="#000000" stroke-width="6.08444" stroke-miterlimit="8" fill="none" fill-rule="evenodd" transform="matrix(1 0 0 1.00005 -721.222 166.155)"/><path d="M2006.54 661.767 2305.23 661.767 2305.23 612.649 2403.47 710.885 2305.23 809.121 2305.23 760.003 2006.54 760.003Z" stroke="#2F528F" stroke-width="6.08444" stroke-miterlimit="8" fill="#DAE3F3" fill-rule="evenodd" transform="matrix(1 0 0 1.00005 -721.222 166.155)"/></g></g></g></g></g></svg>